<?xml version="1.0"?>
<svg xmlns:rdf="http://www.w3.org/1999/02/22-rdf-syntax-ns#" xmlns="http://www.w3.org/2000/svg" xmlns:cc="http://creativecommons.org/ns#" xmlns:dc="http://purl.org/dc/elements/1.1/" xmlns:svg="http://www.w3.org/2000/svg" id="svg7423" viewBox="0 0 750 660.22" version="1.1">
  <g id="layer1" transform="translate(-65.464 901.44)">
    <g id="g7392" transform="matrix(4.0904 0 0 4.0904 -538 115.63)">
      <path id="path4050" fill="#426e34" d="m289.39-248.65c-0.65 0.02-1.3 0.06-1.86 0.13-1.56 0.2-3.23 0.49-4.5 1.42s-2.32 2.84-2.71 3.87c-0.38 1.02-0.83 2.5-1.54 3.59-0.27 0.41-0.64 0.88-1.07 1.36-4.29 0.99-8.54 2.22-12.7 3.66-7.99 2.75-15.57 6.55-23.39 9.77-8.64 3.56-17.64 6.36-25.99 10.55-6.36 3.19-12.45 6.95-18.25 11.06-2.54 1.79-7.21 5.92-7.21 5.92s-8.98-0.02-13.37 0.76c-4.06 0.73-8.37 1.38-11.84 3.6-2.71 1.73-5.75 4.06-6.43 7.21-0.61 2.81 0.53 6.21 2.58 8.23 1.91 1.88 7.72 2.3 7.72 2.3l-3.09 2.58s-6.37-1.32-9.26-0.25c-3.36 1.24-6.62 3.88-7.98 7.19-2.14 5.25-0.25 11.46 1.02 16.98 1.51 6.6 3.74 13.31 7.72 18.78 3.97 5.46 9.5 9.9 15.44 13.11 5.03 2.73 11.06 2.97 16.45 4.89 5.25 1.87 10.9 3.21 15.44 6.45 6.62 4.72 12.18 10.836 16.2 18.25 7.16-9.897 7.75-13.26 23.41-11.053-4.97-1.737-10.96-4.767-8.23-12.357-7.25-1.37-14.5-2.69-21.86-3.34 3.92-6.74 3.5-12.06 2.05-19.8 0 0 3.6-0.62 5.41-0.78 4.53-0.41 9.08-0.72 13.62-0.51 2.68 0.12 5.52-0.02 7.99 1.02 3.43 1.45 5.66 4.87 8.74 6.95 2.86 1.94 5.68 4.22 9.01 5.14 3.72 1.04 7.71 0.37 11.57 0.26 3.26-0.09 7.71-0.77 9.77-0.77s15.94 1.02 15.94 1.02c-7.41-6.97-8.97-5.57-2.83-14.91 0 0-4.61 0.73-6.94 0.78-2.57 0.06-5.34 0.47-7.72-0.52-1.9-0.8-3.35-2.49-4.63-4.11-1.02-1.3-2.41-2.73-2.3-4.38 0.06-1.04 0.9-2.03 1.79-2.57 1.78-1.07 6.18-0.77 6.18-0.77s-10.06-3.59-13.39-7.46c-0.95-1.11-1.69-2.67-1.54-4.12 0.5-4.76 4.98-8.17 7.72-12.08 3.16-4.51 5.88-9.53 10.04-13.13 4.53-3.92 11.12-4.88 15.69-8.74 3.03-2.55 4.49-6.63 7.45-9.26 3.48-3.1 8.63-4.09 11.84-7.47 1.09-1.14 2.31-4.1 2.31-4.1s4.62-2.96 6.17-5.14c1.55-2.17 3.06-4.82 2.84-7.47-0.19-2.18-1.71-4.2-3.35-5.66-2.52-2.25-6.04-3.08-9.26-4.11-3.33-1.06-6.85-1.44-10.29-2.07-2.6-0.47-5.18-1.1-7.79-1.54-0.13-0.83-0.33-1.81-0.57-2.43-0.36-0.94-0.81-1.91-1.54-2.58-1.66-1.52-5.28-2.45-6.05-2.96-0.48-0.32-1.54-0.41-2.63-0.39zm-100.7 51.7c0.31-0.05 0.65 0.13 0.79 0.42 0.14 0.28 0.07 0.66-0.16 0.88 0 0-3.69 4.05-5.38 6.13-1.29 1.59-2.33 3.53-3.89 5.19-1.59 1.68-3.46 2.9-5.07 4.29-1.5 1.3-4.5 3.98-4.5 3.98-0.29 0.31-0.85 0.31-1.13 0-0.28-0.32-0.23-0.88 0.11-1.13 0 0 2.99-2.67 4.52-3.99 1.71-1.48 3.53-2.7 4.95-4.21 1.38-1.46 2.41-3.35 3.82-5.09 1.76-2.17 5.44-6.2 5.44-6.2 0.11-0.13 0.27-0.22 0.43-0.26 0.02-0.01 0.05-0.01 0.07-0.01zm75.24 14.92c0.31-0.02 0.62 0.15 0.76 0.43 0.13 0.28 0.07 0.64-0.14 0.86 0 0-1.53 1.7-3.29 3.92s-3.73 4.98-4.54 6.92c-0.9 2.17-0.41 5.01-1.26 7.78-1.05 3.46-3.42 6.18-4.25 9.23-0.41 1.53-0.39 3.23-0.47 4.98-0.1 1.99-0.27 3.94-0.02 5.78 0.33 2.4 1.25 4.75 2.04 7.19 0.4 1.25 1.4 3.82 1.4 3.82 0.14 0.38-0.06 0.85-0.44 1-0.37 0.14-0.85-0.06-0.99-0.44 0 0-1-2.54-1.44-3.9-0.59-1.85-1.31-3.73-1.76-5.71-0.07 0.15-0.2 0.29-0.35 0.36-4.49 2.39-4.34 2.96-12.73 4.08-0.4 0.05-0.82-0.26-0.87-0.66-0.06-0.4 0.26-0.82 0.66-0.87 8.34-1.11 7.63-1.46 12.22-3.9 0.1-0.06 0.22-0.09 0.34-0.09 0.2-0.02 0.4 0.05 0.55 0.19-0.05-0.29-0.1-0.57-0.14-0.86-0.29-2.07-0.1-4.11 0-6.07 0.08-1.68 0.05-3.49 0.54-5.3 0.95-3.5 3.32-6.24 4.25-9.27 0.7-2.3 0.17-5.2 1.3-7.93 0.94-2.26 2.97-5.03 4.76-7.29 1.8-2.26 3.36-3.99 3.36-3.99 0.13-0.15 0.32-0.24 0.51-0.26zm-96.23 9.27c0.17-0.02 0.36 0.02 0.5 0.12 6.26 4.02 14.47 9.96 21.12 17s11.77 15.22 11.64 23.79c-0.01 0.4-0.38 0.76-0.78 0.75s-0.76-0.38-0.75-0.78c0.13-7.94-4.71-15.83-11.22-22.73-6.51-6.89-14.64-12.76-20.83-16.74-0.28-0.16-0.43-0.51-0.36-0.82s0.36-0.56 0.68-0.59zm23.01 6.17c0.15-0.01 0.31 0.02 0.44 0.1 12.65 6.34 20.43 17.8 25.07 30.63 0.16 0.38-0.05 0.88-0.44 1.02s-0.87-0.1-0.99-0.49c-4.56-12.6-12.11-23.68-24.32-29.81-0.3-0.14-0.48-0.49-0.43-0.82 0.06-0.32 0.34-0.59 0.67-0.63zm-36.29 6.05c0.23-0.03 0.47 0.04 0.64 0.2 0 0 3.49 3.17 5 5.26 2.22 3.08 3.35 6.69 5.17 9.7 2.26 3.74 4.83 7.3 7.41 10.87 2.53 3.49 4.51 7.35 7.6 9.9 2.78 2.31 6.41 3.61 9.96 5.02 0.81 0.31 1.99 0.31 3.17 0.95 1.35 0.74 2.33 1.86 3.26 2.9 0.93 1.03 1.82 1.96 2.88 2.48 2.33 1.14 5.1 1.59 7.73 1.46 0.74-0.03 2.04-0.39 3.11-0.76 1.06-0.37 1.89-0.72 1.89-0.72 0.37-0.18 0.88 0 1.04 0.38 0.17 0.38-0.05 0.88-0.44 1.02 0 0-0.88 0.38-2 0.77-1.12 0.38-2.44 0.79-3.53 0.84-2.86 0.14-5.86-0.35-8.47-1.62-1.4-0.68-2.4-1.79-3.34-2.83-0.94-1.05-1.82-2.01-2.87-2.58-0.7-0.39-1.82-0.39-3-0.86-3.52-1.39-7.3-2.73-10.36-5.27-3.42-2.83-5.42-6.82-7.85-10.17-2.59-3.57-5.19-7.19-7.5-11-1.95-3.22-3.07-6.75-5.1-9.58-1.27-1.75-4.8-5.03-4.8-5.03-0.44-0.38-0.18-1.26 0.4-1.33z"/>
      <path id="path4052" transform="matrix(.25463 0 0 .19495 1174.6 387.1)" d="m-3421.1-3165c0 8.9-7.3 16.1-16.2 16.1s-16.2-7.2-16.2-16.1c0-9 7.3-16.2 16.2-16.2s16.2 7.2 16.2 16.2z"/>
      <path id="path4148" d="m298.6-238.22c-4.82 0-8.75 3.91-8.75 8.74 0 4.82 3.93 8.73 8.75 8.73s8.74-3.91 8.74-8.73c0-4.83-3.92-8.74-8.74-8.74zm0 1.02c4.27 0 7.72 3.45 7.72 7.72s-3.45 7.71-7.72 7.71-7.73-3.44-7.73-7.71 3.46-7.72 7.73-7.72z"/>
    </g>
  </g>
  <metadata>
    <rdf:RDF>
      <cc:Work>
        <dc:format>image/svg+xml</dc:format>
        <dc:type rdf:resource="http://purl.org/dc/dcmitype/StillImage"/>
        <cc:license rdf:resource="http://creativecommons.org/licenses/publicdomain/"/>
        <dc:publisher>
          <cc:Agent rdf:about="http://openclipart.org/">
            <dc:title>Openclipart</dc:title>
          </cc:Agent>
        </dc:publisher>
        <dc:title>Frog by Rones</dc:title>
        <dc:date>2012-12-04T08:49:33</dc:date>
        <dc:description>animal, clip art, clipart, frog, silhouette, </dc:description>
        <dc:source>http://openclipart.org/detail/173507/frog-by-rones-by-rones-173507</dc:source>
        <dc:creator>
          <cc:Agent>
            <dc:title>rones</dc:title>
          </cc:Agent>
        </dc:creator>
        <dc:subject>
          <rdf:Bag>
            <rdf:li>animal</rdf:li>
            <rdf:li>clip art</rdf:li>
            <rdf:li>clipart</rdf:li>
            <rdf:li>frog</rdf:li>
            <rdf:li>silhouette</rdf:li>
          </rdf:Bag>
        </dc:subject>
      </cc:Work>
      <cc:License rdf:about="http://creativecommons.org/licenses/publicdomain/">
        <cc:permits rdf:resource="http://creativecommons.org/ns#Reproduction"/>
        <cc:permits rdf:resource="http://creativecommons.org/ns#Distribution"/>
        <cc:permits rdf:resource="http://creativecommons.org/ns#DerivativeWorks"/>
      </cc:License>
    </rdf:RDF>
  </metadata>
</svg>
