<?xml version="1.0" encoding="utf-8"?>
<!-- Generator: Adobe Illustrator 17.1.0, SVG Export Plug-In . SVG Version: 6.00 Build 0)  -->
<!DOCTYPE svg PUBLIC "-//W3C//DTD SVG 1.1//EN" "http://www.w3.org/Graphics/SVG/1.1/DTD/svg11.dtd">
<svg version="1.1" id="Ebene_1" xmlns="http://www.w3.org/2000/svg" xmlns:xlink="http://www.w3.org/1999/xlink" x="0px" y="0px"
	 viewBox="0 0 57.1 52.8" enable-background="new 0 0 57.1 52.8" xml:space="preserve">
<g>
	<g>
		<g enable-background="new    ">
			<g enable-background="new    ">
				<defs>
					<path id="SVGID_1_" enable-background="new    " d="M28.5,52.4c0.1-0.2,0.1-0.4,0.1-0.4c0,0.1,0,0.3,0.1,0.4
						c-0.3-0.6-0.8-2-1.5-3.6H30C29.3,50.4,28.7,51.7,28.5,52.4z"/>
				</defs>
				<clipPath id="SVGID_2_">
					<use xlink:href="#SVGID_1_"  overflow="visible"/>
				</clipPath>
				<g clip-path="url(#SVGID_2_)" enable-background="new    ">
					<g>
						<path fill="#90231D" d="M28.6,52L28.6,52L28.6,52L28.6,52l0,0.1l0,0l0,0l0,0l0,0l0,0l0,0l0,0l0,0C28.6,52.3,28.5,52.2,28.6,52
							L28.6,52L28.6,52L28.6,52"/>
						<path fill="#90231D" d="M28.5,52.4L28.5,52.4L28.5,52.4L28.5,52.4l0-0.1l0,0l0,0l0,0l0,0l0,0l0,0l0,0l0,0l0,0h0.1
							C28.6,52.2,28.5,52.3,28.5,52.4"/>
					</g>
					<g>
						<polyline fill="#94231E" points="28.6,52 28.5,52 28.5,52 28.6,52 28.6,52 28.6,52 						"/>
						<polyline fill="#94231E" points="28.6,52 28.6,52 28.6,52 28.6,52 28.6,52 28.6,52 						"/>
					</g>
					<g>
						<polyline fill="#972420" points="28.6,52 28.5,52 28.5,52 28.5,52 28.5,52 28.5,52 28.5,52 28.5,52 28.5,52 28.6,52 28.6,52 
							28.6,52 28.6,52 28.6,52 						"/>
						<polyline fill="#972420" points="28.6,52 28.6,52 28.6,52 28.6,52 28.6,52 28.6,52 						"/>
					</g>
					<g>
						<polyline fill="#9B2521" points="28.6,52 28.5,52 28.5,52 28.6,52 28.6,52 28.6,52 						"/>
						<polyline fill="#9B2521" points="28.6,52 28.6,52 28.6,52 28.6,52 28.6,52 28.6,52 28.6,52 28.6,52 28.6,52 28.6,52 28.6,52 
							28.6,52 28.6,52 28.6,52 28.6,52 						"/>
					</g>
					<g>
						<polyline fill="#9F2622" points="28.6,52 28.5,52 28.5,52 28.5,52 28.5,52 28.5,52 28.5,52 28.5,52 28.5,52 28.6,52 28.6,52 
							28.6,52 28.6,52 28.6,52 28.6,52 						"/>
						<polyline fill="#9F2622" points="28.6,52 28.6,52 28.6,52 28.6,52 28.6,52 28.6,52 28.6,52 28.6,52 28.6,52 28.6,52 28.6,52 
							28.6,52 28.6,52 28.6,52 28.6,52 28.6,52 						"/>
					</g>
					<g>
						<polyline fill="#A22723" points="28.6,52 28.5,52 28.5,52 28.6,52 28.6,52 28.6,52 						"/>
						<polyline fill="#A22723" points="28.6,52 28.6,52 28.6,52 28.6,52 28.6,52 28.6,52 28.6,52 28.6,52 28.6,52 28.6,52 28.6,52 
							28.6,52 28.6,52 28.6,52 28.6,52 28.6,52 						"/>
					</g>
					<polyline fill="#A62724" points="28.6,52 28.6,52 28.6,52 28.6,52 28.6,52 28.6,52 28.6,52 28.6,52 28.6,52 28.6,52 28.6,52 
						28.6,52 28.6,52 28.6,52 28.6,52 28.5,52 28.5,52 28.5,52 28.5,52 28.5,52 28.5,52 28.5,52 28.5,52 28.5,52 28.6,52 28.6,52 
						28.6,52 28.6,52 28.6,52 28.6,52 28.6,52 28.6,52 28.6,52 28.6,52 28.6,52 28.6,52 28.6,52 28.6,52 28.6,52 					"/>
					<polyline fill="#AA2825" points="28.6,52 28.6,52 28.6,52 28.6,52 28.6,52 28.6,52 28.6,52 28.6,52 28.6,52 28.6,52 28.6,52 
						28.6,52 28.6,52 28.6,52 28.6,52 28.6,52 28.5,52 28.5,52 28.5,52 28.5,52 28.5,52 28.5,52 28.5,52 28.5,52 28.6,52 28.6,52 
											"/>
					<polyline fill="#AD2926" points="28.6,52 28.6,52 28.6,52 28.6,52 28.6,52 28.6,52 28.6,52 28.6,52 28.6,52 28.6,52 28.6,52 
						28.6,52 28.6,52 28.6,52 28.6,52 28.6,52 28.5,52 28.5,52 28.5,52 28.5,52 28.5,52 28.5,52 28.5,52 28.5,52 28.6,52 28.6,52 
											"/>
					<polyline fill="#B12A27" points="28.6,52 28.5,52 28.5,52 28.6,52 28.6,52 					"/>
					<polyline fill="#B42A28" points="28.6,52 28.5,52 28.5,52 28.7,52 28.6,52 					"/>
					<polyline fill="#B82B29" points="28.7,52 28.5,52 28.5,52 28.7,52 28.7,52 					"/>
					<polyline fill="#BC2C2A" points="28.7,52 28.5,52 28.5,52 28.7,52 28.7,52 					"/>
					<polyline fill="#BF2C2B" points="28.7,52 28.5,52 28.5,51.9 28.7,51.9 28.7,52 					"/>
					<polyline fill="#C32D2C" points="28.7,51.9 28.5,51.9 28.4,51.9 28.7,51.9 28.7,51.9 					"/>
					<polyline fill="#C72D2D" points="28.7,51.9 28.4,51.9 28.4,51.9 28.4,51.9 28.5,51.9 28.5,51.9 28.5,51.9 28.5,51.9 28.5,51.9 
						28.5,51.9 28.5,51.9 28.6,51.9 28.6,51.9 28.6,51.9 28.6,51.9 28.6,51.9 28.6,51.9 28.6,51.9 28.6,51.9 28.6,51.9 28.6,51.9 
						28.6,51.9 28.6,51.9 28.7,51.9 28.7,51.9 					"/>
					<polyline fill="#CA2E2E" points="28.7,51.9 28.4,51.9 28.4,51.9 28.7,51.9 28.7,51.9 					"/>
					<polyline fill="#CE2E2F" points="28.7,51.9 28.4,51.9 28.4,51.9 28.4,51.9 28.5,51.9 28.5,51.9 28.5,51.9 28.5,51.9 28.5,51.9 
						28.5,51.9 28.5,51.9 28.5,51.9 28.6,51.9 28.6,51.9 28.6,51.9 28.6,51.9 28.6,51.9 28.6,51.9 28.6,51.9 28.6,51.9 28.6,51.9 
						28.6,51.9 28.6,51.9 28.7,51.9 28.7,51.9 					"/>
					<polyline fill="#D12F30" points="28.7,51.9 28.4,51.9 28.4,51.9 28.7,51.9 28.7,51.9 					"/>
					<polyline fill="#D52F31" points="28.7,51.9 28.4,51.9 28.4,51.9 28.7,51.9 28.7,51.9 					"/>
					<polyline fill="#D83031" points="28.7,51.9 28.7,51.9 28.7,51.9 28.6,51.9 28.6,51.9 28.6,51.9 28.6,51.9 28.6,51.9 28.6,51.9 
						28.6,51.9 28.6,51.9 28.6,51.9 28.6,51.9 28.6,51.9 28.5,51.9 28.5,51.9 28.5,51.9 28.5,51.9 28.5,51.9 28.5,51.9 28.5,51.9 
						28.5,51.9 28.4,51.9 28.4,51.9 28.7,51.9 28.7,51.9 					"/>
					<polyline fill="#DC3032" points="28.7,51.9 28.4,51.9 28.4,51.9 28.7,51.9 28.7,51.9 					"/>
					<polyline fill="#E03133" points="28.7,51.9 28.4,51.9 28.4,51.9 28.7,51.9 28.7,51.9 					"/>
					<polyline fill="#E33134" points="28.7,51.9 28.4,51.9 28.4,51.9 28.7,51.9 28.7,51.9 					"/>
					<polyline fill="#E73235" points="28.7,51.9 28.4,51.9 28.4,51.9 28.7,51.9 28.7,51.9 					"/>
					<polyline fill="#EA5148" points="28.7,51.9 28.4,51.9 28.4,51.9 28.7,51.9 28.7,51.9 					"/>
					<polyline fill="#EB5D51" points="28.7,51.9 28.4,51.9 28.4,51.9 28.4,51.9 28.4,51.9 28.5,51.9 28.5,51.9 28.5,51.9 28.5,51.9 
						28.5,51.9 28.5,51.9 28.5,51.9 28.6,51.9 28.6,51.9 28.6,51.9 28.6,51.9 28.6,51.9 28.6,51.9 28.6,51.9 28.6,51.9 28.6,51.9 
						28.6,51.9 28.7,51.9 28.7,51.9 28.7,51.9 					"/>
					<polyline fill="#EC6658" points="28.7,51.9 28.4,51.9 28.4,51.9 28.7,51.9 28.7,51.9 					"/>
					<polyline fill="#ED6D5E" points="28.7,51.9 28.4,51.9 28.4,51.9 28.4,51.9 28.4,51.9 28.5,51.9 28.5,51.9 28.5,51.9 28.5,51.9 
						28.5,51.9 28.5,51.9 28.5,51.9 28.6,51.9 28.6,51.9 28.6,51.9 28.6,51.9 28.6,51.9 28.6,51.9 28.6,51.9 28.6,51.9 28.6,51.9 
						28.6,51.9 28.7,51.9 28.7,51.9 28.7,51.9 					"/>
					<polyline fill="#EE7463" points="28.7,51.9 28.4,51.9 28.4,51.9 28.7,51.9 28.7,51.9 					"/>
					<polyline fill="#EF7968" points="28.7,51.9 28.4,51.9 28.4,51.8 28.4,51.8 28.4,51.8 28.5,51.8 28.5,51.8 28.5,51.8 28.5,51.8 
						28.5,51.8 28.5,51.8 28.5,51.8 28.6,51.8 28.6,51.8 28.6,51.8 28.6,51.8 28.6,51.8 28.6,51.8 28.6,51.8 28.6,51.8 28.6,51.8 
						28.6,51.8 28.7,51.8 28.7,51.8 28.7,51.9 					"/>
					<polyline fill="#EF7F6D" points="28.7,51.8 28.4,51.8 28.4,51.8 28.7,51.8 28.7,51.8 					"/>
					<path fill="#F08371" d="M28.7,51.8C28.7,51.8,28.7,51.8,28.7,51.8L28.7,51.8L28.7,51.8L28.7,51.8L28.7,51.8L28.7,51.8h-0.1h0h0
						h0h0h0h0h0h0h0h0h0h0h0h0h0c-0.1-0.1-0.1-0.3-0.2-0.5h0.7C28.8,51.5,28.8,51.7,28.7,51.8"/>
					<path fill="#EF7F6D" d="M28.9,51.4l-0.7,0c-0.1-0.1-0.1-0.3-0.2-0.4h1C29,51.1,28.9,51.3,28.9,51.4"/>
					<path fill="#EF7968" d="M29.1,51h-1c-0.1-0.1-0.1-0.2-0.2-0.4h1.4C29.2,50.7,29.1,50.8,29.1,51"/>
					<path fill="#EE7463" d="M29.2,50.6h-1.4c0-0.1-0.1-0.2-0.1-0.4l1.6,0C29.3,50.3,29.3,50.5,29.2,50.6"/>
					<path fill="#ED6D5E" d="M29.4,50.2C29.4,50.2,29.4,50.2,29.4,50.2L29.4,50.2h-0.1h-0.1H29h-0.1h-0.1h-0.1h-0.1h-0.1h-0.1h-0.1
						h-0.1h-0.1h-0.1h-0.1h-0.1h-0.1h-0.1H28h-0.1h-0.1c0-0.1-0.1-0.2-0.2-0.4l0,0h0.1h0.1H28h0.1h0.1h0.1h0.1h0.1h0.1h0.1h0.1h0.1
						h0.1h0.1h0.1H29h0.1h0.1h0.1h0.1C29.5,50,29.4,50.1,29.4,50.2"/>
					<path fill="#EC6658" d="M29.5,49.9C29.5,49.9,29.5,49.9,29.5,49.9L29.5,49.9h-0.1h-0.1h-0.1H29h-0.1h-0.1h-0.1h-0.1h-0.1h-0.1
						h-0.1h-0.1h-0.1h-0.1h-0.1h-0.1H28h-0.1h-0.1h-0.1c0-0.1-0.1-0.2-0.2-0.4h2.2C29.6,49.6,29.6,49.7,29.5,49.9"/>
					<path fill="#EB5D51" d="M29.7,49.5C29.7,49.5,29.7,49.5,29.7,49.5L29.7,49.5h-0.2h-0.2h-0.1h-0.1H29h-0.1h-0.1h-0.1h-0.1h-0.1
						h-0.1h-0.1h-0.1h-0.1h-0.1H28h-0.1h-0.1h-0.2h-0.2c0-0.1-0.1-0.2-0.2-0.4l2.5,0C29.8,49.3,29.7,49.4,29.7,49.5"/>
					<path fill="#EA5148" d="M29.8,49.1h-2.5c0-0.1-0.1-0.2-0.1-0.3H30C29.9,48.9,29.9,49,29.8,49.1"/>
				</g>
			</g>
			<g enable-background="new    ">
				<defs>
					<path id="SVGID_3_" enable-background="new    " d="M30,48.8c-0.9,2.2-1.7,4-1.7,4L4.9,29.2c0,0,1.3-1.3,2.8-2.8
						C7.8,26.4,30,48.8,30,48.8z"/>
				</defs>
				<clipPath id="SVGID_4_">
					<use xlink:href="#SVGID_3_"  overflow="visible"/>
				</clipPath>
				<g clip-path="url(#SVGID_4_)" enable-background="new    ">
					<path fill="#EA5148" d="M7.8,26.4L30,48.8c0,0,0,0,0,0L7.8,26.4C7.7,26.4,7.8,26.4,7.8,26.4"/>
					<path fill="#E73235" d="M7.7,26.4L30,48.8c0,0.1-0.1,0.2-0.1,0.2L7.6,26.6C7.6,26.6,7.7,26.5,7.7,26.4"/>
					<path fill="#E33134" d="M7.6,26.6l22.3,22.5c0,0.1-0.1,0.2-0.1,0.3L7.4,26.8C7.4,26.7,7.5,26.7,7.6,26.6"/>
					<path fill="#E03133" d="M7.4,26.8l22.4,22.5c0,0.1-0.1,0.2-0.1,0.3L7.2,27C7.3,26.9,7.3,26.9,7.4,26.8"/>
					<path fill="#DC3032" d="M7.2,27l22.4,22.6c0,0.1-0.1,0.2-0.1,0.3L7,27.2C7.1,27.1,7.1,27,7.2,27"/>
					<path fill="#D83031" d="M7,27.2l22.5,22.7c0,0.1-0.1,0.2-0.1,0.3L6.8,27.3C6.9,27.3,7,27.2,7,27.2"/>
					<path fill="#D52F31" d="M6.8,27.3l22.6,22.8c0,0.1-0.1,0.2-0.1,0.3L6.6,27.5C6.7,27.5,6.8,27.4,6.8,27.3"/>
					<path fill="#D12F30" d="M6.6,27.5l22.7,22.8c0,0.1-0.1,0.2-0.1,0.3L6.4,27.7C6.5,27.7,6.6,27.6,6.6,27.5"/>
					<path fill="#CE2E2F" d="M6.4,27.7l22.8,22.9c0,0.1-0.1,0.2-0.1,0.3l-22.8-23C6.3,27.9,6.4,27.8,6.4,27.7"/>
					<path fill="#CA2E2E" d="M6.3,27.9l22.8,23c0,0.1-0.1,0.2-0.1,0.3L6.1,28.1C6.1,28,6.2,28,6.3,27.9"/>
					<path fill="#C72D2D" d="M6.1,28.1L29,51.2c0,0.1-0.1,0.2-0.1,0.2l-23-23.2C6,28.2,6,28.1,6.1,28.1"/>
					<path fill="#C32D2C" d="M5.9,28.3l23,23.2c0,0.1-0.1,0.2-0.1,0.2l-23-23.2C5.8,28.4,5.9,28.3,5.9,28.3"/>
					<path fill="#BF2C2B" d="M5.7,28.4l23,23.2c0,0.1-0.1,0.1-0.1,0.2L5.6,28.6C5.7,28.5,5.7,28.5,5.7,28.4"/>
					<path fill="#BC2C2A" d="M5.6,28.6l23.1,23.3c0,0.1,0,0.1-0.1,0.2L5.5,28.7C5.5,28.6,5.6,28.6,5.6,28.6"/>
					<path fill="#B82B29" d="M5.5,28.7L28.6,52c0,0,0,0.1-0.1,0.1L5.4,28.8C5.4,28.7,5.5,28.7,5.5,28.7"/>
					<path fill="#B42A28" d="M5.4,28.8l23.2,23.4c0,0,0,0.1,0,0.1L5.4,28.8C5.3,28.8,5.4,28.8,5.4,28.8"/>
					<path fill="#B12A27" d="M5.3,28.9l23.2,23.4c0,0,0,0.1,0,0.1L5.3,28.9C5.3,28.9,5.3,28.9,5.3,28.9"/>
					<path fill="#AD2926" d="M5.2,28.9l23.3,23.4c0,0,0,0.1,0,0.1L5.2,28.9C5.2,29,5.2,29,5.2,28.9"/>
					<path fill="#AA2825" d="M5.2,29l23.3,23.5c0,0,0,0,0,0.1L5.2,29C5.1,29,5.2,29,5.2,29"/>
					<path fill="#A62724" d="M5.1,29l23.3,23.5c0,0,0,0,0,0.1L5.1,29C5.1,29.1,5.1,29,5.1,29"/>
					<path fill="#A22723" d="M5.1,29.1l23.3,23.5c0,0,0,0,0,0L5.1,29.1C5.1,29.1,5.1,29.1,5.1,29.1"/>
					<path fill="#9F2622" d="M5.1,29.1l23.3,23.5c0,0,0,0,0,0L5.1,29.1C5,29.1,5.1,29.1,5.1,29.1"/>
					<path fill="#9B2521" d="M5,29.1l23.3,23.5c0,0,0,0,0,0L5,29.1C5,29.1,5,29.1,5,29.1"/>
					<path fill="#972420" d="M5,29.1l23.3,23.5c0,0,0,0,0,0L5,29.1C5,29.2,5,29.2,5,29.1"/>
					<path fill="#94231E" d="M5,29.2l23.4,23.5c0,0,0,0,0,0L5,29.2C5,29.2,5,29.2,5,29.2"/>
					<path fill="#90231D" d="M5,29.2l23.4,23.5c0,0,0,0.1,0,0.1L5,29.2C4.9,29.2,4.9,29.2,5,29.2"/>
				</g>
			</g>
			<g enable-background="new    ">
				<defs>
					<path id="SVGID_5_" enable-background="new    " d="M49.3,26.4c1.6,1.6,2.8,2.8,2.8,2.8L28.8,52.8c0,0-0.7-1.8-1.7-4
						C27.1,48.8,49.3,26.4,49.3,26.4z"/>
				</defs>
				<clipPath id="SVGID_6_">
					<use xlink:href="#SVGID_5_"  overflow="visible"/>
				</clipPath>
				<g clip-path="url(#SVGID_6_)" enable-background="new    ">
					<path fill="#EA5148" d="M27.1,48.8l22.2-22.4c0.3,0.3,0.7,0.7,1,1L27.7,50.2C27.5,49.7,27.3,49.3,27.1,48.8"/>
					<path fill="#E73235" d="M27.7,50.2l22.6-22.8c0.2,0.2,0.4,0.4,0.6,0.6L28.1,51C28,50.8,27.8,50.5,27.7,50.2"/>
					<path fill="#E33134" d="M28.1,51l22.9-23c0.1,0.1,0.2,0.2,0.3,0.3l-23,23.2C28.2,51.3,28.1,51.2,28.1,51"/>
					<path fill="#E03133" d="M28.2,51.5l23-23.2c0.1,0.1,0.1,0.1,0.2,0.2L28.4,51.7C28.3,51.6,28.3,51.5,28.2,51.5"/>
					<path fill="#DC3032" d="M28.4,51.7l23.1-23.2c0.1,0,0.1,0.1,0.1,0.1L28.4,51.9C28.4,51.9,28.4,51.8,28.4,51.7"/>
					<path fill="#D83031" d="M28.4,51.9l23.1-23.3c0,0,0.1,0.1,0.1,0.1L28.5,52.1C28.5,52,28.5,52,28.4,51.9"/>
					<path fill="#D52F31" d="M28.5,52.1l23.2-23.4c0,0,0.1,0.1,0.1,0.1L28.6,52.2C28.5,52.2,28.5,52.1,28.5,52.1"/>
					<path fill="#D12F30" d="M28.6,52.2l23.2-23.4c0,0,0.1,0.1,0.1,0.1L28.6,52.3C28.6,52.3,28.6,52.3,28.6,52.2"/>
					<path fill="#CE2E2F" d="M28.6,52.3l23.2-23.4c0,0,0,0,0.1,0.1L28.6,52.3C28.6,52.4,28.6,52.4,28.6,52.3"/>
					<path fill="#CA2E2E" d="M28.6,52.4L51.9,29c0,0,0,0,0.1,0.1L28.6,52.4C28.7,52.5,28.7,52.4,28.6,52.4"/>
					<path fill="#C72D2D" d="M28.7,52.5L52,29c0,0,0,0,0,0L28.7,52.5C28.7,52.5,28.7,52.5,28.7,52.5"/>
					<path fill="#C32D2C" d="M28.7,52.6L52,29.1c0,0,0,0,0,0L28.7,52.6C28.7,52.6,28.7,52.6,28.7,52.6"/>
					<path fill="#BF2C2B" d="M28.7,52.6L52,29.1c0,0,0,0,0,0L28.7,52.6C28.7,52.6,28.7,52.6,28.7,52.6"/>
					<path fill="#BC2C2A" d="M28.7,52.6l23.3-23.5c0,0,0,0,0,0L28.7,52.6C28.8,52.7,28.7,52.7,28.7,52.6"/>
					<path fill="#B82B29" d="M28.8,52.7l23.3-23.5c0,0,0,0,0,0L28.8,52.7C28.8,52.7,28.8,52.7,28.8,52.7"/>
					<path fill="#B42A28" d="M28.8,52.7l23.4-23.5c0,0,0,0,0,0L28.8,52.7C28.8,52.7,28.8,52.7,28.8,52.7"/>
					<path fill="#B12A27" d="M28.8,52.7l23.4-23.5c0,0,0,0,0,0L28.8,52.7C28.8,52.7,28.8,52.7,28.8,52.7"/>
					<path fill="#AD2926" d="M28.8,52.7l23.4-23.5c0,0,0,0,0,0L28.8,52.7C28.8,52.7,28.8,52.7,28.8,52.7"/>
					<polyline fill="#AA2825" points="28.8,52.7 52.2,29.2 52.2,29.2 28.8,52.8 28.8,52.7 					"/>
					<polyline fill="#A62724" points="28.8,52.8 52.2,29.2 52.2,29.2 28.8,52.8 28.8,52.8 					"/>
					<polyline fill="#A22723" points="28.8,52.8 52.2,29.2 52.2,29.2 28.8,52.8 28.8,52.8 					"/>
					<polyline fill="#9F2622" points="28.8,52.8 52.2,29.2 52.2,29.2 28.8,52.8 28.8,52.8 					"/>
					<polyline fill="#9B2521" points="28.8,52.8 52.2,29.2 52.2,29.2 28.8,52.8 28.8,52.8 					"/>
					<polyline fill="#972420" points="28.8,52.8 52.2,29.2 52.2,29.2 28.8,52.8 28.8,52.8 					"/>
					<polyline fill="#94231E" points="28.8,52.8 52.2,29.2 52.2,29.2 28.8,52.8 28.8,52.8 					"/>
					<polyline fill="#90231D" points="28.8,52.8 52.2,29.2 52.2,29.2 28.8,52.8 28.8,52.8 					"/>
				</g>
			</g>
			<g enable-background="new    ">
				<defs>
					<path id="SVGID_7_" enable-background="new    " d="M28.5,52.4c0.1-0.2,0.1-0.4,0.1-0.4c0,0.1,0,0.3,0.1,0.4
						c0.1,0.3,0.2,0.4,0.2,0.4h-0.5C28.3,52.8,28.4,52.7,28.5,52.4z"/>
				</defs>
				<clipPath id="SVGID_8_">
					<use xlink:href="#SVGID_7_"  overflow="visible"/>
				</clipPath>
				<g clip-path="url(#SVGID_8_)" enable-background="new    ">
					<polyline fill="#B82B29" points="28.6,52 28.6,52 28.6,52 28.6,52 28.6,52 					"/>
					<polyline fill="#BC2C2A" points="28.6,52 28.6,52 28.6,52 28.6,52 28.6,52 28.6,52 28.6,52 					"/>
					<polyline fill="#BF2C2B" points="28.5,52.1 28.6,52.1 28.6,52 28.6,52 28.6,52 28.6,52 28.6,52 28.6,52 28.6,52.1 28.6,52.1 
						28.6,52.1 28.6,52.2 28.6,52.2 28.6,52.2 28.6,52.2 28.6,52.2 28.6,52.2 28.6,52.2 28.6,52.2 28.5,52.2 28.5,52.2 28.5,52.2 
						28.5,52.2 28.5,52.2 28.5,52.1 28.5,52.1 					"/>
					<polyline fill="#BC2C2A" points="28.5,52.2 28.5,52.2 28.5,52.2 28.5,52.2 28.5,52.2 28.5,52.2 28.5,52.2 28.6,52.2 28.6,52.2 
						28.6,52.2 28.6,52.2 28.6,52.2 28.6,52.2 28.6,52.2 28.6,52.2 28.6,52.2 28.6,52.3 28.6,52.3 28.5,52.3 28.5,52.3 28.5,52.2 
						28.5,52.2 					"/>
					<polyline fill="#B82B29" points="28.5,52.3 28.5,52.3 28.6,52.3 28.6,52.3 28.6,52.3 28.6,52.4 28.6,52.4 28.5,52.4 28.5,52.4 
						28.5,52.3 28.5,52.3 					"/>
					<path fill="#B42A28" d="M28.5,52.4C28.5,52.4,28.5,52.4,28.5,52.4L28.5,52.4L28.5,52.4l0.2,0l0,0l0,0c0,0,0,0,0,0.1L28.5,52.4
						C28.5,52.4,28.5,52.4,28.5,52.4"/>
					<path fill="#B12A27" d="M28.4,52.5h0.2c0,0,0,0,0,0.1L28.4,52.5C28.4,52.5,28.4,52.5,28.4,52.5"/>
					<path fill="#AD2926" d="M28.4,52.5h0.3c0,0,0,0,0,0.1L28.4,52.5C28.4,52.6,28.4,52.5,28.4,52.5"/>
					<path fill="#AA2825" d="M28.4,52.6h0.3c0,0,0,0,0,0L28.4,52.6C28.4,52.6,28.4,52.6,28.4,52.6"/>
					<path fill="#A62724" d="M28.4,52.6h0.4c0,0,0,0,0,0L28.4,52.6C28.4,52.6,28.4,52.6,28.4,52.6"/>
					<path fill="#A22723" d="M28.4,52.7h0.4c0,0,0,0,0,0L28.4,52.7C28.4,52.7,28.4,52.7,28.4,52.7"/>
					<path fill="#9F2622" d="M28.4,52.7h0.4c0,0,0,0,0,0L28.4,52.7C28.3,52.7,28.3,52.7,28.4,52.7"/>
					<path fill="#9B2521" d="M28.3,52.7h0.4c0,0,0,0,0,0L28.3,52.7C28.3,52.7,28.3,52.7,28.3,52.7"/>
					<path fill="#972420" d="M28.3,52.7h0.4c0,0,0,0,0,0h0h0h0h0h0h0h0h0h0h0h0h0h0h0h0L28.3,52.7L28.3,52.7L28.3,52.7L28.3,52.7
						L28.3,52.7C28.3,52.7,28.3,52.7,28.3,52.7"/>
					<path fill="#94231E" d="M28.3,52.7C28.3,52.7,28.3,52.7,28.3,52.7L28.3,52.7L28.3,52.7L28.3,52.7L28.3,52.7L28.3,52.7h0.1h0h0
						h0h0h0h0h0h0h0h0h0h0h0h0h0c0,0,0,0,0,0L28.3,52.7C28.3,52.8,28.3,52.8,28.3,52.7"/>
					<path fill="#90231D" d="M28.3,52.8C28.3,52.8,28.3,52.8,28.3,52.8L28.3,52.8L28.3,52.8L28.3,52.8L28.3,52.8L28.3,52.8h0.1h0h0
						h0h0h0h0h0h0h0h0h0h0h0h0h0c0,0,0,0,0,0L28.3,52.8C28.3,52.8,28.3,52.8,28.3,52.8"/>
				</g>
			</g>
			<g enable-background="new    ">
				<defs>
					<path id="SVGID_9_" enable-background="new    " d="M7.8,26.4c-1.6,1.6-2.8,2.8-2.8,2.8c-5.7-5.8-6.6-14.8-2-21.5
						c0,0,1.5,1,3.3,2.3C2.8,15.1,3.4,22,7.8,26.4z"/>
				</defs>
				<clipPath id="SVGID_10_">
					<use xlink:href="#SVGID_9_"  overflow="visible"/>
				</clipPath>
				<g clip-path="url(#SVGID_10_)" enable-background="new    ">
					<path fill="#E73235" d="M7.8,26.4c-1.6,1.6-2.8,2.8-2.8,2.8c-5.7-5.8-6.6-14.8-2-21.5c0,0,1.5,1,3.3,2.3
						C2.8,15.1,3.4,22,7.8,26.4"/>
					<path fill="#E73235" d="M6.2,9.9c0,0.2-0.2,0.3-0.3,0.5c-2.6,4.2-3,10.8,1.9,16c-1.6,1.5-2.8,2.8-2.8,2.8
						c-5.7-5.8-6.6-14.8-2-21.5C2.9,7.7,4.4,8.7,6.2,9.9"/>
					<path fill="#E33134" d="M5.6,9.5c0,0.2-0.2,0.4-0.3,0.6c-2.9,5.9-2,12,2.3,16.5c-1.5,1.5-2.6,2.6-2.6,2.6
						c-5.7-5.8-6.6-14.8-2-21.5C2.9,7.7,4.1,8.5,5.6,9.5"/>
					<path fill="#E03133" d="M5.1,9.2c0,0.1-0.1,0.3-0.2,0.4C2.1,15.9,3,22.2,7.4,26.8c-1.4,1.4-2.5,2.4-2.5,2.4
						c-5.7-5.8-6.6-14.8-2-21.5C2.9,7.7,3.8,8.4,5.1,9.2"/>
					<path fill="#DC3032" d="M4.7,9c0,0.1-0.1,0.2-0.1,0.2C3.6,11.6,0.5,19.9,7.2,27c-1.3,1.3-2.3,2.3-2.3,2.3
						c-5.7-5.8-6.6-14.8-2-21.5C2.9,7.7,3.7,8.2,4.7,9"/>
					<path fill="#D83031" d="M4.4,8.8c0,0.1-0.1,0.3-0.2,0.4c-0.5,1-4.4,10.3,2.8,18c-1.2,1.2-2.1,2.1-2.1,2.1
						c-5.7-5.8-6.6-14.8-2-21.5C2.9,7.7,3.5,8.1,4.4,8.8"/>
					<path fill="#D52F31" d="M4.2,8.6C4.2,8.7,4,8.9,4,9c-1.8,3.8-3.3,11.9,2.9,18.3c-1.1,1.1-1.9,1.9-1.9,1.9
						c-5.7-5.8-6.6-14.8-2-21.5C2.9,7.7,3.4,8.1,4.2,8.6"/>
					<path fill="#D12F30" d="M4,8.4c0,0.1-0.1,0.2-0.1,0.3c-2,3.8-3.6,12.1,2.8,18.9c-1,1-1.7,1.7-1.7,1.7c-5.7-5.8-6.6-14.8-2-21.5
						C2.9,7.7,3.3,8,4,8.4"/>
					<path fill="#CE2E2F" d="M3.8,8.3c0.1,0.2-0.2,0.4-0.3,0.6c-1.8,3.5-3.5,11.9,3,18.8c-0.9,0.9-1.5,1.5-1.5,1.5
						c-5.7-5.8-6.6-14.8-2-21.5C2.9,7.7,3.3,8,3.8,8.3"/>
					<path fill="#CA2E2E" d="M3.6,8.2c0.1,0.2-0.2,0.4-0.3,0.6c-1.9,3.5-3.7,12,3,19.1c-0.8,0.8-1.3,1.3-1.3,1.3
						c-5.7-5.8-6.6-14.8-2-21.5C2.9,7.7,3.2,7.9,3.6,8.2"/>
					<path fill="#C72D2D" d="M3.5,8.1c0,0.1-0.1,0.1-0.1,0.2c-2.3,3.9-4.2,12.5,2.7,19.8c-0.7,0.7-1.2,1.1-1.2,1.1
						c-5.7-5.8-6.6-14.8-2-21.5C2.9,7.7,3.2,7.9,3.5,8.1"/>
					<path fill="#C32D2C" d="M3.4,8c0,0,0,0.1-0.1,0.1c-3.2,5.3-3.6,13.6,2.6,20.1c-0.6,0.6-1,1-1,1c-5.7-5.8-6.6-14.8-2-21.5
						C2.9,7.7,3.1,7.8,3.4,8"/>
					<path fill="#BF2C2B" d="M3.3,8c0,0.2-0.3,0.4-0.4,0.6C0.8,12.2-1.3,21,5.7,28.4c-0.5,0.5-0.8,0.8-0.8,0.8
						c-5.7-5.8-6.6-14.8-2-21.5C2.9,7.7,3.1,7.8,3.3,8"/>
					<path fill="#BC2C2A" d="M3.2,7.9c0,0.2-0.2,0.4-0.3,0.6C0.7,12.1-1.5,21,5.6,28.6c-0.4,0.4-0.7,0.7-0.7,0.7
						c-5.7-5.8-6.6-14.8-2-21.5C2.9,7.7,3.1,7.8,3.2,7.9"/>
					<path fill="#B82B29" d="M3.2,7.9c0,0.2-0.3,0.4-0.4,0.6c-2.2,3.6-4.5,12.5,2.7,20.1c-0.4,0.4-0.6,0.6-0.6,0.6
						c-5.7-5.8-6.6-14.8-2-21.5C2.9,7.7,3,7.8,3.2,7.9"/>
					<path fill="#B42A28" d="M3.1,7.9c0,0,0,0.1-0.1,0.1c-3.5,5.4-4.1,14,2.3,20.8c-0.3,0.3-0.5,0.5-0.5,0.5
						c-5.7-5.8-6.6-14.8-2-21.5C2.9,7.7,3,7.8,3.1,7.9"/>
					<path fill="#B12A27" d="M3.1,7.8C3.1,7.9,3,8,3,8c-3.5,5.4-4.2,14,2.3,20.9c-0.2,0.2-0.4,0.4-0.4,0.4c-5.7-5.8-6.6-14.8-2-21.5
						C2.9,7.7,3,7.8,3.1,7.8"/>
					<path fill="#AD2926" d="M3.1,7.8c0,0.2-0.3,0.4-0.4,0.6c-2.3,3.7-4.7,12.7,2.6,20.5c-0.2,0.2-0.3,0.3-0.3,0.3
						c-5.7-5.8-6.6-14.8-2-21.5C2.9,7.7,3,7.8,3.1,7.8"/>
					<path fill="#AA2825" d="M3,7.8c0,0.2-0.3,0.4-0.4,0.6C0.3,12.1-2.2,21.2,5.2,29c-0.2,0.2-0.3,0.3-0.3,0.3
						C-0.8,23.5-1.6,14.5,3,7.8C2.9,7.7,3,7.8,3,7.8"/>
					<path fill="#A62724" d="M3,7.8c0,0.2-0.3,0.4-0.4,0.6C0.3,12.1-2.2,21.2,5.1,29c-0.1,0.1-0.2,0.2-0.2,0.2
						C-0.8,23.5-1.6,14.5,3,7.8C2.9,7.7,3,7.8,3,7.8"/>
					<path fill="#A22723" d="M3,7.8C3,8,2.8,8.1,2.7,8.3c-3.4,5.2-4.1,14,2.4,20.8c-0.1,0.1-0.2,0.2-0.2,0.2
						C-0.8,23.5-1.6,14.5,3,7.8C2.9,7.7,3,7.8,3,7.8"/>
					<path fill="#9F2622" d="M3,7.8C3,8,2.7,8.2,2.6,8.4c-2.4,3.7-4.9,12.9,2.5,20.7c-0.1,0.1-0.1,0.1-0.1,0.1
						C-0.8,23.5-1.6,14.5,3,7.8C2.9,7.7,3,7.8,3,7.8"/>
					<path fill="#9B2521" d="M3,7.8C3,8,2.7,8.2,2.6,8.4c-2.4,3.7-5,12.9,2.5,20.7c-0.1,0.1-0.1,0.1-0.1,0.1
						C-0.8,23.5-1.6,14.5,3,7.8C2.9,7.7,3,7.7,3,7.8"/>
					<path fill="#972420" d="M3,7.8C3,7.8,2.9,7.9,2.8,8C-0.7,13.3-1.5,22.2,5,29.2c-0.1,0.1-0.1,0.1-0.1,0.1
						C-0.8,23.5-1.6,14.5,3,7.8C2.9,7.7,3,7.7,3,7.8"/>
					<path fill="#94231E" d="M3,7.8C3,8,2.7,8.2,2.6,8.4c-2.4,3.8-5,12.9,2.4,20.8C-0.8,23.5-1.6,14.5,3,7.8C2.9,7.7,3,7.7,3,7.8"/>
					<path fill="#90231D" d="M3,7.7C3,8,2.7,8.2,2.5,8.4C0.1,12.1-2.5,21.3,5,29.2C-0.8,23.5-1.6,14.5,3,7.7C2.9,7.7,3,7.7,3,7.7"/>
				</g>
			</g>
			<g enable-background="new    ">
				<defs>
					<path id="SVGID_11_" enable-background="new    " d="M50.8,9.9c1.8-1.2,3.3-2.2,3.3-2.2c4.6,6.7,3.8,15.7-2,21.5
						c0,0-1.3-1.3-2.8-2.8C53.7,22,54.4,15.1,50.8,9.9z"/>
				</defs>
				<clipPath id="SVGID_12_">
					<use xlink:href="#SVGID_11_"  overflow="visible"/>
				</clipPath>
				<g clip-path="url(#SVGID_12_)" enable-background="new    ">
					<path fill="#F6AE9D" d="M50.8,9.9c1.8-1.2,3.3-2.2,3.3-2.2c4.6,6.7,3.8,15.7-2,21.5c0,0-1.3-1.3-2.8-2.8
						C53.7,22,54.4,15.1,50.8,9.9"/>
					<path fill="#F6AE9D" d="M49.3,26.4c4.4-4.4,5-11.3,1.5-16.5c1.1-0.7,2-1.3,2.7-1.7c0.1,0.2,0.3,0.4,0.5,0.6
						C54,8.8,54.1,8.9,54.2,9c0-0.2,0-0.3-0.4-1c0.3-0.2,0.4-0.3,0.4-0.3c4.6,6.7,3.8,15.7-2,21.5C52.2,29.2,50.9,28,49.3,26.4"/>
					<path fill="#F5AC9A" d="M49.3,26.4c4.4-4.4,5-11.3,1.5-16.5c1-0.7,1.9-1.3,2.5-1.7c0.1,0.2,0.3,0.4,0.4,0.6
						c0.9,1.3,0.9,1.3,1,1.3c0-0.4-0.3-1.1-1-2.2c0.2-0.2,0.4-0.3,0.4-0.3c4.6,6.7,3.8,15.7-2,21.5C52.2,29.2,50.9,28,49.3,26.4"/>
					<path fill="#F5A997" d="M49.3,26.4c4.4-4.4,5-11.3,1.5-16.5c1-0.6,1.8-1.2,2.4-1.6c0.1,0.2,0.3,0.4,0.4,0.6
						c0.5,0.7,0.9,1.5,1.5,2.2c0,0,0.1-0.1,0.1-0.2c0-0.1-0.4-1.4-1.4-3c0.2-0.1,0.4-0.2,0.4-0.2c4.6,6.7,3.8,15.7-2,21.5
						C52.2,29.2,50.9,28,49.3,26.4"/>
					<path fill="#F5A694" d="M49.3,26.4c4.4-4.4,5-11.3,1.5-16.5c0.9-0.6,1.8-1.1,2.4-1.5c0.1,0.1,0.2,0.2,0.2,0.3
						c0.3,0.5,0.7,1,1.4,2.2c0.5,0.9,0.6,1.1,0.7,1c0,0,0.1-1.1-1.7-4.1c0.2-0.1,0.3-0.2,0.3-0.2c4.6,6.7,3.8,15.7-2,21.5
						C52.2,29.2,50.9,28,49.3,26.4"/>
					<path fill="#F4A391" d="M49.3,26.4c4.4-4.4,5-11.3,1.5-16.5c0.9-0.6,1.7-1.1,2.3-1.5c0.1,0.2,0.3,0.4,0.4,0.6
						c0.8,1.2,1.2,2.7,2.2,3.8c0.2-0.5-0.3-2.5-1.9-4.9c0.2-0.1,0.3-0.2,0.3-0.2c4.6,6.7,3.8,15.7-2,21.5
						C52.2,29.2,50.9,28,49.3,26.4"/>
					<path fill="#F4A08E" d="M49.3,26.4c4.4-4.4,5-11.3,1.5-16.5c0.8-0.5,1.6-1,2.2-1.4c0.1,0.2,0.3,0.4,0.4,0.6
						c0.7,1,1.1,1.7,1.9,3.4c0.4,0.9,0.5,0.9,0.6,1.1c0,0,0.4-1.8-2-5.7c0.2-0.1,0.3-0.2,0.3-0.2c4.6,6.7,3.8,15.7-2,21.5
						C52.2,29.2,50.9,28,49.3,26.4"/>
					<path fill="#F49D8B" d="M49.3,26.4c4.4-4.4,5-11.3,1.5-16.5c0.8-0.5,1.5-1,2.1-1.4C53,8.7,53.2,9,53.3,9.1
						c0.9,1.5,1.3,2.2,2.2,4.2c0.3,0.8,0.4,0.9,0.5,0.9c0,0,0.1,0,0.1-0.1c0,0,0.3-2.3-2.2-6.3c0.2-0.1,0.3-0.2,0.3-0.2
						c4.6,6.7,3.8,15.7-2,21.5C52.2,29.2,50.9,28,49.3,26.4"/>
					<path fill="#F39A87" d="M49.3,26.4c4.4-4.4,5-11.3,1.5-16.5c0.7-0.5,1.4-0.9,2-1.3c0.1,0.2,0.3,0.4,0.4,0.6
						c0.7,1.1,1.3,2.1,2.2,4.2c0.3,0.9,0.6,1.6,0.8,1.6c0.2,0,0.6-2.8-2.2-7.1c0.2-0.1,0.2-0.2,0.2-0.2c4.6,6.7,3.8,15.7-2,21.5
						C52.2,29.2,50.9,28,49.3,26.4"/>
					<path fill="#F39784" d="M49.3,26.4c4.4-4.4,5-11.3,1.5-16.5c0.7-0.5,1.3-0.9,1.9-1.2c0.1,0.2,0.3,0.4,0.4,0.6
						c0.7,1,1.4,2.2,2.4,4.8c0.3,0.9,0.6,1.5,0.7,1.6c0,0,0.1,0,0.2,0c0,0,0.7-3-2.3-7.8c0.2-0.1,0.2-0.2,0.2-0.2
						c4.6,6.7,3.8,15.7-2,21.5C52.2,29.2,50.9,28,49.3,26.4"/>
					<path fill="#F29380" d="M49.3,26.4c4.4-4.4,5-11.3,1.5-16.5c0.7-0.4,1.3-0.8,1.8-1.2c0,0,0.1,0.1,0.1,0.1
						c1.1,1.6,1.9,3.1,2.8,5.8c0.3,1,0.5,1.7,0.7,1.7c0.4,0.1,0.8-4-2.2-8.6c0.1-0.1,0.2-0.1,0.2-0.1c4.6,6.7,3.8,15.7-2,21.5
						C52.2,29.2,50.9,28,49.3,26.4"/>
					<path fill="#F28F7D" d="M49.3,26.4c4.4-4.4,5-11.3,1.5-16.5c0.6-0.4,1.2-0.8,1.7-1.1c0,0,0,0,0,0c1.5,2.2,2.1,3.7,3.1,6.8
						c0.4,1.2,0.5,1.6,0.7,1.5c0.2-0.1,1.1-3.9-2.3-9.3c0.1-0.1,0.2-0.1,0.2-0.1c4.6,6.7,3.8,15.7-2,21.5
						C52.2,29.2,50.9,28,49.3,26.4"/>
					<path fill="#F18C79" d="M49.3,26.4c4.4-4.4,5-11.3,1.5-16.5c0.6-0.4,1.1-0.7,1.6-1c0.1,0.2,0.3,0.4,0.4,0.6
						c1.3,2.1,2,3.8,2.7,6.6c0.3,1,0.4,1.8,0.6,1.8c0,0,0.1,0,0.2,0c0.2-0.1,1.3-4.4-2.3-10c0.1-0.1,0.2-0.1,0.2-0.1
						c4.6,6.7,3.8,15.7-2,21.5C52.2,29.2,50.9,28,49.3,26.4"/>
					<path fill="#F18875" d="M49.3,26.4c4.4-4.4,5-11.3,1.5-16.5c0.5-0.3,1-0.7,1.4-0.9c0.1,0.2,0.3,0.4,0.4,0.5
						c1.4,2.3,2.1,4.1,2.8,7.3c0.3,1.3,0.4,1.9,0.7,1.8c0.3-0.1,1.6-4.9-2.2-10.8c0.1-0.1,0.2-0.1,0.2-0.1c4.6,6.7,3.8,15.7-2,21.5
						C52.2,29.2,50.9,28,49.3,26.4"/>
					<path fill="#F08371" d="M49.3,26.4c4.4-4.4,5-11.3,1.5-16.5c0.5-0.3,0.9-0.6,1.3-0.9c0.1,0.2,0.3,0.4,0.4,0.5
						c1.8,3,2.3,5.2,2.9,8c0.2,1.2,0.4,1.9,0.6,1.8c0.4-0.1,2.1-5.2-2-11.6c0.1-0.1,0.2-0.1,0.2-0.1c4.6,6.7,3.8,15.7-2,21.5
						C52.2,29.2,50.9,28,49.3,26.4"/>
					<path fill="#EF7F6D" d="M49.3,26.4c4.4-4.4,5-11.3,1.5-16.5c0.4-0.3,0.8-0.5,1.2-0.8c0.1,0.2,0.3,0.4,0.4,0.5
						c1.6,2.6,2.3,4.6,2.8,8.3c0.2,1.3,0.3,2.2,0.6,2.2c0.7,0,2.6-5.6-1.8-12.3c0.1-0.1,0.2-0.1,0.2-0.1c4.6,6.7,3.8,15.7-2,21.5
						C52.2,29.2,50.9,28,49.3,26.4"/>
					<path fill="#EF7968" d="M49.3,26.4c4.4-4.4,5-11.3,1.5-16.5c0.4-0.2,0.7-0.5,1-0.7c0.1,0.2,0.2,0.4,0.4,0.5
						c1.7,2.7,2.4,5.1,2.7,8.9c0.1,1.2,0.2,2.2,0.5,2.3c0.4,0.2,0.9-1,1-1.7c0.4-1.7,1-6.2-2.4-11.5c0.1-0.1,0.2-0.1,0.2-0.1
						c4.6,6.7,3.8,15.7-2,21.5C52.2,29.2,50.9,28,49.3,26.4"/>
					<path fill="#EE7463" d="M49.3,26.4c4.4-4.4,5-11.3,1.5-16.5c0.3-0.2,0.6-0.4,0.9-0.6c0.1,0.2,0.2,0.4,0.4,0.5
						c2.2,3.6,2.5,6.5,2.6,9.9c0,0.8,0.1,2,0.5,2c0.9,0.1,3.8-6.4-1.2-14c0.1-0.1,0.1-0.1,0.1-0.1c4.6,6.7,3.8,15.7-2,21.5
						C52.2,29.2,50.9,28,49.3,26.4"/>
					<path fill="#ED6D5E" d="M49.3,26.4c4.4-4.4,5-11.3,1.5-16.5c0.2-0.2,0.5-0.3,0.7-0.5c0.1,0.2,0.2,0.4,0.3,0.5
						c1.8,3,2.5,5.8,2.5,9.8c0,1.9-0.1,2.9,0.4,2.9c0.4,0.1,1.2-1,1.6-2.7c0.6-2.3,1.1-6.9-2.4-12.2c0.1-0.1,0.1-0.1,0.1-0.1
						c4.6,6.7,3.8,15.7-2,21.5C52.2,29.2,50.9,28,49.3,26.4"/>
					<path fill="#EC6658" d="M49.3,26.4c4.4-4.4,5-11.3,1.5-16.5c0.2-0.1,0.4-0.2,0.5-0.4c0.1,0.2,0.2,0.4,0.3,0.5
						c2.6,4.3,2.5,7.7,2.1,11.5c-0.4,4.2,2,1.3,2.6-1.5c0.7-2.8,0.8-7.2-2.4-12.2c0.1-0.1,0.1-0.1,0.1-0.1c4.6,6.7,3.8,15.7-2,21.5
						C52.2,29.2,50.9,28,49.3,26.4"/>
					<path fill="#EB5D51" d="M49.3,26.4c4.4-4.4,5-11.3,1.5-16.5c0.1-0.1,0.2-0.2,0.4-0.2c0.1,0.2,0.2,0.4,0.3,0.5
						c2.7,4.5,2.4,8.4,1.8,11.7c-0.3,1.7-0.7,3.4,0.7,2.7c0.2-0.1,1.7-1,2.5-4.4c0.6-2.3,1-7.1-2.4-12.4c0.1,0,0.1-0.1,0.1-0.1
						c4.6,6.7,3.8,15.7-2,21.5C52.2,29.2,50.9,28,49.3,26.4"/>
					<path fill="#EA5148" d="M49.3,26.4c4.4-4.4,5-11.3,1.5-16.5c0.1,0,0.1-0.1,0.2-0.1c0.1,0.1,0.2,0.3,0.3,0.5
						c3.5,5.8,1.7,10.8,0.9,13.2c-1.1,3.2,0.4,2.6,1.4,1.9c0.9-0.6,2.1-2.2,2.8-4.7c0.6-2.5,1.2-7.4-2.3-12.8c0.1,0,0.1-0.1,0.1-0.1
						c4.6,6.7,3.8,15.7-2,21.5C52.2,29.2,50.9,28,49.3,26.4"/>
					<path fill="#E73235" d="M50.3,27.4c6.8-1.6,8.8-11.8,3.7-19.6c4.7,6.7,3.8,15.7-1.9,21.4C52.2,29.2,51.4,28.5,50.3,27.4"/>
					<path fill="#E33134" d="M50.9,28c0-0.1,0.2-0.1,0.3-0.1c3.4-1.6,5.1-5.4,5.5-8.3c1-6.2-1.7-10.4-2.6-11.7
						c4.7,6.7,3.8,15.7-1.9,21.5C52.2,29.2,51.7,28.7,50.9,28"/>
					<path fill="#E03133" d="M51.2,28.3c0-0.1,0.2-0.1,0.3-0.2c4.7-3,8.2-11.7,2.6-20.3c4.6,6.7,3.8,15.7-1.9,21.5
						C52.2,29.2,51.8,28.9,51.2,28.3"/>
					<path fill="#DC3032" d="M51.4,28.5c0-0.1,0.2-0.2,0.3-0.2c5.2-3.7,7.4-12.9,2.3-20.5c4.6,6.7,3.8,15.7-1.9,21.5
						C52.2,29.2,51.9,29,51.4,28.5"/>
					<path fill="#D83031" d="M51.6,28.6c0-0.1,0.1-0.1,0.2-0.2c4.4-3.4,8-12,2.3-20.7c4.6,6.7,3.8,15.7-1.9,21.5
						C52.2,29.2,52,29,51.6,28.6"/>
					<path fill="#D52F31" d="M51.7,28.7c0-0.1,0.1-0.1,0.2-0.2c5.1-4.2,7.3-13.1,2.2-20.8c4.6,6.7,3.8,15.7-1.9,21.5
						C52.2,29.2,52,29.1,51.7,28.7"/>
					<path fill="#D12F30" d="M51.8,28.8c0-0.1,0.2-0.2,0.3-0.3c4.8-4.2,7.1-12.9,2-20.8c4.6,6.7,3.8,15.7-1.9,21.5
						C52.2,29.2,52,29.1,51.8,28.8"/>
					<path fill="#CE2E2F" d="M51.8,28.9c0-0.2,0.4-0.4,0.5-0.5c3.7-3.4,7.4-12,1.7-20.7c4.6,6.7,3.8,15.7-2,21.5
						C52.2,29.2,52.1,29.1,51.8,28.9"/>
					<path fill="#CA2E2E" d="M51.9,29c0-0.1,0.2-0.2,0.3-0.2c4.8-4.4,7.1-13.1,2-21c4.6,6.7,3.8,15.7-2,21.5
						C52.2,29.2,52.1,29.1,51.9,29"/>
					<path fill="#C72D2D" d="M52,29c0-0.2,0.4-0.4,0.5-0.5c3.7-3.6,7.3-12.1,1.6-20.8c4.6,6.7,3.8,15.7-2,21.5
						C52.2,29.2,52.1,29.2,52,29"/>
					<path fill="#C32D2C" d="M52,29.1c0-0.2,0.4-0.4,0.5-0.5c3.7-3.6,7.2-12.2,1.6-20.8c4.6,6.7,3.8,15.7-2,21.5
						C52.2,29.2,52.1,29.2,52,29.1"/>
					<path fill="#BF2C2B" d="M52.1,29.1c5.9-5.8,6.7-14.4,2.1-21.4c4.6,6.7,3.8,15.7-2,21.5C52.2,29.2,52.1,29.2,52.1,29.1"/>
					<path fill="#BC2C2A" d="M52.1,29.1c0-0.2,0.3-0.3,0.4-0.4c3.7-3.7,7.2-12.4,1.7-21c4.6,6.7,3.8,15.7-2,21.5
						C52.2,29.2,52.2,29.2,52.1,29.1"/>
					<path fill="#B82B29" d="M52.1,29.2c0-0.2,0.4-0.4,0.5-0.5c3.6-3.7,7.1-12.3,1.5-20.9C58.7,14.5,57.9,23.5,52.1,29.2
						C52.2,29.2,52.2,29.2,52.1,29.2"/>
					<path fill="#B42A28" d="M52.1,29.2c0-0.2,0.4-0.4,0.5-0.5c3.1-3.2,7.5-11.7,1.5-20.9C58.7,14.5,57.9,23.5,52.1,29.2
						C52.2,29.2,52.2,29.2,52.1,29.2"/>
					<path fill="#B12A27" d="M52.1,29.2c0-0.2,0.4-0.4,0.5-0.5c3.1-3.2,7.5-11.7,1.5-20.9C58.7,14.5,57.9,23.5,52.1,29.2
						C52.2,29.2,52.2,29.2,52.1,29.2"/>
					<path fill="#AD2926" d="M52.1,29.2c0-0.2,0.4-0.4,0.5-0.5c3.1-3.2,7.4-11.8,1.5-20.9C58.7,14.5,57.9,23.5,52.1,29.2
						C52.2,29.2,52.2,29.2,52.1,29.2"/>
					<path fill="#AA2825" d="M52.2,29.2c0-0.2,0.4-0.4,0.5-0.5c3.1-3.2,7.4-11.8,1.5-20.9C58.7,14.5,57.9,23.5,52.2,29.2
						C52.2,29.2,52.2,29.2,52.2,29.2"/>
					<path fill="#A62724" d="M52.2,29.2c0-0.2,0.4-0.4,0.5-0.5c3.1-3.2,7.4-11.8,1.5-20.9C58.7,14.5,57.9,23.5,52.2,29.2
						C52.2,29.2,52.2,29.2,52.2,29.2"/>
					<path fill="#A22723" d="M52.2,29.2c0-0.2,0.4-0.4,0.5-0.5c3.6-3.8,6-10.7,3.2-17.8C58.4,17.1,57.1,24.3,52.2,29.2
						C52.2,29.2,52.2,29.2,52.2,29.2"/>
					<path fill="#9F2622" d="M52.2,29.2c0-0.2,0.4-0.4,0.5-0.5c0.9-1,5.6-6.3,4.1-14.5C57.8,19.5,56.2,25.2,52.2,29.2
						C52.2,29.2,52.2,29.2,52.2,29.2"/>
					<path fill="#9B2521" d="M52.2,29.2c0-0.2,0.4-0.4,0.5-0.5c1.3-1.4,4.4-5.3,4.4-11.7C57.2,21.4,55.5,25.9,52.2,29.2
						C52.2,29.2,52.2,29.2,52.2,29.2"/>
					<path fill="#972420" d="M52.2,29.2c0-0.2,0.4-0.4,0.5-0.5c0.8-0.9,3.6-4.1,4.3-9.2C56.5,23.1,54.9,26.5,52.2,29.2
						C52.2,29.2,52.2,29.2,52.2,29.2"/>
					<path fill="#94231E" d="M52.2,29.2c0-0.2,0.4-0.4,0.5-0.5c0.8-0.8,2.6-3,3.7-6.6C55.6,24.7,54.2,27.2,52.2,29.2
						C52.2,29.2,52.2,29.2,52.2,29.2"/>
					<path fill="#90231D" d="M52.2,29.2c0-0.1,0.2-0.2,0.3-0.3c0.6-0.6,1.8-2,2.8-4C54.5,26.5,53.5,28,52.2,29.2
						C52.2,29.2,52.2,29.2,52.2,29.2"/>
				</g>
			</g>
			<g enable-background="new    ">
				<defs>
					<path id="SVGID_13_" enable-background="new    " d="M50.7,9.7C52.5,8.5,54,7.5,54,7.5l0.2,0.3c0,0-1.5,1-3.3,2.2
						C50.8,9.9,50.7,9.7,50.7,9.7z"/>
				</defs>
				<clipPath id="SVGID_14_">
					<use xlink:href="#SVGID_13_"  overflow="visible"/>
				</clipPath>
				<g clip-path="url(#SVGID_14_)" enable-background="new    ">
					<path fill="#EA5148" d="M50.8,9.9l-0.1-0.2c0.1,0,0.1-0.1,0.2-0.1L51,9.8C50.9,9.9,50.9,9.9,50.8,9.9"/>
					<path fill="#EB5D51" d="M51,9.8l-0.1-0.2c0.1,0,0.1-0.1,0.2-0.1l0.1,0.2C51.1,9.7,51.1,9.8,51,9.8"/>
					<path fill="#EC6658" d="M51.2,9.7L51,9.5c0.1,0,0.1-0.1,0.2-0.1l0.1,0.2C51.3,9.6,51.2,9.7,51.2,9.7"/>
					<path fill="#ED6D5E" d="M51.4,9.6l-0.1-0.2c0.1,0,0.1-0.1,0.2-0.1l0.1,0.2C51.5,9.5,51.4,9.5,51.4,9.6"/>
					<path fill="#EE7463" d="M51.5,9.5l-0.1-0.2c0.1,0,0.1-0.1,0.2-0.1l0.1,0.2C51.6,9.4,51.6,9.4,51.5,9.5"/>
					<path fill="#EF7968" d="M51.7,9.4l-0.1-0.2c0.1,0,0.1-0.1,0.2-0.1l0.1,0.2C51.8,9.3,51.7,9.3,51.7,9.4"/>
					<path fill="#EF7F6D" d="M51.8,9.3L51.7,9c0,0,0.1-0.1,0.1-0.1L52,9.2C51.9,9.2,51.9,9.2,51.8,9.3"/>
					<path fill="#F08371" d="M52,9.2l-0.1-0.2c0,0,0.1-0.1,0.1-0.1l0.1,0.2C52.1,9.1,52,9.1,52,9.2"/>
					<path fill="#F18875" d="M52.1,9.1L52,8.9c0,0,0.1-0.1,0.1-0.1L52.2,9C52.2,9,52.2,9,52.1,9.1"/>
					<path fill="#F18C79" d="M52.2,9l-0.1-0.2c0,0,0.1-0.1,0.1-0.1l0.1,0.2C52.3,8.9,52.3,9,52.2,9"/>
					<path fill="#F28F7D" d="M52.4,8.9l-0.1-0.2c0,0,0.1-0.1,0.1-0.1l0.1,0.2C52.4,8.9,52.4,8.9,52.4,8.9"/>
					<path fill="#F29380" d="M52.5,8.8l-0.1-0.2c0,0,0.1,0,0.1-0.1l0.2,0.2C52.6,8.8,52.5,8.8,52.5,8.8"/>
					<path fill="#F39784" d="M52.6,8.8l-0.2-0.2c0,0,0.1,0,0.1-0.1l0.2,0.2C52.7,8.7,52.6,8.7,52.6,8.8"/>
					<path fill="#F39A87" d="M52.7,8.7l-0.2-0.2c0,0,0.1,0,0.1-0.1l0.2,0.2C52.8,8.7,52.7,8.7,52.7,8.7"/>
					<path fill="#F49D8B" d="M52.8,8.6l-0.2-0.2c0,0,0.1,0,0.1-0.1L52.8,8.6C52.9,8.6,52.8,8.6,52.8,8.6"/>
					<path fill="#F4A08E" d="M52.9,8.6l-0.2-0.2c0,0,0.1,0,0.1-0.1L52.9,8.6C53,8.5,52.9,8.5,52.9,8.6"/>
					<path fill="#F4A391" d="M53,8.5l-0.2-0.2c0,0,0.1,0,0.1-0.1L53,8.5C53.1,8.5,53,8.5,53,8.5"/>
					<path fill="#F5A694" d="M53.1,8.4l-0.2-0.2c0,0,0.1,0,0.1-0.1L53.1,8.4C53.1,8.4,53.1,8.4,53.1,8.4"/>
					<path fill="#F5A997" d="M53.2,8.4L53,8.1c0,0,0.1,0,0.1-0.1L53.2,8.4C53.2,8.3,53.2,8.4,53.2,8.4"/>
					<path fill="#F5AC9A" d="M53.3,8.3l-0.2-0.2c0,0,0.1,0,0.1-0.1L53.3,8.3C53.3,8.3,53.3,8.3,53.3,8.3"/>
					<path fill="#F6AE9D" d="M53.4,8.3L53.2,8c0,0,0.1-0.1,0.1-0.1l0.2,0.2C53.4,8.2,53.4,8.2,53.4,8.3"/>
					<path fill="#F6B1A0" d="M53.5,8.2l-0.2-0.2c0.1,0,0.1-0.1,0.2-0.1l0.2,0.3C53.6,8.1,53.6,8.1,53.5,8.2"/>
					<path fill="#F6AE9D" d="M53.7,8.1l-0.2-0.3c0,0,0,0,0.1,0L53.7,8.1C53.7,8,53.7,8,53.7,8.1"/>
					<path fill="#F5AC9A" d="M53.8,8l-0.2-0.3c0,0,0,0,0,0L53.8,8C53.8,8,53.8,8,53.8,8"/>
					<path fill="#F5A997" d="M53.8,8l-0.2-0.3c0,0,0,0,0,0L53.8,8C53.8,8,53.8,8,53.8,8"/>
					<path fill="#F5A694" d="M53.8,8l-0.2-0.3c0,0,0,0,0,0L53.8,8C53.8,7.9,53.8,8,53.8,8"/>
					<path fill="#F4A391" d="M53.8,7.9l-0.2-0.3c0,0,0,0,0,0L53.8,7.9C53.9,7.9,53.9,7.9,53.8,7.9"/>
					<path fill="#F4A08E" d="M53.9,7.9l-0.2-0.3c0,0,0,0,0,0L53.9,7.9C53.9,7.9,53.9,7.9,53.9,7.9"/>
					<path fill="#F49D8B" d="M53.9,7.9l-0.2-0.3c0,0,0,0,0,0L53.9,7.9C53.9,7.9,53.9,7.9,53.9,7.9"/>
					<polyline fill="#F39A87" points="53.9,7.9 53.7,7.6 53.8,7.6 53.9,7.9 53.9,7.9 					"/>
					<polyline fill="#F39784" points="53.9,7.9 53.8,7.6 53.8,7.6 53.9,7.9 53.9,7.9 					"/>
					<polyline fill="#F29380" points="53.9,7.9 53.8,7.6 53.8,7.6 53.9,7.9 53.9,7.9 					"/>
					<polyline fill="#F28F7D" points="53.9,7.9 53.8,7.6 53.8,7.6 54,7.9 53.9,7.9 					"/>
					<polyline fill="#F18C79" points="54,7.9 53.8,7.6 53.8,7.6 54,7.9 54,7.9 					"/>
					<polyline fill="#F18875" points="54,7.9 53.8,7.6 53.8,7.6 54,7.9 54,7.9 					"/>
					<polyline fill="#F08371" points="54,7.9 53.8,7.6 53.8,7.6 54,7.8 54,7.9 					"/>
					<polyline fill="#EF7F6D" points="54,7.8 53.8,7.6 53.8,7.6 54,7.8 54,7.8 					"/>
					<polyline fill="#EF7968" points="54,7.8 53.8,7.6 53.9,7.6 54,7.8 54,7.8 					"/>
					<polyline fill="#EE7463" points="54,7.8 53.9,7.6 53.9,7.6 54,7.8 54,7.8 					"/>
					<polyline fill="#ED6D5E" points="54,7.8 53.9,7.6 53.9,7.6 54,7.8 54,7.8 					"/>
					<polyline fill="#EC6658" points="54,7.8 53.9,7.6 53.9,7.6 54.1,7.8 54,7.8 					"/>
					<polyline fill="#EB5D51" points="54.1,7.8 53.9,7.6 53.9,7.5 54.1,7.8 54.1,7.8 					"/>
					<polyline fill="#EA5148" points="54.1,7.8 53.9,7.5 53.9,7.5 54.1,7.8 54.1,7.8 					"/>
					<polyline fill="#E73235" points="54.1,7.8 53.9,7.5 53.9,7.5 54.1,7.8 54.1,7.8 					"/>
					<polyline fill="#E33134" points="54.1,7.8 53.9,7.5 53.9,7.5 54.1,7.8 54.1,7.8 					"/>
					<polyline fill="#E03133" points="54.1,7.8 53.9,7.5 53.9,7.5 54.1,7.8 54.1,7.8 					"/>
					<polyline fill="#DC3032" points="54.1,7.8 53.9,7.5 54,7.5 54.1,7.8 54.1,7.8 					"/>
					<polyline fill="#D83031" points="54.1,7.8 54,7.5 54,7.5 54.1,7.8 54.1,7.8 					"/>
					<polyline fill="#D52F31" points="54.1,7.8 54,7.5 54,7.5 54.1,7.8 54.1,7.8 					"/>
					<polyline fill="#D12F30" points="54.1,7.8 54,7.5 54,7.5 54.1,7.8 54.1,7.8 					"/>
					<polyline fill="#CE2E2F" points="54.1,7.8 54,7.5 54,7.5 54.1,7.8 54.1,7.8 					"/>
					<polyline fill="#CA2E2E" points="54.1,7.8 54,7.5 54,7.5 54.1,7.7 54.1,7.8 					"/>
					<polyline fill="#C72D2D" points="54.1,7.7 54,7.5 54,7.5 54.2,7.7 54.1,7.7 					"/>
					<polyline fill="#C32D2C" points="54.2,7.7 54,7.5 54,7.5 54.2,7.7 54.2,7.7 					"/>
					<polyline fill="#BF2C2B" points="54.2,7.7 54,7.5 54,7.5 54.2,7.7 54.2,7.7 					"/>
					<polyline fill="#BC2C2A" points="54.2,7.7 54,7.5 54,7.5 54.2,7.7 54.2,7.7 					"/>
					<polyline fill="#B82B29" points="54.2,7.7 54,7.5 54,7.5 54.2,7.7 54.2,7.7 					"/>
					<polyline fill="#B42A28" points="54.2,7.7 54,7.5 54,7.5 54.2,7.7 54.2,7.7 					"/>
					<polyline fill="#B12A27" points="54.2,7.7 54,7.5 54,7.5 54.2,7.7 54.2,7.7 					"/>
					<polyline fill="#AD2926" points="54.2,7.7 54,7.5 54,7.5 54.2,7.7 54.2,7.7 					"/>
					<polyline fill="#AA2825" points="54.2,7.7 54,7.5 54,7.5 54.2,7.7 54.2,7.7 					"/>
					<polyline fill="#A62724" points="54.2,7.7 54,7.5 54,7.5 54.2,7.7 54.2,7.7 					"/>
				</g>
			</g>
			<g enable-background="new    ">
				<defs>
					<path id="SVGID_15_" enable-background="new    " d="M6.3,10C4.4,8.7,2.9,7.7,2.9,7.7l0.2-0.3c0,0,1.5,1,3.3,2.2
						C6.5,9.7,6.3,10,6.3,10z"/>
				</defs>
				<clipPath id="SVGID_16_">
					<use xlink:href="#SVGID_15_"  overflow="visible"/>
				</clipPath>
				<g clip-path="url(#SVGID_16_)" enable-background="new    ">
					<path fill="#EA5148" d="M6.5,9.7L6.3,10c0,0,0,0-0.1,0L6.5,9.7C6.4,9.6,6.4,9.7,6.5,9.7"/>
					<path fill="#E73235" d="M6.4,9.6L6.2,10C6,9.8,5.8,9.7,5.6,9.5l0.2-0.3C6,9.4,6.2,9.5,6.4,9.6"/>
					<path fill="#E33134" d="M5.8,9.2L5.6,9.5C5.4,9.4,5.3,9.3,5.1,9.2l0.2-0.3C5.5,9,5.7,9.1,5.8,9.2"/>
					<path fill="#E03133" d="M5.3,8.9L5.1,9.2C5,9.2,4.9,9.1,4.8,9L5,8.7C5.1,8.8,5.2,8.9,5.3,8.9"/>
					<path fill="#DC3032" d="M5,8.7L4.8,9C4.7,8.9,4.6,8.8,4.5,8.8l0.2-0.3C4.8,8.6,4.9,8.6,5,8.7"/>
					<path fill="#D83031" d="M4.7,8.5L4.5,8.8C4.4,8.7,4.3,8.7,4.2,8.6l0.2-0.3C4.5,8.4,4.6,8.4,4.7,8.5"/>
					<path fill="#D52F31" d="M4.4,8.3L4.2,8.6C4.1,8.5,4.1,8.5,4,8.5l0.2-0.3C4.3,8.2,4.3,8.3,4.4,8.3"/>
					<path fill="#D12F30" d="M4.2,8.2L4,8.5c-0.1,0-0.1-0.1-0.2-0.1L4,8.1C4.1,8.1,4.1,8.1,4.2,8.2"/>
					<path fill="#CE2E2F" d="M4,8.1L3.8,8.3c-0.1,0-0.1-0.1-0.2-0.1l0.2-0.3C3.9,8,3.9,8,4,8.1"/>
					<path fill="#CA2E2E" d="M3.8,7.9L3.7,8.2c0,0-0.1-0.1-0.1-0.1l0.2-0.3C3.7,7.9,3.8,7.9,3.8,7.9"/>
					<path fill="#C72D2D" d="M3.7,7.9L3.5,8.1c0,0-0.1-0.1-0.1-0.1l0.2-0.3C3.6,7.8,3.7,7.8,3.7,7.9"/>
					<path fill="#C32D2C" d="M3.6,7.8L3.4,8.1c0,0-0.1,0-0.1-0.1L3.6,7.8C3.5,7.7,3.6,7.8,3.6,7.8"/>
					<path fill="#BF2C2B" d="M3.5,7.7L3.3,8c0,0,0,0-0.1,0L3.5,7.7C3.4,7.7,3.5,7.7,3.5,7.7"/>
					<path fill="#BC2C2A" d="M3.4,7.7L3.2,7.9c0,0,0,0-0.1,0L3.4,7.7C3.4,7.6,3.4,7.7,3.4,7.7"/>
					<path fill="#B82B29" d="M3.4,7.6L3.2,7.9c0,0,0,0,0,0L3.4,7.6C3.3,7.6,3.3,7.6,3.4,7.6"/>
					<path fill="#B42A28" d="M3.3,7.6L3.1,7.9c0,0,0,0,0,0L3.3,7.6C3.3,7.6,3.3,7.6,3.3,7.6"/>
					<path fill="#B12A27" d="M3.3,7.6L3.1,7.8c0,0,0,0,0,0L3.3,7.6C3.3,7.6,3.3,7.6,3.3,7.6"/>
					<path fill="#AD2926" d="M3.2,7.6L3.1,7.8c0,0,0,0,0,0L3.2,7.6C3.2,7.5,3.2,7.6,3.2,7.6"/>
					<path fill="#AA2825" d="M3.2,7.5L3,7.8c0,0,0,0,0,0L3.2,7.5C3.2,7.5,3.2,7.5,3.2,7.5"/>
					<path fill="#A62724" d="M3.2,7.5L3,7.8c0,0,0,0,0,0L3.2,7.5C3.2,7.5,3.2,7.5,3.2,7.5"/>
					<polyline fill="#A22723" points="3.2,7.5 3,7.8 3,7.8 3.2,7.5 3.2,7.5 					"/>
					<polyline fill="#9F2622" points="3.2,7.5 3,7.8 3,7.8 3.2,7.5 3.2,7.5 					"/>
					<polyline fill="#9B2521" points="3.2,7.5 3,7.8 3,7.8 3.2,7.5 3.2,7.5 					"/>
					<polyline fill="#972420" points="3.2,7.5 3,7.8 3,7.8 3.1,7.5 3.2,7.5 					"/>
					<polyline fill="#94231E" points="3.1,7.5 3,7.8 3,7.7 3.1,7.5 3.1,7.5 					"/>
					<path fill="#90231D" d="M3.1,7.5L3,7.7c0,0,0,0,0,0L3.1,7.5C3.1,7.5,3.1,7.5,3.1,7.5"/>
				</g>
			</g>
			<g enable-background="new    ">
				<defs>
					<path id="SVGID_17_" enable-background="new    " d="M24.3,6.1c1.2-1.9,2.1-3.4,2.1-3.4l2.1,1.4c0,0,0,2.1,0,4.7
						C28.6,8.8,24.3,6.1,24.3,6.1z"/>
				</defs>
				<clipPath id="SVGID_18_">
					<use xlink:href="#SVGID_17_"  overflow="visible"/>
				</clipPath>
				<g clip-path="url(#SVGID_18_)" enable-background="new    ">
					<path fill="#EA5148" d="M28.6,8.8l-4.3-2.7c0,0,0,0,0,0L28.6,8.8C28.6,8.8,28.6,8.8,28.6,8.8"/>
					<path fill="#EB5D51" d="M28.6,8.8L24.3,6c0,0,0,0,0,0L28.6,8.8C28.6,8.7,28.6,8.8,28.6,8.8"/>
					<path fill="#EC6658" d="M28.6,8.7L24.3,6c0,0,0,0,0,0L28.6,8.7C28.6,8.7,28.6,8.7,28.6,8.7"/>
					<path fill="#ED6D5E" d="M28.6,8.7L24.3,6c0,0,0,0,0,0L28.6,8.7C28.6,8.7,28.6,8.7,28.6,8.7"/>
					<path fill="#EE7463" d="M28.6,8.7L24.3,6c0,0,0,0,0,0L28.6,8.7C28.6,8.6,28.6,8.7,28.6,8.7"/>
					<path fill="#EF7968" d="M28.6,8.6l-4.2-2.7c0,0,0,0,0,0L28.6,8.6C28.6,8.6,28.6,8.6,28.6,8.6"/>
					<path fill="#EF7F6D" d="M28.6,8.6l-4.2-2.7c0,0,0,0,0,0L28.6,8.6C28.6,8.6,28.6,8.6,28.6,8.6"/>
					<path fill="#F08371" d="M28.6,8.6l-4.2-2.7c0,0,0,0,0,0L28.6,8.6C28.6,8.5,28.6,8.6,28.6,8.6"/>
					<path fill="#F18875" d="M28.6,8.5l-4.2-2.7c0,0,0,0,0,0L28.6,8.5C28.6,8.5,28.6,8.5,28.6,8.5"/>
					<path fill="#F18C79" d="M28.6,8.5l-4.1-2.7c0,0,0,0,0,0L28.6,8.5C28.6,8.5,28.6,8.5,28.6,8.5"/>
					<path fill="#F28F7D" d="M28.6,8.5l-4.1-2.6c0,0,0,0,0,0L28.6,8.5C28.6,8.4,28.6,8.5,28.6,8.5"/>
					<path fill="#F29380" d="M28.6,8.4l-4.1-2.6c0-0.1,0.1-0.1,0.1-0.2l4,2.6C28.6,8.3,28.6,8.4,28.6,8.4"/>
					<path fill="#F39784" d="M28.6,8.2l-4-2.6c0,0,0.1-0.1,0.1-0.1L28.6,8C28.6,8.1,28.6,8.1,28.6,8.2"/>
					<path fill="#F29380" d="M28.6,8l-3.9-2.5c0,0,0,0,0-0.1L28.6,8C28.6,7.9,28.6,8,28.6,8"/>
					<path fill="#F28F7D" d="M28.6,7.9l-3.9-2.5c0,0,0,0,0-0.1L28.6,7.9C28.6,7.9,28.6,7.9,28.6,7.9"/>
					<path fill="#F18C79" d="M28.6,7.8l-3.9-2.5c0,0,0,0,0-0.1L28.6,7.8C28.6,7.8,28.6,7.8,28.6,7.8"/>
					<path fill="#F18875" d="M28.6,7.8l-3.8-2.4c0,0,0,0,0-0.1L28.6,7.8C28.6,7.7,28.6,7.7,28.6,7.8"/>
					<path fill="#F08371" d="M28.6,7.7l-3.8-2.4c0,0,0,0,0-0.1L28.6,7.7C28.6,7.6,28.6,7.7,28.6,7.7"/>
					<path fill="#EF7F6D" d="M28.6,7.6l-3.8-2.4c0,0,0,0,0-0.1L28.6,7.6C28.6,7.6,28.6,7.6,28.6,7.6"/>
					<path fill="#EF7968" d="M28.6,7.5l-3.7-2.4c0,0,0,0,0-0.1L28.6,7.5C28.6,7.5,28.6,7.5,28.6,7.5"/>
					<path fill="#EE7463" d="M28.6,7.4l-3.7-2.3c0,0,0,0,0-0.1L28.6,7.4C28.6,7.4,28.6,7.4,28.6,7.4"/>
					<path fill="#ED6D5E" d="M28.6,7.4L24.9,5c0,0,0,0,0-0.1L28.6,7.4C28.6,7.3,28.6,7.3,28.6,7.4"/>
					<path fill="#EC6658" d="M28.6,7.3L25,5c0,0,0-0.1,0.1-0.1l3.5,2.3C28.6,7.2,28.6,7.2,28.6,7.3"/>
					<path fill="#EB5D51" d="M28.6,7.1L25,4.9c0,0,0-0.1,0.1-0.1L28.6,7C28.6,7,28.6,7.1,28.6,7.1"/>
					<path fill="#EA5148" d="M28.6,7l-3.5-2.2c0-0.1,0.1-0.1,0.1-0.1l3.4,2.2C28.6,6.9,28.6,6.9,28.6,7"/>
					<path fill="#E73235" d="M28.6,6.8l-3.4-2.2c0-0.1,0.1-0.1,0.1-0.2l3.2,2.1C28.6,6.6,28.6,6.7,28.6,6.8"/>
					<path fill="#E33134" d="M28.6,6.5l-3.2-2.1c0.1-0.1,0.2-0.2,0.2-0.3l3,1.9C28.6,6.2,28.6,6.3,28.6,6.5"/>
					<path fill="#E03133" d="M28.6,6l-3-1.9c0.1-0.2,0.2-0.3,0.3-0.5l2.7,1.7C28.6,5.6,28.6,5.8,28.6,6"/>
					<path fill="#DC3032" d="M28.6,5.4l-2.7-1.7c0.1-0.1,0.1-0.2,0.2-0.3L28.6,5C28.6,5.1,28.6,5.2,28.6,5.4"/>
					<path fill="#D83031" d="M28.6,5L26,3.3c0-0.1,0.1-0.1,0.1-0.2l2.5,1.6C28.6,4.8,28.6,4.9,28.6,5"/>
					<path fill="#D52F31" d="M28.6,4.8l-2.5-1.6c0,0,0-0.1,0.1-0.1l2.4,1.5C28.6,4.7,28.6,4.7,28.6,4.8"/>
					<path fill="#D12F30" d="M28.6,4.6l-2.4-1.5c0,0,0-0.1,0-0.1l2.3,1.5C28.6,4.5,28.6,4.6,28.6,4.6"/>
					<path fill="#CE2E2F" d="M28.6,4.5L26.2,3c0,0,0,0,0-0.1L28.6,4.5C28.6,4.4,28.6,4.5,28.6,4.5"/>
					<path fill="#CA2E2E" d="M28.6,4.4l-2.3-1.5c0,0,0,0,0,0L28.6,4.4C28.6,4.4,28.6,4.4,28.6,4.4"/>
					<path fill="#C72D2D" d="M28.6,4.4l-2.3-1.5c0,0,0,0,0,0L28.6,4.4C28.6,4.3,28.6,4.3,28.6,4.4"/>
					<path fill="#C32D2C" d="M28.6,4.3l-2.2-1.4c0,0,0,0,0,0L28.6,4.3C28.6,4.3,28.6,4.3,28.6,4.3"/>
					<path fill="#BF2C2B" d="M28.6,4.2l-2.2-1.4c0,0,0,0,0,0L28.6,4.2C28.6,4.2,28.6,4.2,28.6,4.2"/>
					<path fill="#BC2C2A" d="M28.6,4.2l-2.2-1.4c0,0,0,0,0,0L28.6,4.2C28.6,4.2,28.6,4.2,28.6,4.2"/>
					<path fill="#B82B29" d="M28.6,4.2l-2.2-1.4c0,0,0,0,0,0L28.6,4.2C28.6,4.1,28.6,4.2,28.6,4.2"/>
					<path fill="#B42A28" d="M28.6,4.1l-2.2-1.4c0,0,0,0,0,0L28.6,4.1C28.6,4.1,28.6,4.1,28.6,4.1"/>
					<path fill="#B12A27" d="M28.6,4.1l-2.2-1.4c0,0,0,0,0,0L28.6,4.1C28.6,4.1,28.6,4.1,28.6,4.1"/>
					<path fill="#AD2926" d="M28.6,4.1l-2.2-1.4c0,0,0,0,0,0L28.6,4.1C28.6,4.1,28.6,4.1,28.6,4.1"/>
					<polyline fill="#AA2825" points="28.6,4.1 26.4,2.7 26.4,2.7 28.6,4.1 28.6,4.1 					"/>
					<polyline fill="#A62724" points="28.6,4.1 26.4,2.7 26.4,2.7 28.6,4.1 28.6,4.1 					"/>
				</g>
			</g>
			<g enable-background="new    ">
				<defs>
					<path id="SVGID_19_" enable-background="new    " d="M28.6,8.8c0-2.6,0-4.7,0-4.7l2.1-1.4c0,0,1,1.5,2.2,3.4
						C32.9,6.1,28.6,8.8,28.6,8.8z"/>
				</defs>
				<clipPath id="SVGID_20_">
					<use xlink:href="#SVGID_19_"  overflow="visible"/>
				</clipPath>
				<g clip-path="url(#SVGID_20_)" enable-background="new    ">
					<path fill="#EA5148" d="M32.8,6.1l-4.3,2.7c0-0.8,0-1.5,0-2.2l3.3-2.1C32.2,5,32.5,5.5,32.8,6.1"/>
					<path fill="#E73235" d="M31.9,4.5l-3.3,2.1c0-0.3,0-0.5,0-0.8l3-1.9C31.6,4.1,31.7,4.3,31.9,4.5"/>
					<path fill="#E33134" d="M31.5,4l-3,1.9c0-0.1,0-0.3,0-0.4l2.8-1.8C31.4,3.8,31.4,3.9,31.5,4"/>
					<path fill="#E03133" d="M31.3,3.7l-2.8,1.8c0-0.1,0-0.2,0-0.3l2.6-1.7C31.2,3.5,31.3,3.6,31.3,3.7"/>
					<path fill="#DC3032" d="M31.2,3.5l-2.6,1.7c0-0.1,0-0.1,0-0.2l2.6-1.6C31.1,3.4,31.2,3.4,31.2,3.5"/>
					<path fill="#D83031" d="M31.1,3.3L28.6,5c0-0.1,0-0.1,0-0.2L31,3.2C31.1,3.3,31.1,3.3,31.1,3.3"/>
					<path fill="#D52F31" d="M31,3.2l-2.5,1.6c0,0,0-0.1,0-0.1L31,3.2C31,3.2,31,3.2,31,3.2"/>
					<path fill="#D12F30" d="M31,3.1l-2.4,1.5c0,0,0-0.1,0-0.1L31,3.1C30.9,3.1,31,3.1,31,3.1"/>
					<path fill="#CE2E2F" d="M30.9,3l-2.4,1.5c0,0,0-0.1,0-0.1L30.9,3C30.9,3,30.9,3,30.9,3"/>
					<path fill="#CA2E2E" d="M30.9,3l-2.3,1.5c0,0,0-0.1,0-0.1L30.9,3C30.9,2.9,30.9,3,30.9,3"/>
					<path fill="#C72D2D" d="M30.8,2.9l-2.3,1.5c0,0,0,0,0-0.1L30.8,2.9C30.8,2.9,30.8,2.9,30.8,2.9"/>
					<path fill="#C32D2C" d="M30.8,2.9l-2.3,1.4c0,0,0,0,0-0.1L30.8,2.9C30.8,2.9,30.8,2.9,30.8,2.9"/>
					<path fill="#BF2C2B" d="M30.8,2.8l-2.2,1.4c0,0,0,0,0,0L30.8,2.8C30.8,2.8,30.8,2.8,30.8,2.8"/>
					<path fill="#BC2C2A" d="M30.8,2.8l-2.2,1.4c0,0,0,0,0,0L30.8,2.8C30.8,2.8,30.8,2.8,30.8,2.8"/>
					<path fill="#B82B29" d="M30.8,2.8l-2.2,1.4c0,0,0,0,0,0L30.8,2.8C30.8,2.8,30.8,2.8,30.8,2.8"/>
					<path fill="#B42A28" d="M30.7,2.8l-2.2,1.4c0,0,0,0,0,0L30.7,2.8C30.7,2.8,30.7,2.8,30.7,2.8"/>
					<path fill="#B12A27" d="M30.7,2.8l-2.2,1.4c0,0,0,0,0,0L30.7,2.8C30.7,2.7,30.7,2.7,30.7,2.8"/>
					<path fill="#AD2926" d="M30.7,2.7l-2.2,1.4c0,0,0,0,0,0L30.7,2.7C30.7,2.7,30.7,2.7,30.7,2.7"/>
					<polyline fill="#AA2825" points="30.7,2.7 28.6,4.1 28.6,4.1 30.7,2.7 30.7,2.7 					"/>
					<polyline fill="#A62724" points="30.7,2.7 28.6,4.1 28.6,4.1 30.7,2.7 30.7,2.7 					"/>
					<polyline fill="#A22723" points="30.7,2.7 28.6,4.1 28.6,4.1 30.7,2.7 30.7,2.7 					"/>
					<polyline fill="#9F2622" points="30.7,2.7 28.6,4.1 28.6,4.1 30.7,2.7 30.7,2.7 					"/>
					<polyline fill="#9B2521" points="30.7,2.7 28.6,4.1 28.6,4.1 30.7,2.7 30.7,2.7 					"/>
					<polyline fill="#972420" points="30.7,2.7 28.6,4.1 28.6,4.1 30.7,2.7 30.7,2.7 					"/>
					<polyline fill="#94231E" points="30.7,2.7 28.6,4.1 28.6,4.1 30.7,2.7 30.7,2.7 					"/>
					<polyline fill="#90231D" points="30.7,2.7 28.6,4.1 28.6,4.1 30.7,2.7 30.7,2.7 					"/>
				</g>
			</g>
			<g enable-background="new    ">
				<defs>
					<path id="SVGID_21_" enable-background="new    " d="M6.5,9.7C4.6,8.5,3.1,7.5,3.1,7.5C6.4,2.6,11.8,0,17.3,0
						c3.1,0,6.3,0.9,9.2,2.7c0,0-1,1.5-2.1,3.4c-2.2-1.4-4.6-2-7-2C13.1,4,9,6,6.5,9.7z"/>
				</defs>
				<clipPath id="SVGID_22_">
					<use xlink:href="#SVGID_21_"  overflow="visible"/>
				</clipPath>
				<g clip-path="url(#SVGID_22_)" enable-background="new    ">
					<path fill="#F5A997" d="M6.5,9.7C4.6,8.5,3.1,7.5,3.1,7.5C6.4,2.6,11.8,0,17.3,0c3.1,0,6.3,0.9,9.2,2.7c0,0-1,1.5-2.1,3.4
						c-2.2-1.4-4.6-2-7-2C13.1,4,9,6,6.5,9.7"/>
					<path fill="#F5A997" d="M26.1,3.2c-0.1,0-0.2,0-0.3,0c0,0.1,0.1,0.2,0.1,0.2C25.6,4,25,5,24.3,6.1c-2.2-1.4-4.6-2-7-2
						C13.1,4,9,6,6.5,9.7C4.6,8.5,3.1,7.5,3.1,7.5C6.4,2.6,11.8,0,17.3,0c3.1,0,6.3,0.9,9.2,2.7C26.4,2.7,26.3,2.9,26.1,3.2"/>
					<path fill="#F5A694" d="M26.1,3.1c-0.4,0.1-0.7-0.3-1.1-0.4c0.1,0.2,0.1,0.2,0.8,0.8c-0.4,0.6-1,1.5-1.6,2.5
						c-2.2-1.4-4.6-2-7-2C13.1,4,9,6,6.5,9.7C4.6,8.5,3.1,7.5,3.1,7.5C6.4,2.6,11.8,0,17.3,0c3.1,0,6.3,0.9,9.2,2.7
						C26.4,2.7,26.3,2.8,26.1,3.1"/>
					<path fill="#F4A391" d="M26.2,3.1c-0.8,0.2-1.2-1.4-1.8-0.7c-0.1,0.1-0.1,0.1,1.5,1.3c-0.4,0.6-0.9,1.5-1.5,2.4
						c-2.2-1.4-4.6-2-7-2C13.1,4,9,6,6.5,9.7C4.6,8.5,3.1,7.5,3.1,7.5C6.4,2.6,11.8,0,17.3,0c3.1,0,6.3,0.9,9.2,2.7
						C26.4,2.7,26.3,2.8,26.2,3.1"/>
					<path fill="#F4A08E" d="M26.2,3c-0.1,0-0.3-0.1-0.4-0.2c-0.5-0.3-1.4-0.7-2.2-0.8c0.1,0.2,0.1,0.2,2.1,1.7
						c-0.4,0.6-0.9,1.4-1.5,2.3c-2.2-1.4-4.6-2-7-2C13.1,4,9,6,6.5,9.7C4.6,8.5,3.1,7.5,3.1,7.5C6.4,2.6,11.8,0,17.3,0
						c3.1,0,6.3,0.9,9.2,2.7C26.4,2.7,26.3,2.8,26.2,3"/>
					<path fill="#F49D8B" d="M26.2,3c-0.1,0-0.3-0.1-0.4-0.2c-1.6-0.9-2.7-1.1-2.9-1c0,0-0.1,0-0.1,0.1c0,0.1,0,0.1,1.8,1.3
						c0.5,0.3,0.6,0.4,1,0.7c-0.4,0.6-0.9,1.4-1.4,2.2c-2.2-1.4-4.6-2-7-2C13.1,4,9,6,6.5,9.7C4.6,8.5,3.1,7.5,3.1,7.5
						C6.4,2.6,11.8,0,17.3,0c3.1,0,6.3,0.9,9.2,2.7C26.4,2.7,26.3,2.8,26.2,3"/>
					<path fill="#F39A87" d="M26.2,3c0,0-0.1,0-0.1-0.1c-2-1.2-3.9-1.6-4-1.3c0,0.1,0.4,0.4,0.8,0.6c2,1.3,2,1.3,2.7,1.7
						c-0.4,0.6-0.8,1.3-1.3,2.1c-2.2-1.4-4.6-2-7-2C13.1,4,9,6,6.5,9.7C4.6,8.5,3.1,7.5,3.1,7.5C6.4,2.6,11.8,0,17.3,0
						c3.1,0,6.3,0.9,9.2,2.7C26.4,2.7,26.3,2.8,26.2,3"/>
					<path fill="#F39784" d="M26.2,3c-0.1,0-0.3-0.2-0.4-0.2c-2-1.2-4.2-1.6-4.4-1.4c0,0-0.1,0.1,0.4,0.4c1.2,0.8,2.5,1.4,3.7,2.3
						c-0.4,0.6-0.8,1.3-1.3,2c-2.2-1.4-4.6-2-7-2C13.1,4,9,6,6.5,9.7C4.6,8.5,3.1,7.5,3.1,7.5C6.4,2.6,11.8,0,17.3,0
						c3.1,0,6.3,0.9,9.2,2.7C26.4,2.7,26.4,2.8,26.2,3"/>
					<path fill="#F29380" d="M26.2,2.9c-0.1,0-0.3-0.2-0.4-0.2c-2.6-1.5-5-1.7-5.1-1.5c-0.1,0.2,0.3,0.4,1.3,0.9
						c1.8,0.9,2.9,1.7,3.3,2c-0.3,0.5-0.8,1.2-1.2,1.9c-2.2-1.4-4.6-2-7-2C13.1,4,9,6,6.5,9.7C4.6,8.5,3.1,7.5,3.1,7.5
						C6.4,2.6,11.8,0,17.3,0c3.1,0,6.3,0.9,9.2,2.7C26.4,2.7,26.4,2.8,26.2,2.9"/>
					<path fill="#F28F7D" d="M26.3,2.9c-0.1,0-0.3-0.2-0.4-0.2c-2.7-1.6-5.5-1.9-5.8-1.6c0,0-0.1,0.1-0.1,0.1c0,0.2,1,0.7,1.7,1
						c1.9,0.9,3.1,1.7,3.7,2.1c-0.3,0.5-0.7,1.1-1.1,1.8c-2.2-1.4-4.6-2-7-2C13.1,4,9,6,6.5,9.7C4.6,8.5,3.1,7.5,3.1,7.5
						C6.4,2.6,11.8,0,17.3,0c3.1,0,6.3,0.9,9.2,2.7C26.4,2.7,26.4,2.8,26.3,2.9"/>
					<path fill="#F18C79" d="M26.3,2.9c-0.1,0-0.3-0.2-0.4-0.2c-3.1-1.8-6.5-2.1-6.6-1.6c-0.1,0.2,0.8,0.6,1.6,1
						c1.6,0.7,2.9,1.3,4.3,2.4c-0.3,0.5-0.7,1-1,1.6c-2.2-1.4-4.6-2-7-2C13.1,4,9,6,6.5,9.7C4.6,8.5,3.1,7.5,3.1,7.5
						C6.4,2.6,11.8,0,17.3,0c3.1,0,6.3,0.9,9.2,2.7C26.4,2.7,26.4,2.8,26.3,2.9"/>
					<path fill="#F18875" d="M26.3,2.9c-0.1,0-0.3-0.2-0.4-0.2c-3.3-2-7-2.2-7.3-1.7c0,0,0,0.1,0,0.1c0.1,0.2,0.7,0.5,2,1
						c2,0.8,3.3,1.5,4.7,2.4c-0.3,0.5-0.6,1-1,1.5c-2.2-1.4-4.6-2-7-2C13.1,4,9,6,6.5,9.7C4.6,8.5,3.1,7.5,3.1,7.5
						C6.4,2.6,11.8,0,17.3,0c3.1,0,6.3,0.9,9.2,2.7C26.4,2.7,26.4,2.8,26.3,2.9"/>
					<path fill="#F08371" d="M26.3,2.9c-0.1,0-0.3-0.2-0.4-0.2c-3.8-2.3-8.1-2.2-8.1-1.6c0,0.3,0.7,0.5,1.7,0.9
						c1.8,0.6,3.6,1.3,5.7,2.8c-0.3,0.4-0.6,0.9-0.9,1.4c-2.2-1.4-4.6-2-7-2C13.1,4,9,6,6.5,9.7C4.6,8.5,3.1,7.5,3.1,7.5
						C6.4,2.6,11.8,0,17.3,0c3.1,0,6.3,0.9,9.2,2.7C26.4,2.7,26.4,2.8,26.3,2.9"/>
					<path fill="#EF7F6D" d="M26.3,2.9c-0.1,0-0.3-0.2-0.4-0.2c-4-2.4-8.5-2.3-8.9-1.6c0,0.1,0,0.2,0.2,0.3c1.2,0.7,2.6,0.9,3.9,1.4
						c1.8,0.7,2.9,1.4,3.9,2c-0.2,0.4-0.5,0.8-0.8,1.2c-2.2-1.4-4.6-2-7-2C13.1,4,9,6,6.5,9.7C4.6,8.5,3.1,7.5,3.1,7.5
						C6.4,2.6,11.8,0,17.3,0c3.1,0,6.3,0.9,9.2,2.7C26.4,2.7,26.4,2.8,26.3,2.9"/>
					<path fill="#EF7968" d="M26.3,2.9c-0.1,0-0.3-0.2-0.4-0.2c-0.8-0.5-3-1.7-5.9-2c-2.2-0.3-4.5,0.2-3.7,0.8
						c0.2,0.2,0.6,0.3,0.9,0.4C21.3,3,22.5,3.3,25,5c-0.2,0.3-0.4,0.7-0.7,1.1c-2.2-1.4-4.6-2-7-2C13.1,4,9,6,6.5,9.7
						C4.6,8.5,3.1,7.5,3.1,7.5C6.4,2.6,11.8,0,17.3,0c3.1,0,6.3,0.9,9.2,2.7C26.4,2.7,26.4,2.8,26.3,2.9"/>
					<path fill="#EE7463" d="M26.3,2.8c-0.1,0-0.3-0.2-0.4-0.2c-0.7-0.4-3.2-1.8-6.3-2.1c-3-0.3-5,0.6-4.2,1.1
						c0.3,0.2,1.2,0.4,1.7,0.5c3.4,0.7,5.4,1.5,7.7,2.9c-0.2,0.3-0.4,0.6-0.6,0.9c-2.2-1.4-4.6-2-7-2C13.1,4,9,6,6.5,9.7
						C4.6,8.5,3.1,7.5,3.1,7.5C6.4,2.6,11.8,0,17.3,0c3.1,0,6.3,0.9,9.2,2.7C26.4,2.7,26.4,2.7,26.3,2.8"/>
					<path fill="#ED6D5E" d="M26.3,2.8c-0.1,0-0.3-0.2-0.4-0.2c-1.9-1.2-4.5-2-6.7-2.1c-3.9-0.2-5.5,1-4.8,1.5
						C14.7,2.1,15,2.3,17,2.6c4.4,0.6,6.8,2.1,7.8,2.8c-0.2,0.2-0.3,0.5-0.5,0.8c-2.2-1.4-4.6-2-7-2C13.1,4,9,6,6.5,9.7
						C4.6,8.5,3.1,7.5,3.1,7.5C6.4,2.6,11.8,0,17.3,0c3.1,0,6.3,0.9,9.2,2.7C26.4,2.7,26.4,2.7,26.3,2.8"/>
					<path fill="#EC6658" d="M26.3,2.8c-0.1,0-0.3-0.2-0.4-0.2c-1.7-1-4.5-2.1-7.5-2.2c-3.7-0.1-5.8,1.3-5.1,2
						c0.2,0.1,0.4,0.3,2.2,0.4c3.4,0.2,6.1,0.7,9,2.7c-0.1,0.2-0.2,0.4-0.4,0.6c-2.2-1.4-4.6-2-7-2C13.1,4,9,6,6.5,9.7
						C4.6,8.5,3.1,7.5,3.1,7.5C6.4,2.6,11.8,0,17.3,0c3.1,0,6.3,0.9,9.2,2.7C26.4,2.7,26.4,2.7,26.3,2.8"/>
					<path fill="#EB5D51" d="M26.3,2.8c-0.1,0-0.3-0.2-0.4-0.2c-1.9-1.1-5-2.3-8.2-2.2c-4.4,0.2-6.3,2-5.5,2.7
						c0.3,0.3,1.2,0.3,2.1,0.2c3.2-0.1,6.4,0,10.2,2.4c-0.1,0.1-0.2,0.3-0.2,0.4c-2.2-1.4-4.6-2-7-2C13.1,4,9,6,6.5,9.7
						C4.6,8.5,3.1,7.5,3.1,7.5C6.4,2.6,11.8,0,17.3,0c3.1,0,6.3,0.9,9.2,2.7C26.4,2.7,26.4,2.7,26.3,2.8"/>
					<path fill="#EA5148" d="M26.3,2.8c-0.1,0-0.3-0.2-0.4-0.2c-2.1-1.3-5.7-2.6-9.4-2.2c-4.9,0.5-6.5,3.2-5.6,3.8
						c0.3,0.2,1.3,0,2.4-0.1c2.7-0.5,6.8-0.8,11.1,1.9c0,0.1-0.1,0.1-0.1,0.2c-2.2-1.4-4.6-2-7-2C13.1,4,9,6,6.5,9.7
						C4.6,8.5,3.1,7.5,3.1,7.5C6.4,2.6,11.8,0,17.3,0c3.1,0,6.3,0.9,9.2,2.7C26.4,2.7,26.4,2.7,26.3,2.8"/>
					<path fill="#E73235" d="M26.4,2.8c-6.3-3.9-11.8-2.1-12.4-1.9c-0.9,0.3-2.6,0.9-3.9,2.3C9.3,4.1,9,5,8.6,6.1
						C8.4,6.6,8.4,6.6,6.4,9.6C4.6,8.4,3.1,7.5,3.1,7.5C6.4,2.6,11.8,0,17.3,0C20.4,0,23.6,0.9,26.4,2.8C26.4,2.7,26.4,2.7,26.4,2.8
						"/>
					<path fill="#E33134" d="M26.4,2.8c-0.1,0-0.3-0.2-0.4-0.2c-3.6-2.2-8.4-2.9-12.2-1.7c-4.5,1.4-5.7,3.7-8,8.4
						c-1.5-1-2.7-1.7-2.7-1.7C6.4,2.6,11.8,0,17.3,0C20.4,0,23.6,0.9,26.4,2.8C26.4,2.7,26.4,2.7,26.4,2.8"/>
					<path fill="#E03133" d="M26.4,2.8c-0.1,0-0.3-0.2-0.4-0.2c-3.6-2.2-8.4-2.9-12.2-1.8c-4.6,1.3-6.6,4-8.5,8.1
						C4,8.1,3.1,7.5,3.1,7.5C6.4,2.6,11.8,0,17.3,0C20.4,0,23.6,0.9,26.4,2.8C26.4,2.7,26.4,2.7,26.4,2.8"/>
					<path fill="#DC3032" d="M26.4,2.7c-0.1,0-0.3-0.2-0.4-0.2c-3.6-2.2-8.3-2.9-12.2-1.8C8.7,2.1,6.5,5.4,4.9,8.7
						C3.9,8,3.1,7.5,3.1,7.5C6.4,2.6,11.8,0,17.3,0C20.4,0,23.6,0.9,26.4,2.7C26.4,2.7,26.4,2.7,26.4,2.7"/>
					<path fill="#D83031" d="M26.4,2.7c-0.1,0-0.3-0.2-0.4-0.2c-3.6-2.2-8.2-2.9-12.1-1.9c-5.6,1.5-8,5.2-9.3,7.8
						c-0.9-0.6-1.5-1-1.5-1C6.4,2.6,11.8,0,17.3,0C20.4,0,23.6,0.9,26.4,2.7C26.4,2.7,26.4,2.7,26.4,2.7"/>
					<path fill="#D52F31" d="M26.4,2.7c-0.1,0-0.3-0.2-0.4-0.2c-3.6-2.2-8.2-2.9-12.2-1.9C9.6,1.7,6.4,4.3,4.4,8.3
						C3.6,7.8,3.1,7.5,3.1,7.5C6.4,2.6,11.8,0,17.3,0C20.4,0,23.6,0.9,26.4,2.7C26.4,2.7,26.4,2.7,26.4,2.7"/>
					<path fill="#D12F30" d="M26.4,2.7c-0.1,0-0.3-0.2-0.4-0.2c-1.7-1.1-6.4-3.3-12.3-1.9c-4.2,1-7.5,3.6-9.6,7.6
						c-0.6-0.4-1-0.7-1-0.7C6.4,2.6,11.8,0,17.3,0C20.4,0,23.6,0.9,26.4,2.7C26.4,2.7,26.4,2.7,26.4,2.7"/>
					<path fill="#CE2E2F" d="M26.4,2.7c-0.1,0-0.3-0.2-0.4-0.2c-3.6-2.2-8.1-2.9-12.2-1.9C7.4,2,4.8,6.6,4,8
						C3.4,7.7,3.1,7.5,3.1,7.5C6.4,2.6,11.8,0,17.3,0C20.4,0,23.6,0.9,26.4,2.7C26.4,2.7,26.4,2.7,26.4,2.7"/>
					<path fill="#CA2E2E" d="M26.4,2.7c-0.1,0-0.3-0.2-0.4-0.2c-6.9-4.2-17.4-3-22.2,5.4C3.4,7.6,3.1,7.5,3.1,7.5
						C6.4,2.6,11.8,0,17.3,0C20.4,0,23.6,0.9,26.4,2.7C26.4,2.7,26.4,2.7,26.4,2.7"/>
					<path fill="#C72D2D" d="M26.4,2.7c-0.1,0-0.1-0.1-0.2-0.1C19.4-1.7,9.1-0.9,3.7,7.8C3.3,7.6,3.1,7.5,3.1,7.5
						C6.4,2.6,11.8,0,17.3,0C20.4,0,23.6,0.9,26.4,2.7C26.4,2.7,26.4,2.7,26.4,2.7"/>
					<path fill="#C32D2C" d="M26.4,2.7c-0.1,0-0.3-0.2-0.4-0.2C19.3-1.6,8.9-0.8,3.6,7.8C3.3,7.6,3.1,7.5,3.1,7.5
						C6.4,2.6,11.8,0,17.3,0C20.4,0,23.6,0.9,26.4,2.7C26.4,2.7,26.4,2.7,26.4,2.7"/>
					<path fill="#BF2C2B" d="M26.4,2.7c-0.1,0-0.3-0.2-0.4-0.2c-6.7-4.1-17-3.3-22.6,5.2C3.3,7.6,3.1,7.5,3.1,7.5
						C6.4,2.6,11.8,0,17.3,0C20.4,0,23.6,0.9,26.4,2.7C26.4,2.7,26.4,2.7,26.4,2.7"/>
					<path fill="#BC2C2A" d="M26.4,2.7c-0.1,0-0.3-0.2-0.4-0.2c-6.7-4.1-17-3.3-22.6,5.2C3.2,7.5,3.1,7.5,3.1,7.5
						C6.4,2.6,11.8,0,17.3,0C20.4,0,23.6,0.9,26.4,2.7C26.4,2.7,26.4,2.7,26.4,2.7"/>
					<path fill="#B82B29" d="M26.4,2.7c-0.1,0-0.3-0.2-0.4-0.2c-6.7-4.1-17-3.3-22.7,5.2C3.2,7.5,3.1,7.5,3.1,7.5
						C6.4,2.6,11.8,0,17.3,0C20.4,0,23.6,0.9,26.4,2.7C26.4,2.7,26.4,2.7,26.4,2.7"/>
					<path fill="#B42A28" d="M26.4,2.7c-0.1,0-0.3-0.2-0.4-0.2C18.4-2.2,8.2,0.1,3.3,7.6C3.2,7.5,3.1,7.5,3.1,7.5
						C6.4,2.6,11.8,0,17.3,0C20.4,0,23.6,0.9,26.4,2.7C26.4,2.7,26.4,2.7,26.4,2.7"/>
					<path fill="#B12A27" d="M26.4,2.7c-0.1,0-0.3-0.2-0.4-0.2c-6.6-4.1-17-3.3-22.8,5.1C3.2,7.5,3.1,7.5,3.1,7.5
						C6.4,2.6,11.8,0,17.3,0C20.4,0,23.6,0.9,26.4,2.7C26.4,2.7,26.4,2.7,26.4,2.7"/>
					<path fill="#AD2926" d="M26.4,2.7c-0.1,0-0.3-0.2-0.4-0.2c-6.5-4-16.7-3.6-22.8,5.1C3.2,7.5,3.1,7.5,3.1,7.5
						C6.4,2.6,11.8,0,17.3,0C20.4,0,23.6,0.9,26.4,2.7C26.4,2.7,26.4,2.7,26.4,2.7"/>
					<path fill="#AA2825" d="M26.4,2.7c-0.1,0-0.3-0.2-0.4-0.2C19.3-1.7,9-0.9,3.2,7.5C6.4,2.6,11.8,0,17.3,0
						C20.4,0,23.6,0.9,26.4,2.7C26.4,2.7,26.4,2.7,26.4,2.7"/>
					<path fill="#A62724" d="M26.4,2.7c-0.1,0-0.3-0.2-0.4-0.2c-6.5-4-16.7-3.6-22.8,5.1C6.4,2.6,11.8,0,17.3,0
						C20.4,0,23.6,0.9,26.4,2.7C26.4,2.7,26.4,2.7,26.4,2.7"/>
					<path fill="#A22723" d="M26,2.5c-8-4.7-17.6-2.5-22.9,5.1C6.4,2.6,11.8,0,17.3,0c3.1,0,6.2,0.8,9,2.6C26.2,2.5,26.1,2.5,26,2.5
						"/>
					<path fill="#9F2622" d="M22.9,1C15.5-1.5,7.8,1,3.2,7.5C6.4,2.6,11.8,0,17.3,0c2,0,3.9,0.3,5.8,1C23,1,23,1,22.9,1"/>
					<path fill="#9B2521" d="M20.1,0.3c-3.2-0.5-11.3-0.8-17,7.2C6.4,2.6,11.8,0,17.3,0c1.1,0,2.1,0.1,3.2,0.3
						C20.3,0.3,20.2,0.3,20.1,0.3"/>
					<path fill="#972420" d="M17.7,0C14.2,0,7.8,0.9,3.2,7.5C6.4,2.6,11.8,0,17.3,0c0.2,0,0.4,0,0.6,0C17.8,0,17.7,0,17.7,0"/>
					<path fill="#94231E" d="M15.1,0.2c-5.1,0.7-9,3.1-12,7.3C6,3.3,10.5,0.7,15.1,0.2C15.2,0.1,15.1,0.2,15.1,0.2"/>
					<path fill="#90231D" d="M11.7,1C8,2.3,5.4,4.3,3.1,7.5c2.2-3.3,5.4-5.6,9-6.7C12,0.9,11.8,0.9,11.7,1"/>
				</g>
			</g>
			<g enable-background="new    ">
				<defs>
					<path id="SVGID_23_" enable-background="new    " d="M32.9,6.1c-1.2-1.9-2.2-3.4-2.2-3.4c2.8-1.8,6-2.7,9.2-2.7c0,0,0,1.8,0,4
						C37.4,4,35,4.7,32.9,6.1z"/>
				</defs>
				<clipPath id="SVGID_24_">
					<use xlink:href="#SVGID_23_"  overflow="visible"/>
				</clipPath>
				<g clip-path="url(#SVGID_24_)" enable-background="new    ">
					<path fill="#EF7F6D" d="M32.9,6.1c-1.2-1.9-2.2-3.4-2.2-3.4c2.8-1.8,6-2.7,9.2-2.7c0,0,0,1.8,0,4C37.4,4,35,4.7,32.9,6.1"/>
					<path fill="#EF7F6D" d="M39.9,0.9c-0.1,0.1-0.3,0.1-0.3,0.2c0,0.2,0.1,0.2,0.3,0.3c0,0.7,0,1.6,0,2.6c-2.4,0-4.8,0.7-7,2
						c-1.2-1.9-2.2-3.4-2.2-3.4c2.8-1.8,6-2.7,9.2-2.7C39.9,0,39.9,0.3,39.9,0.9"/>
					<path fill="#EF7968" d="M39.9,0.7c-0.3,0.3-1.1-0.1-1.1,0.5c0,0.2,0,0.3,1.1,0.7c0,0.6,0,1.4,0,2.2c-2.4,0-4.8,0.7-7,2
						c-1.2-1.9-2.2-3.4-2.2-3.4c2.8-1.8,6-2.7,9.2-2.7C39.9,0,39.9,0.3,39.9,0.7"/>
					<path fill="#EE7463" d="M39.9,0.6c-0.1,0.1-0.2,0-0.3,0c-0.8,0.1-1.7,0.5-1.7,0.8c0,0.3,0.3,0.5,2,0.8c0,0.5,0,1.1,0,1.8
						c-2.4,0-4.8,0.7-7,2c-1.2-1.9-2.2-3.4-2.2-3.4c2.8-1.8,6-2.7,9.2-2.7C39.9,0,39.9,0.2,39.9,0.6"/>
					<path fill="#ED6D5E" d="M39.9,0.5c-0.1,0.1-0.2,0-0.3,0c-0.4,0.1-0.8,0.1-1.3,0.2c-0.2,0-0.6,0.2-1,0.4
						c-0.4,0.3-0.4,0.5-0.4,0.5c0,0.5,0.9,0.7,2.9,0.9c0,0.4,0,0.9,0,1.4c-2.4,0-4.8,0.7-7,2c-1.2-1.9-2.2-3.4-2.2-3.4
						c2.8-1.8,6-2.7,9.2-2.7C39.9,0,39.9,0.2,39.9,0.5"/>
					<path fill="#EC6658" d="M39.9,0.4c-0.1,0.1-0.2,0-0.3,0c-2.2,0.2-3.7,1-3.7,1.6c0,0.4,0.6,0.5,0.9,0.6c1,0.2,2,0.2,3.1,0.3
						c0,0.3,0,0.7,0,1.1c-2.4,0-4.8,0.7-7,2c-1.2-1.9-2.2-3.4-2.2-3.4c2.8-1.8,6-2.7,9.2-2.7C39.9,0,39.9,0.2,39.9,0.4"/>
					<path fill="#EB5D51" d="M39.9,0.4c-4.3,0.3-5.5,2.1-5,2.6c0.2,0.2,0.5,0.3,1,0.3c1.3,0.1,2.7-0.1,4,0c0,0.2,0,0.5,0,0.7
						c-2.4,0-4.8,0.7-7,2c-1.2-1.9-2.2-3.4-2.2-3.4c2.8-1.8,6-2.7,9.2-2.7C39.9,0,39.9,0.2,39.9,0.4"/>
					<path fill="#EA5148" d="M39.9,0.4c-0.1,0.1-0.2,0-0.3,0c-2.1,0.1-4,0.8-4.8,1.5c-1.5,1.1-2,2.4-0.5,2.4c0.3,0,0.3,0,1.4-0.2
						c1.5-0.3,2.5-0.4,4.2-0.4c0,0.1,0,0.2,0,0.3c-2.4,0-4.8,0.7-7,2c-1.2-1.9-2.2-3.4-2.2-3.4c2.8-1.8,6-2.7,9.2-2.7
						C39.9,0,39.9,0.1,39.9,0.4"/>
					<path fill="#E73235" d="M39.9,0.3c-0.1,0.1-0.2,0-0.3,0c-1.7,0.1-5.9,0.7-7.7,4.2c-0.7-1.1-1.2-1.8-1.2-1.8
						c2.8-1.8,6-2.7,9.2-2.7C39.9,0,39.9,0.1,39.9,0.3"/>
					<path fill="#E33134" d="M39.9,0.3C39.8,0.3,39.8,0.3,39.9,0.3C37.8,0.4,34,0.9,31.5,4c-0.5-0.8-0.8-1.3-0.8-1.3
						c2.8-1.8,6-2.7,9.2-2.7C39.9,0,39.9,0.1,39.9,0.3"/>
					<path fill="#E03133" d="M39.9,0.2c-0.1,0.1-0.2,0-0.3,0c-2.2,0.1-5.5,0.8-8.2,3.4c-0.4-0.6-0.6-1-0.6-1c2.8-1.8,6-2.7,9.2-2.7
						C39.9,0,39.9,0.1,39.9,0.2"/>
					<path fill="#DC3032" d="M39.9,0.2c-0.1,0.1-0.2,0-0.3,0c-1.8,0.1-5.3,0.6-8.4,3.2c-0.3-0.5-0.5-0.8-0.5-0.8
						c2.8-1.8,6-2.7,9.2-2.7C39.9,0,39.9,0.1,39.9,0.2"/>
					<path fill="#D83031" d="M39.9,0.2c-0.1,0.1-0.2,0-0.3,0c-1.5,0-5.2,0.4-8.5,3.1c-0.3-0.4-0.4-0.6-0.4-0.6
						c2.8-1.8,6-2.7,9.2-2.7C39.9,0,39.9,0.1,39.9,0.2"/>
					<path fill="#D52F31" d="M39.9,0.2c0,0-0.1,0-0.2,0c-1.8,0-5.3,0.5-8.6,3.1c-0.2-0.3-0.3-0.5-0.3-0.5c2.8-1.8,6-2.7,9.2-2.7
						C39.9,0,39.9,0.1,39.9,0.2"/>
					<path fill="#D12F30" d="M39.9,0.1c-0.1,0.1-0.2,0-0.3,0c-2.1,0.1-5.4,0.6-8.6,3c-0.2-0.3-0.3-0.4-0.3-0.4
						c2.8-1.8,6-2.7,9.2-2.7C39.9,0,39.9,0.1,39.9,0.1"/>
					<path fill="#CE2E2F" d="M39.9,0.1c-0.1,0.1-0.2,0-0.3,0c-3.1,0.1-6,1.1-8.6,2.9c-0.1-0.2-0.2-0.4-0.2-0.4
						C33.5,0.9,36.7,0,39.9,0.1C39.9,0,39.9,0.1,39.9,0.1"/>
					<path fill="#CA2E2E" d="M39.9,0.1c-0.1,0.1-0.2,0-0.3,0c-3.1,0.1-6,1-8.7,2.9c-0.1-0.2-0.2-0.3-0.2-0.3
						C33.5,0.9,36.7,0,39.9,0.1C39.9,0,39.9,0,39.9,0.1"/>
					<path fill="#C72D2D" d="M39.9,0.1c-2.2,0-5.4,0.4-9,2.8c-0.1-0.1-0.1-0.2-0.1-0.2C33.5,0.9,36.7,0,39.9,0.1
						C39.9,0,39.9,0,39.9,0.1"/>
					<path fill="#C32D2C" d="M39.9,0.1c-0.1,0.1-0.2,0-0.3,0c-3.1,0.1-6,1-8.7,2.8c-0.1-0.1-0.1-0.2-0.1-0.2
						C33.5,0.9,36.7,0,39.9,0.1C39.9,0,39.9,0,39.9,0.1"/>
					<path fill="#BF2C2B" d="M39.9,0.1c-0.1,0.1-0.2,0-0.3,0c-3.1,0.1-6,1-8.8,2.8c-0.1-0.1-0.1-0.1-0.1-0.1
						C33.5,0.9,36.7,0,39.9,0.1C39.9,0,39.9,0,39.9,0.1"/>
					<path fill="#BC2C2A" d="M39.9,0.1c-0.1,0.1-0.2,0-0.3,0c-3.1,0-6,1-8.8,2.8c0-0.1-0.1-0.1-0.1-0.1C33.5,0.9,36.7,0,39.9,0.1
						C39.9,0,39.9,0,39.9,0.1"/>
					<path fill="#B82B29" d="M39.9,0c-0.1,0.1-0.2,0-0.3,0c-1.4,0-3,0.3-4.4,0.7c-1,0.3-2.6,0.9-4.4,2.1c0-0.1-0.1-0.1-0.1-0.1
						C33.5,0.9,36.7,0,39.9,0C39.9,0,39.9,0,39.9,0"/>
					<path fill="#B42A28" d="M39.9,0c-0.1,0.1-0.2,0-0.3,0c-3.1,0-6,1-8.8,2.7c0,0,0-0.1,0-0.1C33.5,0.9,36.7,0,39.9,0
						C39.9,0,39.9,0,39.9,0"/>
					<path fill="#B12A27" d="M39.9,0c-0.1,0.1-0.2,0-0.3,0c-3.1,0-6,0.9-8.8,2.7c0,0,0-0.1,0-0.1C33.5,0.9,36.7,0,39.9,0
						C39.9,0,39.9,0,39.9,0"/>
					<path fill="#AD2926" d="M39.9,0c-0.1,0.1-0.2,0-0.3,0c-2.1,0-5.4,0.5-8.8,2.7c0,0,0,0,0,0C33.5,0.9,36.7,0,39.9,0
						C39.9,0,39.9,0,39.9,0"/>
					<path fill="#AA2825" d="M39.9,0c-0.1,0.1-0.2,0-0.3,0c-2.1,0-5.4,0.5-8.8,2.7c0,0,0,0,0,0C33.5,0.9,36.7,0,39.9,0
						C39.9,0,39.9,0,39.9,0"/>
					<path fill="#A62724" d="M39.9,0c-0.1,0.1-0.2,0-0.3,0c-2.1,0-5.4,0.5-8.8,2.7C33.5,0.9,36.7,0,39.9,0C39.9,0,39.9,0,39.9,0"/>
					<path fill="#A22723" d="M39.9,0c-0.1,0.1-0.2,0-0.3,0c-2.1,0-5.4,0.5-8.8,2.7C33.5,0.9,36.7,0,39.9,0C39.9,0,39.9,0,39.9,0"/>
					<path fill="#9F2622" d="M39.9,0c-0.1,0.1-0.2,0-0.3,0c-2.1,0-5.4,0.5-8.8,2.7C33.5,0.9,36.7,0,39.9,0C39.9,0,39.9,0,39.9,0"/>
					<path fill="#9B2521" d="M39.9,0c-0.1,0.1-0.2,0-0.3,0c-2.1,0-5.4,0.5-8.9,2.7C33.5,0.9,36.7,0,39.9,0C39.9,0,39.9,0,39.9,0"/>
					<path fill="#972420" d="M39.9,0c-0.1,0.1-0.2,0-0.3,0c-2.1,0-5.4,0.5-8.9,2.7C33.5,0.9,36.7,0,39.9,0C39.9,0,39.9,0,39.9,0"/>
					<path fill="#94231E" d="M37.8,0.1c-2.6,0.3-4.9,1.2-7.1,2.5C32.9,1.3,35.3,0.4,37.8,0.1C37.8,0.1,37.8,0.1,37.8,0.1"/>
					<path fill="#90231D" d="M34.6,0.9c-1.5,0.5-2.6,1-3.9,1.8c1.3-0.8,2.7-1.5,4.1-1.9C34.7,0.8,34.6,0.8,34.6,0.9"/>
				</g>
			</g>
			<g enable-background="new    ">
				<defs>
					<path id="SVGID_25_" enable-background="new    " d="M39.9,4c0-2.2,0-4,0-4C45.3,0,50.7,2.6,54,7.5c0,0-1.5,1-3.3,2.3
						C48.2,6,44.1,4,39.9,4z"/>
				</defs>
				<clipPath id="SVGID_26_">
					<use xlink:href="#SVGID_25_"  overflow="visible"/>
				</clipPath>
				<g clip-path="url(#SVGID_26_)" enable-background="new    ">
					<path fill="#F6AE9D" d="M39.9,4c0-2.2,0-4,0-4C45.3,0,50.7,2.6,54,7.5c0,0-1.5,1-3.3,2.3C48.2,6,44.1,4,39.9,4"/>
					<path fill="#F6AE9D" d="M53.5,7.8c-0.2,0-0.2-0.3-0.3-0.4c-0.8-1.2-2.2-2.6-2.8-2.8c0.9,1.2,2,2.2,2.9,3.4
						c-0.6,0.4-1.6,1.1-2.6,1.8C48.2,6,44.1,4,39.9,4c0-2.2,0-4,0-4C45.3,0,50.7,2.6,54,7.5C54,7.5,53.8,7.6,53.5,7.8"/>
					<path fill="#F5AC9A" d="M53.6,7.7c-0.2,0-0.2-0.3-0.3-0.4c-1.3-1.9-3.2-3.4-3.9-3.6c0.1,0.2,0.1,0.2,0.5,0.5
						c1.1,1.1,2.1,2,3.4,3.7c-0.6,0.4-1.5,1-2.5,1.7C48.2,6,44.1,4,39.9,4c0-2.2,0-4,0-4C45.3,0,50.7,2.6,54,7.5
						C54,7.5,53.8,7.6,53.6,7.7"/>
					<path fill="#F5A997" d="M53.6,7.7c-0.2,0-0.2-0.3-0.3-0.4c-1.9-2.8-4.7-4.3-4.8-4.1c0,0-0.1,0.1,0.6,0.7c1.5,1.3,2.7,2.5,4,4.3
						c-0.6,0.4-1.5,1-2.4,1.6C48.2,6,44.1,4,39.9,4c0-2.2,0-4,0-4C45.3,0,50.7,2.6,54,7.5C54,7.5,53.9,7.6,53.6,7.7"/>
					<path fill="#F5A694" d="M53.7,7.7c-0.2,0-0.2-0.3-0.3-0.4c-2.2-3.1-5.4-4.7-5.6-4.6c0,0,0,0.1,0,0.1c0,0,0.1,0.1,0.8,0.8
						c2,1.6,3.1,2.7,4.5,4.6c-0.6,0.4-1.4,1-2.3,1.6C48.2,6,44.1,4,39.9,4c0-2.2,0-4,0-4C45.3,0,50.7,2.6,54,7.5
						C54,7.5,53.9,7.6,53.7,7.7"/>
					<path fill="#F4A391" d="M53.7,7.7c-0.2,0-0.2-0.3-0.3-0.4C50.9,3.7,47,2,46.9,2.4c0,0.1,0.3,0.4,0.7,0.6
						c2.5,1.9,3.8,3.1,5.3,5.2c-0.6,0.4-1.4,0.9-2.2,1.5C48.2,6,44.1,4,39.9,4c0-2.2,0-4,0-4C45.3,0,50.7,2.6,54,7.5
						C54,7.5,53.9,7.6,53.7,7.7"/>
					<path fill="#F4A08E" d="M53.7,7.7c-0.2,0-0.2-0.3-0.3-0.4c-2.8-3.9-7.1-5.5-7.2-5.2c0,0.1,0.4,0.4,0.9,0.8
						c2.3,1.6,3.9,3,5.7,5.4c-0.6,0.4-1.3,0.9-2.1,1.5C48.2,6,44.1,4,39.9,4c0-2.2,0-4,0-4C45.3,0,50.7,2.6,54,7.5
						C54,7.5,53.9,7.5,53.7,7.7"/>
					<path fill="#F49D8B" d="M53.7,7.7c-0.1,0-0.2-0.3-0.3-0.4c-3.1-4.4-7.7-5.8-8-5.5c0,0,0,0.1,0,0.1c0,0.1,0.2,0.2,0.8,0.6
						c2.6,1.7,4.4,3.1,6.4,5.8c-0.6,0.4-1.3,0.9-2.1,1.4C48.2,6,44.1,4,39.9,4c0-2.2,0-4,0-4C45.3,0,50.7,2.6,54,7.5
						C54,7.5,53.9,7.5,53.7,7.7"/>
					<path fill="#F39A87" d="M53.7,7.6c-0.2,0-0.2-0.3-0.3-0.4c-3.1-4.4-8.1-6-8.6-5.7c0,0,0,0,0,0.1c0,0.1,0.5,0.4,1.1,0.8
						c2.7,1.7,4.7,3.2,6.8,6c-0.5,0.4-1.2,0.8-2,1.3C48.2,6,44.1,4,39.9,4c0-2.2,0-4,0-4C45.3,0,50.7,2.6,54,7.5
						C54,7.5,53.9,7.5,53.7,7.6"/>
					<path fill="#F39784" d="M53.8,7.6c-0.2,0-0.2-0.3-0.3-0.4c-3.5-5-9.2-6.2-9.4-5.8c0,0.1,0.5,0.5,0.9,0.7c2.4,1.4,5,2.8,7.6,6.4
						c-0.5,0.4-1.2,0.8-1.9,1.3C48.2,6,44.1,4,39.9,4c0-2.2,0-4,0-4C45.3,0,50.7,2.6,54,7.5C54,7.5,53.9,7.5,53.8,7.6"/>
					<path fill="#F29380" d="M53.8,7.6c-0.2,0-0.2-0.3-0.3-0.4c-3.7-5.3-9.8-6.4-10.1-5.9c-0.1,0.2,0.3,0.4,1.5,1
						c3,1.6,5.2,3.1,7.5,6.3c-0.5,0.3-1.1,0.8-1.8,1.2C48.2,6,44.1,4,39.9,4c0-2.2,0-4,0-4C45.3,0,50.7,2.6,54,7.5
						C54,7.5,53.9,7.5,53.8,7.6"/>
					<path fill="#F28F7D" d="M53.8,7.6c-0.2,0-0.2-0.3-0.3-0.4c-4-5.7-10.8-6.5-10.8-6c0,0.2,0,0.2,2,1.2c3.4,1.7,5.6,3.5,7.7,6.3
						c-0.5,0.3-1,0.7-1.6,1.1C48.2,6,44.1,4,39.9,4c0-2.2,0-4,0-4C45.3,0,50.7,2.6,54,7.5C54,7.5,53.9,7.5,53.8,7.6"/>
					<path fill="#F18C79" d="M53.8,7.6c-0.2,0-0.2-0.3-0.3-0.4c-1.3-1.9-3.4-3.7-5.4-4.7c-3.7-1.9-6.5-1.7-6-1.2
						c0.1,0.1,0.3,0.2,1.1,0.6c3.3,1.4,6.3,3,9.1,6.9c-0.5,0.3-1,0.7-1.5,1C48.2,6,44.1,4,39.9,4c0-2.2,0-4,0-4
						C45.3,0,50.7,2.6,54,7.5C54,7.5,53.9,7.5,53.8,7.6"/>
					<path fill="#F18875" d="M53.8,7.6c-0.2,0-0.2-0.3-0.3-0.4c-4.4-6.3-12.9-7-12.3-6c0.1,0.1,0.4,0.3,1.4,0.7
						c3.9,1.5,6.8,3.2,9.5,6.9c-0.4,0.3-0.9,0.6-1.4,1C48.2,6,44.1,4,39.9,4c0-2.2,0-4,0-4C45.3,0,50.7,2.6,54,7.5
						C54,7.5,53.9,7.5,53.8,7.6"/>
					<path fill="#F08371" d="M53.8,7.6c-0.2,0-0.2-0.3-0.3-0.4c-0.7-1-2.8-3.6-6.3-5.2c-4-1.8-7.2-1.3-6.8-0.8
						c0.2,0.2,0.7,0.4,1.6,0.7C45.3,3.1,49,4.6,52,8.9c-0.4,0.3-0.8,0.6-1.3,0.9C48.2,6,44.1,4,39.9,4c0-2.2,0-4,0-4
						C45.3,0,50.7,2.6,54,7.5C54,7.5,53.9,7.5,53.8,7.6"/>
					<path fill="#EF7F6D" d="M50.7,9.7C48.2,6,44.1,4,39.9,4c0-1,0-1.9,0-2.6c0,0,0.1,0,0.1,0c2.3,1.1,4.9,1.5,7,2.9
						c2.5,1.6,3.9,3.2,4.9,4.6C51.5,9.2,51.1,9.5,50.7,9.7"/>
					<path fill="#EF7F6D" d="M53.8,7.6c-0.2,0-0.2-0.3-0.3-0.4c-4.1-5.9-11.6-7.3-13.7-6.3c0-0.5,0-0.8,0-0.8
						C45.3,0,50.7,2.6,54,7.5C54,7.5,53.9,7.5,53.8,7.6"/>
					<path fill="#EF7968" d="M50.7,9.7C48.2,6,44.1,4,39.9,4c0-0.8,0-1.5,0-2.2c0,0,0.1,0,0.1,0c4.4,1.2,8.3,2.3,11.8,7.2
						C51.4,9.3,51,9.5,50.7,9.7"/>
					<path fill="#EF7968" d="M53.8,7.6c-0.2,0-0.2-0.3-0.3-0.4C50,2.1,43.8,0,39.9,0.7c0-0.4,0-0.7,0-0.7C45.3,0,50.7,2.6,54,7.5
						C54,7.5,53.9,7.5,53.8,7.6"/>
					<path fill="#EE7463" d="M53.8,7.6c-0.2,0-0.2-0.3-0.3-0.4C50.4,2.7,44.7,0,39.9,0.6c0-0.4,0-0.6,0-0.6C45.3,0,50.7,2.6,54,7.5
						C54,7.5,53.9,7.5,53.8,7.6"/>
					<path fill="#ED6D5E" d="M53.9,7.6c-0.2,0-0.2-0.3-0.3-0.4c-2.3-3.3-7.3-7-13.7-6.6c0-0.3,0-0.5,0-0.5C45.3,0,50.7,2.6,54,7.5
						C54,7.5,53.9,7.5,53.9,7.6"/>
					<path fill="#EC6658" d="M53.9,7.6c-0.1,0-0.1-0.1-0.1-0.2c-1.1-1.5-3-3.7-6.1-5.3c-2.4-1.2-5.3-1.8-7.8-1.6c0-0.3,0-0.4,0-0.4
						C45.3,0,50.7,2.6,54,7.5C54,7.5,53.9,7.5,53.9,7.6"/>
					<path fill="#EE7463" d="M50.7,9.7C48.2,6,44.1,4,39.9,4c0-0.6,0-1.2,0-1.8c0.1,0,0.3,0.1,0.4,0.1c3.7,0.8,7.9,2.2,11.3,6.8
						C51.3,9.3,51,9.5,50.7,9.7"/>
					<path fill="#EB5D51" d="M53.9,7.6c-0.2,0-0.2-0.3-0.3-0.4C51.3,3.8,46.3,0,39.9,0.4c0-0.2,0-0.4,0-0.4C45.3,0,50.7,2.6,54,7.5
						C54,7.5,54,7.5,53.9,7.6"/>
					<path fill="#EA5148" d="M53.9,7.5c-0.2,0-0.2-0.3-0.3-0.4c-0.8-1.2-5.4-7-13.7-6.7c0-0.2,0-0.3,0-0.3C45.3,0,50.7,2.6,53.9,7.5
						C54,7.5,54,7.5,53.9,7.5"/>
					<path fill="#E73235" d="M53.9,7.5c-0.2,0-0.2-0.3-0.3-0.4c-0.8-1.2-5.3-7-13.7-6.8c0-0.2,0-0.3,0-0.3C45.3,0,50.7,2.6,53.9,7.5
						C54,7.5,54,7.5,53.9,7.5"/>
					<path fill="#E33134" d="M53.9,7.5c-0.2,0-0.2-0.3-0.3-0.4c-0.8-1.2-5.3-7-13.8-6.8c0-0.2,0-0.3,0-0.3C45.3,0,50.7,2.6,53.9,7.5
						C54,7.5,54,7.5,53.9,7.5"/>
					<path fill="#ED6D5E" d="M50.7,9.7C48.2,6,44.1,4,39.9,4c0-0.5,0-1,0-1.4c0.1,0,0.3,0.1,0.4,0.1c3.4,0.6,7.7,1.9,11.1,6.6
						C51.2,9.4,50.9,9.6,50.7,9.7"/>
					<path fill="#E03133" d="M53.9,7.5c-0.2,0-0.2-0.3-0.3-0.4c-2.4-3.4-7.3-7-13.8-6.8c0-0.1,0-0.2,0-0.2C45.3,0,50.7,2.6,53.9,7.5
						C54,7.5,54,7.5,53.9,7.5"/>
					<path fill="#DC3032" d="M53.9,7.5c-0.2,0-0.2-0.3-0.3-0.4c-1.2-1.6-5.6-6.9-13.8-6.8c0-0.1,0-0.2,0-0.2
						C45.3,0,50.7,2.6,53.9,7.5C54,7.5,54,7.5,53.9,7.5"/>
					<path fill="#D83031" d="M54,7.5c-0.2,0-0.2-0.3-0.3-0.4c-1.2-1.6-5.6-6.9-13.8-6.9c0-0.1,0-0.2,0-0.2C45.3,0,50.7,2.6,54,7.5
						C54,7.5,54,7.5,54,7.5"/>
					<path fill="#EC6658" d="M50.7,9.7C48.2,6,44.1,4,39.9,4c0-0.4,0-0.7,0-1.1C40,3,40.1,3,40.3,3c4.8,0.6,8.4,2.7,10.9,6.4
						C51,9.5,50.9,9.6,50.7,9.7"/>
					<path fill="#D52F31" d="M54,7.5c-0.2,0-0.2-0.3-0.3-0.4c-1.2-1.6-5.6-6.9-13.8-6.9c0-0.1,0-0.1,0-0.1C45.3,0,50.7,2.6,54,7.5
						C54,7.5,54,7.5,54,7.5"/>
					<path fill="#D12F30" d="M54,7.5c-0.2,0-0.2-0.3-0.3-0.4c-2.4-3.4-7.3-7-13.8-6.9c0-0.1,0-0.1,0-0.1C45.3,0,50.7,2.6,54,7.5
						C54,7.5,54,7.5,54,7.5"/>
					<path fill="#CE2E2F" d="M54,7.5c-0.2,0-0.2-0.3-0.3-0.4c-1.1-1.6-5.5-6.9-13.8-6.9c0-0.1,0-0.1,0-0.1C45.3,0,50.7,2.6,54,7.5
						C54,7.5,54,7.5,54,7.5"/>
					<path fill="#EB5D51" d="M50.7,9.7C48.2,6,44.1,4,39.9,4c0-0.2,0-0.5,0-0.7c0.1,0,0.3,0,0.4,0c4.6,0.4,8.2,2.5,10.8,6.1
						C50.9,9.6,50.8,9.7,50.7,9.7"/>
					<path fill="#CA2E2E" d="M54,7.5c-0.2,0-0.2-0.3-0.3-0.4c-1.1-1.6-5.5-6.9-13.8-7c0,0,0-0.1,0-0.1C45.3,0,50.7,2.6,54,7.5
						C54,7.5,54,7.5,54,7.5"/>
					<path fill="#C72D2D" d="M54,7.5c-0.2,0-0.2-0.3-0.3-0.4c-2.4-3.4-7.3-7-13.8-7C45.3,0,50.7,2.6,54,7.5C54,7.5,54,7.5,54,7.5"/>
					<path fill="#C32D2C" d="M54,7.5c-0.2,0-0.2-0.3-0.3-0.4c-1.1-1.6-5.5-6.9-13.8-7C45.3,0,50.7,2.6,54,7.5C54,7.5,54,7.5,54,7.5"
						/>
					<path fill="#BF2C2B" d="M54,7.5c-0.2,0-0.2-0.3-0.3-0.4c-2.4-3.4-7.3-7-13.8-7C45.3,0,50.7,2.6,54,7.5C54,7.5,54,7.5,54,7.5"/>
					<path fill="#BC2C2A" d="M54,7.5c-0.2,0-0.2-0.3-0.3-0.4c-1.1-1.6-5.5-6.9-13.8-7C45.3,0,50.7,2.6,54,7.5C54,7.5,54,7.5,54,7.5"
						/>
					<path fill="#B82B29" d="M54,7.5c-0.2,0-0.2-0.3-0.3-0.4c-1.1-1.6-5.5-6.9-13.8-7C45.3,0,50.7,2.6,54,7.5C54,7.5,54,7.5,54,7.5"
						/>
					<path fill="#EA5148" d="M50.7,9.7C48.2,6,44.1,4,39.9,4c0-0.1,0-0.2,0-0.3c0.1,0,0.3,0,0.4,0C44.7,4,48.3,6,50.9,9.6
						C50.8,9.7,50.7,9.7,50.7,9.7"/>
					<path fill="#B42A28" d="M54,7.5c-0.2,0-0.2-0.3-0.3-0.4c-1.1-1.6-5.5-6.9-13.8-7C45.3,0,50.7,2.6,54,7.5C54,7.5,54,7.5,54,7.5"
						/>
					<path fill="#B12A27" d="M54,7.5c-0.2,0-0.2-0.3-0.3-0.4c-1.1-1.6-5.5-6.9-13.8-7C45.3,0,50.7,2.6,54,7.5C54,7.5,54,7.5,54,7.5"
						/>
					<path fill="#AD2926" d="M54,7.5c-0.2,0-0.2-0.3-0.3-0.4c-1.1-1.6-5.5-6.9-13.8-7C45.3,0,50.7,2.6,54,7.5C54,7.5,54,7.5,54,7.5"
						/>
					<path fill="#AA2825" d="M54,7.5c-0.2,0-0.2-0.3-0.3-0.4c-1.1-1.6-5.5-6.9-13.8-7C45.3,0,50.7,2.6,54,7.5C54,7.5,54,7.5,54,7.5"
						/>
					<path fill="#A62724" d="M54,7.5C49.7,1.4,43.9,0.1,39.9,0C45.3,0,50.7,2.6,54,7.5C54,7.5,54,7.5,54,7.5"/>
					<path fill="#A22723" d="M48.6,2.4c-2.8-1.6-5.5-2.4-8.8-2.4c3.2,0,6.3,0.9,9,2.6C48.8,2.5,48.7,2.5,48.6,2.4"/>
					<path fill="#9F2622" d="M45.4,0.9c-1.9-0.6-3.5-0.9-5.5-0.9c2,0,4,0.4,5.9,1C45.6,1,45.5,1,45.4,0.9"/>
					<path fill="#9B2521" d="M42.9,0.3C41.7,0.1,41.1,0,39.9,0C40.9,0,42,0.1,43,0.3C43,0.3,42.9,0.3,42.9,0.3"/>
					<path fill="#972420" d="M40.4,0l-0.5,0C40.1,0,40.3,0,40.4,0C40.4,0,40.4,0,40.4,0"/>
				</g>
			</g>
			<g>
				<path fill="#CF2F2F" d="M39.9,4c4.2,0,8.3,2,10.8,5.7c0,0,0.1,0.1,0.1,0.2c3.5,5.2,2.9,12.1-1.5,16.5
					c-7.8,7.9-15.6,15.7-22.2,22.4c1.5,0,1.3,0,2.8,0c-6.6-6.7-14.4-14.5-22.2-22.4C3.4,22,2.8,15.1,6.3,10c0.1-0.1,0.2-0.2,0.2-0.3
					C9,6,13.1,4,17.3,4c2.4,0,4.8,0.7,7,2c5-6.3,1.4,0.9,4.3,2.7c2.9-1.8,3.6-2.3,4.3-2.7C35,4.7,37.4,4,39.9,4z"/>
			</g>
		</g>
	</g>
</g>
</svg>
