<?xml version="1.0" encoding="utf-8"?>
<!-- Generator: Adobe Illustrator 15.0.0, SVG Export Plug-In . SVG Version: 6.00 Build 0)  -->
<!DOCTYPE svg PUBLIC "-//W3C//DTD SVG 1.1//EN" "http://www.w3.org/Graphics/SVG/1.1/DTD/svg11.dtd">
<svg version="1.1" xmlns="http://www.w3.org/2000/svg" xmlns:xlink="http://www.w3.org/1999/xlink" x="0px" y="0px" width="500px"
	 height="500px" viewBox="0 0 500 500" enable-background="new 0 0 500 500" xml:space="preserve">
<g id="Layer_1">
	<circle fill="#FFF200" stroke="#FFF200" stroke-miterlimit="10" cx="245.329" cy="252.193" r="175.284"/>
</g>
<g id="Layer_2">
	<polygon fill="#FFF200" stroke="#FFF200" stroke-miterlimit="10" points="154.705,113.841 134.818,37.705 180.273,97.932 
		189.932,7.591 219.477,96.227 235.386,29.75 267.772,97.932 	"/>
	<polygon fill="#FFF200" stroke="#FFF200" stroke-miterlimit="10" points="268.854,81.246 308.629,13.347 298.183,88.075 
		368.894,31.024 327.11,114.592 385.365,78.834 360.055,149.947 	"/>
	<polygon fill="#FFF200" stroke="#FFF200" stroke-miterlimit="10" points="374.034,140.557 450.171,120.67 389.943,166.125 
		480.284,175.784 391.648,205.33 474.546,218.116 389.944,253.625 	"/>
	<polygon fill="#FFF200" stroke="#FFF200" stroke-miterlimit="10" points="412.272,261.606 487.146,285.818 411.922,291.719 
		482.868,348.476 392.262,325.681 439.731,374.862 364.836,365.469 	"/>
	<polygon fill="#FFF200" stroke="#FFF200" stroke-miterlimit="10" points="366.026,368.117 401.851,438.182 344.486,389.162 
		354.52,479.462 306.569,399.275 305.359,467.618 259.042,408.017 	"/>
	<polygon fill="#FFF200" stroke="#FFF200" stroke-miterlimit="10" points="258.357,421.716 234.146,496.591 228.245,421.365 
		171.488,492.312 194.283,401.705 145.102,449.176 154.495,374.279 	"/>
	<polygon fill="#FFF200" stroke="#FFF200" stroke-miterlimit="10" points="154.895,383.676 99.766,439.829 128.116,369.9 
		45.63,407.99 106.525,337.132 41.312,357.609 83.195,294.813 	"/>
	<polygon fill="#FFF200" stroke="#FFF200" stroke-miterlimit="10" points="97.073,294.443 18.384,295.167 87.878,265.767 
		2.619,234.374 95.782,227.329 31.636,187.708 109.209,180.908 	"/>
	<polygon fill="#FFF200" stroke="#FFF200" stroke-miterlimit="10" points="89.155,185.928 33.002,130.798 102.931,159.149 
		64.842,76.664 135.7,137.558 115.222,72.345 178.02,114.228 	"/>
</g>
</svg>
