<?xml version="1.0" encoding="utf-8"?>
<!-- Generator: Adobe Illustrator 16.0.0, SVG Export Plug-In . SVG Version: 6.00 Build 0)  -->
<!DOCTYPE svg PUBLIC "-//W3C//DTD SVG 1.1//EN" "http://www.w3.org/Graphics/SVG/1.1/DTD/svg11.dtd">
<svg xmlns="http://www.w3.org/2000/svg" xmlns:xlink="http://www.w3.org/1999/xlink" xmlns:svg="http://www.w3.org/2000/svg" xmlns:dc="http://purl.org/dc/elements/1.1/" xmlns:cc="http://web.resource.org/cc/" xmlns:rdf="http://www.w3.org/1999/02/22-rdf-syntax-ns#" version="1.1" id="Layer_1" x="0px" y="0px" width="800px" height="800px" viewBox="0 0 800 800" enable-background="new 0 0 800 800" xml:space="preserve">
<path fill-rule="evenodd" clip-rule="evenodd" fill="none" d="M365.229,702.555c55.596-0.72,109.72-10.144,162.228-28.688  c79.524-28.109,150.235-69.616,206.065-134.223c69.708-80.657,83.098-171.136,46.841-269.812  c-11.789-32.079-31.064-58.874-64.92-71.591c-4.72-1.774-4.87-4.427-4.108-8.737c1.832-10.457,3.398-20.985,4.47-31.543  c1.507-14.717,1.614-29.421-2.643-43.854c-3.584-12.152-11.101-19.5-24.147-20.149c-11.633-0.577-23.266-1.321-34.909-1.33  c-12.729-0.009-17.038,6.632-10.93,17.968c12.153,22.539,15.702,46.315,13.826,71.565c-0.669,9.03-2.317,11.801-11.991,9.381  c-17.944-4.478-28.372,0.256-34.926,13.295c-18.988,37.816-45.946,68.673-81.146,92.228  c-50.552,33.829-106.347,55.112-165.434,67.962c-108.297,23.559-212.543,14.458-310.873-40.076c-2.637-1.46-5.767-2.858-8.661-2.858  C22.109,322.125-6.245,338.5,4.45,369.776c1.875,5.506,3.181,11.26,5.516,16.558c18.99,43.101,44.022,82.161,79.004,114.086  c6.939,6.332,8.345,9.352,1.206,16.904c-18.127,19.176-18.303,30.891-3.021,52.627c8.102,11.51,17.383,22.031,27.409,31.956  C183.978,670.685,267.904,703.242,365.229,702.555z"/>
<path fill-rule="evenodd" clip-rule="evenodd" d="M365.229,702.555c-97.325,0.688-181.251-31.87-250.666-100.647  c-10.026-9.925-19.307-20.446-27.409-31.956c-15.282-21.736-15.105-33.451,3.021-52.627c7.139-7.553,5.733-10.572-1.206-16.904  c-34.982-31.926-60.014-70.985-79.004-114.086c-2.334-5.297-3.64-11.051-5.516-16.558c-10.695-31.276,17.659-47.65,39.521-47.684  c2.895,0,6.024,1.397,8.661,2.858c98.33,54.534,202.576,63.635,310.873,40.076c59.087-12.851,114.882-34.134,165.434-67.962  c35.2-23.555,62.158-54.412,81.146-92.228c6.554-13.039,16.981-17.772,34.926-13.295c9.674,2.42,11.322-0.351,11.991-9.381  c1.876-25.25-1.673-49.026-13.826-71.565c-6.108-11.336-1.799-17.977,10.93-17.968c11.644,0.009,23.276,0.753,34.909,1.33  c13.047,0.649,20.563,7.997,24.147,20.149c4.257,14.433,4.149,29.137,2.643,43.854c-1.071,10.558-2.638,21.086-4.47,31.543  c-0.762,4.31-0.611,6.963,4.108,8.737c33.855,12.717,53.131,39.512,64.92,71.591c36.257,98.676,22.867,189.155-46.841,269.812  c-55.83,64.606-126.541,106.113-206.065,134.223C474.949,692.411,420.825,701.835,365.229,702.555z M688.857,283.732  c0,3.704,0.392,7.461-0.086,11.103c-1.279,9.845-2.36,19.775-4.527,29.442c-17.006,75.67-61.521,132.956-122.215,178.4  c-67.564,50.588-144.77,76.798-228.285,85.171c-62.569,6.271-123.162-0.585-180.239-28.877c-4.025-1.993-7.799-1.809-11.867-0.234  c-6.846,2.647-12.277,7.393-18.153,11.53c-5.775,4.072-5.063,7.508-0.36,12.253c47.629,48.072,103.719,80.683,170.848,92.234  c85.408,14.688,167.844,2.51,247.928-29.261c61.949-24.58,117.764-58.508,163.817-107.202  c51.706-54.674,80.521-117.896,70.712-194.95c-4.285-33.623-12.914-65.77-31.576-94.738c-12.387-19.241-31.443-28.74-51.128-37.821  c-6.896-3.181-12,2.582-18.445,2.825c-30.731,1.147-23.836,0.405-32.724,27.567c-0.419,1.289-0.554,2.683-0.728,4.042  c-4.202,32.557-18.906,60.547-37.695,86.768c-34.882,48.691-80.034,86.235-129.796,118.561  c-71.733,46.593-149.567,75.69-235.677,80.073c-27.41,1.397-54.818,0.161-82.219-0.684c-3.163-0.1-6.896-1.72-8.737,2.926  c-3.106,7.816,0.895,18.254,8.578,21.236c17.575,6.825,35.377,12.993,53.713,17.486c76.268,18.683,151.19,10.969,224.855-12.907  c88.578-28.71,161.173-79.173,211.697-158.964C669.121,364.055,681.801,324.968,688.857,283.732z M630.523,212.443  c-5.507,1.347-6.277,5.165-8.144,7.813c-12.036,17.001-19.477,36.861-34.272,52.265c-31.401,32.703-68.694,56.454-109.887,74.489  c-89.701,39.272-182.657,57.69-280.66,43.077c-39.921-5.946-77.683-19.521-115.637-32.455c-2.704-0.921-5.381-3.657-8.512-0.875  c-5.273,4.673-4.979,18.34,0.754,22.894c21.784,17.304,44.44,33.422,69.581,45.464c74.478,35.662,153.138,45.426,234.546,36.314  c21.415-2.397,43.997-3.252,62.861-14.039c65.094-37.222,122.013-83.858,160.762-149.54  C617.334,271.73,624.731,242.785,630.523,212.443z M403.084,466.205c-3.013,0.326-6.042,0.548-9.049,0.992  c-52.692,7.754-105.216,6.804-157.516-3.244c-58.533-11.244-112.28-33.119-157.816-72.618  c-15.082-13.077-21.535-14.119-39.344-5.837c-5.524,2.564-7.046,5.38-3.975,11.081c22.178,41.181,49.638,77.949,87.433,106.311  c6.226,4.676,12.862,7.558,20.512,8.697c63.488,9.473,125.755,3.213,187.101-14.487  C355.738,489.794,380.234,480.361,403.084,466.205z M140.6,534.563c2.277-4.146,1.03-5.786-2.468-6.62  c-8.302-1.978-16.512-4.377-24.848-6.188c-5.574-1.215-9.031,1.146-12.429,6.265c-9.205,13.864-2.368,24.528,5.432,35.306  c7.081,9.795,7.089,9.68,14.479,0.701c1.925-2.343,4.117-5.173,6.77-6.101C139.361,553.782,142.19,544.963,140.6,534.563z   M21.649,352.037c0.235,10.549,2.469,17.325,4.946,24.086c2.244,6.122,3.524,12.963,11.099,3.624  c2.995-3.703,8.251-5.762,12.872-5.59c14.101,0.518,13.558-12.14,16.746-19.697c2.235-5.298-7.381-5.863-11.13-9.273  c-2.001-1.812-4.738-2.808-6.738-4.615c-4.369-3.951-10.035-7.089-14.738-3.674C28.68,341.275,21.926,346.301,21.649,352.037z   M692.671,190.638c2.429-16.002,5.007-31.853,4.737-47.93c-0.084-5.441-0.527-10.935-1.497-16.283  c-2.301-12.721-16.044-20.258-27.802-15.8c-3.616,1.367-2.537,3.574-1.584,5.666C677.423,140.243,684.161,165.635,692.671,190.638z"/>
<g id="XMLID_1_">
	<g>
		<path fill="#FFC432" d="M701.537,223.901c-7.971-2.571-13.884,4.713-20.482-0.429c3.942,7.542,5.913,15.083,10.112,24.939    C693.139,237.699,689.196,227.586,701.537,223.901z M474.346,450.578c49.792-32.31,94.87-69.846,129.75-118.523    c18.854-26.225,33.509-54.249,37.708-86.814c0.172-1.371,0.343-2.742,0.771-4.028c8.827-27.167,1.971-26.396,32.737-27.596    c6.428-0.257,11.483-5.999,18.426-2.828c19.625,9.084,38.736,18.597,51.077,37.88c18.683,28.966,27.339,61.104,31.623,94.699    c9.771,77.044-19.025,140.291-70.702,194.968c-46.107,48.678-101.897,82.615-163.859,107.211    c-80.044,31.795-162.487,43.965-247.931,29.224c-67.103-11.569-123.237-44.136-170.8-92.213    c-4.714-4.714-5.399-8.142,0.343-12.255c5.828-4.114,11.312-8.913,18.168-11.57c4.028-1.542,7.798-1.714,11.827,0.258    c57.076,28.28,117.666,35.137,180.228,28.881c83.558-8.398,160.774-34.537,228.305-85.187    c60.676-45.421,105.24-102.669,122.209-178.342c2.143-9.685,3.257-19.625,4.542-29.481c0.514-3.6,0.086-7.371,0.086-11.056    c-7.027,41.222-19.711,80.301-42.336,115.953c-50.478,79.787-123.065,130.265-211.68,158.974    c-73.617,23.825-148.604,31.538-224.878,12.855c-18.34-4.456-36.08-10.627-53.648-17.483c-7.713-2.913-11.741-13.369-8.57-21.168    c1.8-4.713,5.571-3.085,8.656-2.999c27.424,0.857,54.848,2.143,82.272,0.686C324.798,526.251,402.614,497.199,474.346,450.578z"/>
	</g>
	<g>
	</g>
</g>
<g id="XMLID_2_">
	<g>
		<path fill="#EEB124" d="M630.491,212.503c-5.742,30.338-13.197,59.304-28.538,85.357    c-38.822,65.732-95.728,112.353-160.773,149.547c-18.854,10.798-41.479,11.655-62.904,14.055    c-81.415,9.084-160.088-0.686-234.562-36.337c-25.11-11.998-47.735-28.11-69.589-45.421c-5.656-4.542-5.999-18.254-0.686-22.882    c3.085-2.828,5.742-0.085,8.484,0.857c37.965,12.94,75.673,26.481,115.61,32.48c98.041,14.569,190.94-3.856,280.668-43.107    c41.222-17.997,78.501-41.822,109.867-74.474c14.826-15.426,22.282-35.309,34.28-52.277    C624.235,217.645,625.007,213.788,630.491,212.503z"/>
	</g>
	<g>
	</g>
</g>
<g id="XMLID_3_">
	<g>
		<path fill="#EEB124" d="M236.527,464.033c52.277,10.026,104.812,10.97,157.517,3.171c3-0.429,5.999-0.601,8.999-0.943    c-22.796,14.141-47.307,23.568-72.588,30.853c-61.361,17.74-123.666,23.996-187.169,14.483    c-7.627-1.114-14.226-4.028-20.482-8.656c-37.794-28.366-65.218-65.132-87.415-106.354c-3.085-5.656-1.542-8.484,3.942-11.055    c17.826-8.313,24.253-7.199,39.336,5.828C124.26,430.867,177.994,452.721,236.527,464.033z"/>
	</g>
	<g>
	</g>
</g>
<g id="XMLID_4_">
	<g>
		<path fill="#986C29" d="M138.144,527.966c3.514,0.856,4.713,2.484,2.485,6.599c1.543,10.455-1.285,19.282-13.112,23.396    c-2.657,0.942-4.799,3.771-6.771,6.084c-7.37,8.999-7.37,9.085-14.483-0.686c-7.798-10.798-14.655-21.425-5.399-35.309    c3.342-5.142,6.856-7.456,12.426-6.256C121.603,523.595,129.831,525.994,138.144,527.966z"/>
	</g>
	<g>
	</g>
</g>
<g id="XMLID_5_">
	<g>
		<path fill="#986C29" d="M50.558,374.219c-4.628-0.171-9.855,1.885-12.855,5.57c-7.627,9.341-8.827,2.485-11.141-3.599    c-2.485-6.771-4.713-13.541-4.885-24.082c0.257-5.742,7.027-10.798,13.026-15.169c4.713-3.428,10.37-0.257,14.74,3.685    c1.971,1.8,4.714,2.828,6.771,4.628c3.685,3.342,13.284,3.942,11.055,9.255C64.098,362.05,64.698,374.733,50.558,374.219z"/>
	</g>
	<g>
	</g>
</g>
<g id="XMLID_6_">
	<g>
		<path fill="#986C29" d="M692.624,190.649c-8.484-24.938-15.169-50.392-26.139-74.302c-0.942-2.143-1.971-4.285,1.628-5.656    c11.741-4.457,25.453,3.085,27.768,15.769c1.028,5.313,1.457,10.884,1.542,16.283    C697.681,158.854,695.109,174.709,692.624,190.649z"/>
	</g>
	<g>
	</g>
</g>
<path fill-rule="evenodd" clip-rule="evenodd" d="M681.098,223.433c6.562,5.126,12.479-2.126,20.411,0.431  c-12.293,3.682-8.359,13.825-10.369,24.534C686.999,238.521,684.996,231.019,681.098,223.433z"/>
<metadata><rdf:RDF><cc:Work><dc:format>image/svg+xml</dc:format><dc:type rdf:resource="http://purl.org/dc/dcmitype/StillImage"/><cc:license rdf:resource="http://creativecommons.org/licenses/publicdomain/"/><dc:publisher><cc:Agent rdf:about="http://openclipart.org/"><dc:title>Openclipart</dc:title></cc:Agent></dc:publisher><dc:title>Banana</dc:title><dc:date>2013-12-11T18:49:28</dc:date><dc:description>Two bananas</dc:description><dc:source>http://openclipart.org/detail/189450/banana-by-casino-189450</dc:source><dc:creator><cc:Agent><dc:title>casino</dc:title></cc:Agent></dc:creator><dc:subject><rdf:Bag><rdf:li>Banana</rdf:li></rdf:Bag></dc:subject></cc:Work><cc:License rdf:about="http://creativecommons.org/licenses/publicdomain/"><cc:permits rdf:resource="http://creativecommons.org/ns#Reproduction"/><cc:permits rdf:resource="http://creativecommons.org/ns#Distribution"/><cc:permits rdf:resource="http://creativecommons.org/ns#DerivativeWorks"/></cc:License></rdf:RDF></metadata></svg>
