<?xml version="1.0" encoding="UTF-8" standalone="no"?>
<!-- Created with Inkscape (http://www.inkscape.org/) -->
<svg xmlns:dc="http://purl.org/dc/elements/1.1/" xmlns:cc="http://creativecommons.org/ns#" xmlns:rdf="http://www.w3.org/1999/02/22-rdf-syntax-ns#" xmlns:svg="http://www.w3.org/2000/svg" xmlns="http://www.w3.org/2000/svg" xmlns:xlink="http://www.w3.org/1999/xlink" xmlns:sodipodi="http://sodipodi.sourceforge.net/DTD/sodipodi-0.dtd" xmlns:inkscape="http://www.inkscape.org/namespaces/inkscape" width="663.5603" height="630.24762" id="svg2" version="1.1" inkscape:version="0.48.4 r9939" sodipodi:docname="pumpkin.svg">
  <defs id="defs4">
    <linearGradient id="linearGradient3908">
      <stop style="stop-color:#ffffab;stop-opacity:1;" offset="0" id="stop3910"/>
      <stop style="stop-color:#ffff00;stop-opacity:1;" offset="1" id="stop3912"/>
    </linearGradient>
    <linearGradient id="linearGradient3900">
      <stop style="stop-color:#35df35;stop-opacity:1;" offset="0" id="stop3902"/>
      <stop style="stop-color:#2b522b;stop-opacity:1;" offset="1" id="stop3904"/>
    </linearGradient>
    <linearGradient id="linearGradient3892">
      <stop style="stop-color:#1dd01d;stop-opacity:1;" offset="0" id="stop3894"/>
      <stop style="stop-color:#2fa12f;stop-opacity:1;" offset="1" id="stop3896"/>
    </linearGradient>
    <linearGradient id="linearGradient3878">
      <stop style="stop-color:#e5ff00;stop-opacity:1;" offset="0" id="stop3880"/>
      <stop style="stop-color:#ffd100;stop-opacity:1;" offset="1" id="stop3882"/>
    </linearGradient>
    <linearGradient id="linearGradient3846">
      <stop style="stop-color:#ffc200;stop-opacity:1;" offset="0" id="stop3848"/>
      <stop style="stop-color:#ffa500;stop-opacity:1;" offset="1" id="stop3850"/>
    </linearGradient>
    <clipPath id="clipPath27661" clipPathUnits="userSpaceOnUse">
      <path id="path27663" d="m 208.884,757.604 1282.216,0 0,984.706 -1282.216,0 0,-984.706 z" inkscape:connector-curvature="0"/>
    </clipPath>
    <clipPath id="clipPath27657" clipPathUnits="userSpaceOnUse">
      <path id="path27659" d="m 208,757 1284,0 0,986 -1284,0 0,-986 z" inkscape:connector-curvature="0"/>
    </clipPath>
    <linearGradient inkscape:collect="always" xlink:href="#linearGradient3846" id="linearGradient3852" x1="1343.3175" y1="1328.7443" x2="1470.4717" y2="1347.8174" gradientUnits="userSpaceOnUse" gradientTransform="matrix(0.9298884,0,0,0.9298884,72.026554,126.29515)"/>
    <linearGradient inkscape:collect="always" xlink:href="#linearGradient3846" id="linearGradient3854" x1="1023.3126" y1="1555.5027" x2="1186.4939" y2="1563.9796" gradientUnits="userSpaceOnUse" gradientTransform="matrix(0.9298884,0,0,0.9298884,72.026554,126.29515)"/>
    <linearGradient inkscape:collect="always" xlink:href="#linearGradient3846" id="linearGradient3856" x1="726.61932" y1="1258.8093" x2="1029.6703" y2="1267.2864" gradientUnits="userSpaceOnUse" gradientTransform="matrix(0.9298884,0,0,0.9298884,72.026554,126.29515)"/>
    <linearGradient inkscape:collect="always" xlink:href="#linearGradient3846" id="linearGradient3858" x1="468.07233" y1="1290.5979" x2="610.06122" y2="1267.2864" gradientUnits="userSpaceOnUse" gradientTransform="matrix(0.9298884,0,0,0.9298884,72.026554,126.29515)"/>
    <linearGradient inkscape:collect="always" xlink:href="#linearGradient3846" id="linearGradient3860" x1="292.1756" y1="1294.8364" x2="385.42206" y2="1320.2673" gradientUnits="userSpaceOnUse" gradientTransform="matrix(0.9298884,0,0,0.9298884,72.026554,126.29515)"/>
    <linearGradient inkscape:collect="always" xlink:href="#linearGradient3878" id="linearGradient3884" x1="523.17249" y1="1055.3625" x2="1356.0266" y2="1289.0446" gradientUnits="userSpaceOnUse" gradientTransform="matrix(0.9298884,0,0,0.9298884,72.026554,126.29515)"/>
    <linearGradient inkscape:collect="always" xlink:href="#linearGradient3878" id="linearGradient3886" x1="1067.5828" y1="1489.5908" x2="1209.1936" y2="1216.1095" gradientUnits="userSpaceOnUse" gradientTransform="matrix(0.9298884,0,0,0.9298884,72.026554,126.29515)"/>
    <linearGradient inkscape:collect="always" xlink:href="#linearGradient3878" id="linearGradient3888" x1="856.4458" y1="1300.7347" x2="912.06128" y2="1237.0474" gradientUnits="userSpaceOnUse" gradientTransform="matrix(0.9298884,0,0,0.9298884,72.026554,126.29515)"/>
    <linearGradient inkscape:collect="always" xlink:href="#linearGradient3878" id="linearGradient3890" x1="587.30481" y1="1478.3518" x2="718.42596" y2="1251.325" gradientUnits="userSpaceOnUse" gradientTransform="matrix(0.9298884,0,0,0.9298884,72.026554,126.29515)"/>
    <linearGradient inkscape:collect="always" xlink:href="#linearGradient3892" id="linearGradient3898" x1="815.08099" y1="1758.5765" x2="870.52649" y2="1730.1045" gradientUnits="userSpaceOnUse" gradientTransform="matrix(0.9298884,0,0,0.9298884,72.026554,126.29515)"/>
    <linearGradient inkscape:collect="always" xlink:href="#linearGradient3900" id="linearGradient3906" x1="771.62372" y1="1734.6" x2="952.9455" y2="1677.656" gradientUnits="userSpaceOnUse" gradientTransform="matrix(0.9298884,0,0,0.9298884,72.026554,126.29515)"/>
    <radialGradient inkscape:collect="always" xlink:href="#linearGradient3908" id="radialGradient3914" cx="965.41608" cy="1034.8413" fx="965.41608" fy="1034.8413" r="348.24723" gradientTransform="matrix(-1.34046,1.8359782,-1.5430849,-1.1267022,3780.8295,594.87788)" gradientUnits="userSpaceOnUse"/>
    <filter inkscape:collect="always" id="filter3938" x="-0.03919656" width="1.0783931" y="-0.31222088" height="1.6244418">
      <feGaussianBlur inkscape:collect="always" stdDeviation="7.8214331" id="feGaussianBlur3940"/>
    </filter>
    <filter inkscape:collect="always" id="filter3984">
      <feGaussianBlur inkscape:collect="always" stdDeviation="4.5101393" id="feGaussianBlur3986"/>
    </filter>
    <filter inkscape:collect="always" id="filter3988" x="-0.10779236" width="1.2155847" y="-0.069658273" height="1.1393165">
      <feGaussianBlur inkscape:collect="always" stdDeviation="4.5101393" id="feGaussianBlur3990"/>
    </filter>
    <filter inkscape:collect="always" id="filter3992" x="-0.057461299" width="1.1149226" y="-0.11096256" height="1.2219251">
      <feGaussianBlur inkscape:collect="always" stdDeviation="4.5101393" id="feGaussianBlur3994"/>
    </filter>
    <filter inkscape:collect="always" id="filter4034">
      <feGaussianBlur inkscape:collect="always" stdDeviation="1.0233881" id="feGaussianBlur4036"/>
    </filter>
    <filter inkscape:collect="always" id="filter4052" x="-0.036768559" width="1.0735371" y="-0.23034513" height="1.4606903">
      <feGaussianBlur inkscape:collect="always" stdDeviation="6.9160983" id="feGaussianBlur4054"/>
    </filter>
  </defs>
  <sodipodi:namedview id="base" pagecolor="#ffffff" bordercolor="#666666" borderopacity="1.0" inkscape:pageopacity="0.0" inkscape:pageshadow="2" inkscape:zoom="0.34107303" inkscape:cx="358.10453" inkscape:cy="561.38871" inkscape:document-units="px" inkscape:current-layer="g11725" showgrid="false" inkscape:window-width="1351" inkscape:window-height="826" inkscape:window-x="0" inkscape:window-y="24" inkscape:window-maximized="0" fit-margin-top="0" fit-margin-left="0" fit-margin-right="0" fit-margin-bottom="0"/>
  <g inkscape:label="Layer 1" inkscape:groupmode="layer" id="layer1" transform="translate(-40.894427,-150.582)">
    <g transform="matrix(0.48913414,0,0,-0.48913414,-54.335424,1112.5302)" inkscape:label="openclipart-coloring-books-2013-03-seasons-holidays" id="g11725">
      <path sodipodi:type="arc" style="fill:#000000;fill-opacity:0.4017857;stroke:none;filter:url(#filter3938)" id="path3916" sodipodi:cx="326.52631" sodipodi:cy="550.43005" sodipodi:rx="239.45264" sodipodi:ry="30.061153" d="m 565.97894,550.43005 a 239.45264,30.061153 0 1 1 -478.905271,0 239.45264,30.061153 0 1 1 478.905271,0 z" transform="matrix(2.044429,0,0,-6.5355231,207.4061,4571.7358)"/>
      <g id="g11727"/>
      <g style="opacity:0.50290001" clip-path="url(#clipPath27657)" id="g27667" transform="matrix(0.91924466,0,0,0.91924466,107.02311,95.57244)">
        <g id="g27669"/>
        <g id="g27671">
          <g clip-path="url(#clipPath27661)" id="g27673">
            <path inkscape:connector-curvature="0" d="m 630.7207,1720.369 c 0,0 -45.734,18.265 -101.494,3.649 -119.768,-31.396 -237.129,-141.298 -285.067,-269.991 -89.72,-240.852 3.098,-512.7199 150.299,-584.2939 50.953,-17.821 84.514,6.852 84.514,6.852 0,0 15.113,-20.889 41.115,-41.114 40.809,-32.46 108.99,-40.775 150.756,-29.695 39.742,-35.173 96.324,-45.941 164.461,-47.969 62.246,-2.137 115.805,12.626 143.904,41.116 0,0 41.0653,-17.47 70.8113,-15.989 74.767,3.721 130.16,41.448 152.847,80.592 0,0 37.86,-17.214 84.821,6.778 162.103,82.815 282.865,356.7939 139.791,654.6479 -58.908,122.641 -187.965,186.957 -274.858,203.256 -63.845,11.977 -123.943,25.922 -236.8063,-2.964 -98.188,16.042 -176.692,17.995 -285.094,-4.875" style="fill:#ffffff;fill-opacity:1;fill-rule:nonzero;stroke:none" id="path27675"/>
          </g>
        </g>
      </g>
      <path id="path27677" style="fill:#000000;fill-opacity:1;fill-rule:nonzero;stroke:none" d="m 724.34977,839.05284 1.00933,-0.89259 c 17.07221,-15.10871 38.26171,-25.8795 64.78101,-32.92643 23.17323,-6.1571 50.12089,-9.50591 84.80767,-10.53822 3.59792,-0.12317 7.20872,-0.18569 10.74413,-0.18569 52.71593,0 96.335,13.57081 119.67369,37.234 l 1.1997,1.21709 1.5746,-0.66921 c 0.3429,-0.14616 34.5943,-14.57922 60.7256,-14.57922 1.1114,0 2.2072,0.0258 3.257,0.079 31.5181,1.56823 61.6326,10.04183 87.0874,24.50522 22.4572,12.76004 40.7004,29.92325 51.3665,48.32745 l 1.1426,1.97086 2.0729,-0.94315 c 0.1148,-0.0506 11.8858,-5.27003 29.8093,-5.27003 15.6363,0 31.1054,3.85256 45.9787,11.45104 76.7385,39.20486 139.6085,123.39394 168.1749,225.20504 15.6703,55.8551 20.8282,114.8275 15.3293,175.2778 -6.0431,66.4146 -24.9253,133.0221 -56.1245,197.9722 -24.1301,50.2368 -64.1761,94.8688 -115.8064,129.0712 -41.5618,27.5323 -90.7864,48.0848 -135.0517,56.3883 -2.8314,0.5313 -5.6562,1.0664 -8.4764,1.6014 -30.7083,5.8224 -59.7132,11.3232 -96.1511,11.3232 -34.2953,0 -70.92017,-5.1073 -111.96996,-15.6143 l -0.50835,-0.1306 -0.51937,0.086 c -47.23631,7.718 -84.98141,11.1586 -122.38456,11.1586 -44.16143,0 -88.25484,-4.963 -138.76274,-15.6188 l -0.74367,-0.1562 -0.70782,0.2812 c -0.20959,0.084 -21.41656,8.3862 -51.44645,8.3862 -13.7473,0 -27.29971,-1.7254 -40.28221,-5.1284 -109.91777,-28.8137 -216.9684,-130.2331 -260.32734,-246.6343 -19.73709,-52.9797 -30.52902,-109.2558 -32.07796,-167.2638 -1.44596,-54.1196 5.13307,-107.3044 19.54959,-158.0789 13.74362,-48.3973 34.52958,-92.9652 60.11032,-128.88471 25.84456,-36.28903 56.6843,-63.83787 89.19155,-79.6783 10.96291,-3.81854 21.95064,-5.75447 32.65984,-5.75447 26.17549,0 42.41487,11.63764 42.57666,11.7553 l 2.03796,1.48826 1.48275,-2.04165 c 0.13788,-0.18936 13.98998,-19.15153 37.3011,-37.28456 24.07594,-19.14878 62.65389,-31.03369 100.69866,-31.03369 13.03857,0 25.38127,1.44596 35.69611,4.18256 l 1.30166,0.34564 z m 161.34214,-49.57028 c -3.59333,0 -7.26111,0.0634 -10.90592,0.18845 -35.06918,1.04335 -62.38086,4.44455 -85.9365,10.70369 -26.77668,7.11587 -48.32102,17.9602 -65.81425,33.13692 -10.45641,-2.62903 -22.75774,-4.01526 -35.68324,-4.01526 -39.72148,0 -78.52739,12.00442 -103.80662,32.11106 -19.7849,15.38908 -32.65065,31.0052 -36.81483,36.36807 -5.36655,-3.30192 -20.79607,-11.36186 -43.47568,-11.36186 -11.32141,0 -22.914,2.04624 -34.45696,6.08357 l -0.26934,0.11214 c -33.30975,16.19709 -64.85363,44.3269 -91.22032,81.34855 -25.91168,36.38191 -46.95318,81.48291 -60.85216,130.42711 -14.55624,51.2645 -21.19778,104.9576 -19.73802,159.5865 1.56363,58.5632 12.46127,115.3845 32.39234,168.8854 21.67763,58.1974 58.64138,113.035 106.89252,158.5844 47.31996,44.6698 103.03078,77.0438 156.87187,91.1569 13.39707,3.5125 27.3797,5.293 41.55628,5.293 28.27046,0 48.50763,-6.9503 52.5854,-8.4662 50.55478,10.6247 94.76769,15.5747 139.07528,15.5747 37.54655,0 75.40472,-3.437 122.67596,-11.1403 41.25662,10.5235 78.12708,15.6401 112.70628,15.6401 36.9104,0 67.5019,-5.8014 97.0878,-11.4106 2.8175,-0.5341 5.6378,-1.0691 8.4654,-1.5995 44.9032,-8.423 94.8007,-29.2485 136.9012,-57.1384 52.3878,-34.7033 93.0395,-80.0322 117.5631,-131.0862 31.4584,-65.4925 50.5024,-132.6791 56.5997,-199.6929 5.5551,-61.0627 0.3411,-120.6454 -15.4957,-177.0925 -28.9387,-103.1375 -92.7619,-188.49224 -170.7285,-228.32403 -15.5876,-7.96341 -31.827,-12.00074 -48.2658,-12.00074 -14.7631,0 -25.4585,3.28263 -29.7854,4.87844 -11.2342,-18.452 -29.6585,-35.54444 -52.1203,-48.30723 -26.1359,-14.8504 -57.0244,-23.54921 -89.323,-25.15605 -1.1316,-0.057 -2.3128,-0.0855 -3.507,-0.0855 -24.2211,0 -53.9425,11.42161 -61.1245,14.33194 -24.54113,-23.87463 -68.87722,-37.53368 -122.04909,-37.53368" inkscape:connector-curvature="0"/>
      <path id="path27679" style="fill:url(#linearGradient3852);fill-opacity:1;fill-rule:nonzero;stroke:none" d="m 686.80975,1677.0125 c 0,0 -42.04074,16.79 -93.29783,3.3543 -110.09609,-28.8606 -217.97956,-129.8874 -262.04631,-248.1878 -82.47463,-221.4018 2.84782,-471.31503 138.16155,-537.10905 46.83827,-16.38186 77.68904,6.29866 77.68904,6.29866 0,0 13.89254,-19.2021 37.79475,-37.79383 37.51345,-29.83867 100.18847,-37.4822 138.58165,-27.29696 36.53262,-32.33259 88.54532,-42.23102 151.17989,-44.09525 57.2193,-1.96442 106.45313,11.60638 132.28301,37.79566 0,0 37.7491,-16.0592 65.0929,-14.6978 68.7292,3.42051 119.6489,38.10085 140.5038,74.08377 0,0 34.8026,-15.82389 77.9712,6.23064 149.0123,76.12724 260.0222,327.98096 128.5021,601.78166 -54.1508,112.7371 -172.7858,171.8592 -252.6617,186.842 -58.6892,11.0098 -113.9339,23.8287 -217.68292,-2.7247 -90.2588,14.7466 -162.42318,16.5418 -262.07113,-4.4813" inkscape:connector-curvature="0"/>
      <path id="path27681" style="fill:#9c6d0d;fill-opacity:1;fill-rule:nonzero;stroke:none" d="m 724.34977,839.05284 1.00933,-0.89259 c 17.07221,-15.10871 38.26171,-25.8795 64.78101,-32.92643 23.17323,-6.1571 50.12089,-9.50591 84.80767,-10.53822 3.59792,-0.12317 7.20872,-0.18569 10.74413,-0.18569 52.71593,0 96.335,13.57081 119.67369,37.234 l 1.1997,1.21709 1.5746,-0.66921 c 0.3429,-0.14616 34.5943,-14.57922 60.7256,-14.57922 1.1114,0 2.2072,0.0258 3.257,0.079 31.5181,1.56823 61.6326,10.04183 87.0874,24.50522 22.4572,12.76004 40.7004,29.92325 51.3665,48.32745 l 1.1426,1.97086 2.0729,-0.94315 c 0.1148,-0.0506 11.8858,-5.27003 29.8093,-5.27003 15.6363,0 31.1054,3.85256 45.9787,11.45104 76.7385,39.20486 139.6085,123.39394 168.1749,225.20504 15.6703,55.8551 20.8282,114.8275 15.3293,175.2778 -6.0431,66.4146 -24.9253,133.0221 -56.1245,197.9722 -24.1301,50.2368 -64.1761,94.8688 -115.8064,129.0712 -41.5618,27.5323 -90.7864,48.0848 -135.0517,56.3883 -2.8314,0.5313 -5.6562,1.0664 -8.4764,1.6014 -30.7083,5.8224 -59.7132,11.3232 -96.1511,11.3232 -34.2953,0 -70.92017,-5.1073 -111.96996,-15.6143 l -0.50835,-0.1306 -0.51937,0.086 c -47.23631,7.718 -84.98141,11.1586 -122.38456,11.1586 -44.16143,0 -88.25484,-4.963 -138.76274,-15.6188 l -0.74367,-0.1562 -0.70782,0.2812 c -0.20959,0.084 -21.41656,8.3862 -51.44645,8.3862 -13.7473,0 -27.29971,-1.7254 -40.28221,-5.1284 -109.91777,-28.8137 -216.9684,-130.2331 -260.32734,-246.6343 -19.73709,-52.9797 -30.52902,-109.2558 -32.07796,-167.2638 -1.44596,-54.1196 5.13307,-107.3044 19.54959,-158.0789 13.74362,-48.3973 34.52958,-92.9652 60.11032,-128.88471 25.84456,-36.28903 56.6843,-63.83787 89.19155,-79.6783 10.96291,-3.81854 21.95064,-5.75447 32.65984,-5.75447 26.17549,0 42.41487,11.63764 42.57666,11.7553 l 2.03796,1.48826 1.48275,-2.04165 c 0.13788,-0.18936 13.98998,-19.15153 37.3011,-37.28456 24.07594,-19.14878 62.65389,-31.03369 100.69866,-31.03369 13.03857,0 25.38127,1.44596 35.69611,4.18256 l 1.30166,0.34564 z m 161.34214,-49.57028 c -3.59333,0 -7.26111,0.0634 -10.90592,0.18845 -35.06918,1.04335 -62.38086,4.44455 -85.9365,10.70369 -26.77668,7.11587 -48.32102,17.9602 -65.81425,33.13692 -10.45641,-2.62903 -22.75774,-4.01526 -35.68324,-4.01526 -39.72148,0 -78.52739,12.00442 -103.80662,32.11106 -19.7849,15.38908 -32.65065,31.0052 -36.81483,36.36807 -5.36655,-3.30192 -20.79607,-11.36186 -43.47568,-11.36186 -11.32141,0 -22.914,2.04624 -34.45696,6.08357 l -0.26934,0.11214 c -33.30975,16.19709 -64.85363,44.3269 -91.22032,81.34855 -25.91168,36.38191 -46.95318,81.48291 -60.85216,130.42711 -14.55624,51.2645 -21.19778,104.9576 -19.73802,159.5865 1.56363,58.5632 12.46127,115.3845 32.39234,168.8854 21.67763,58.1974 58.64138,113.035 106.89252,158.5844 47.31996,44.6698 103.03078,77.0438 156.87187,91.1569 13.39707,3.5125 27.3797,5.293 41.55628,5.293 28.27046,0 48.50763,-6.9503 52.5854,-8.4662 50.55478,10.6247 94.76769,15.5747 139.07528,15.5747 37.54655,0 75.40472,-3.437 122.67596,-11.1403 41.25662,10.5235 78.12708,15.6401 112.70628,15.6401 36.9104,0 67.5019,-5.8014 97.0878,-11.4106 2.8175,-0.5341 5.6378,-1.0691 8.4654,-1.5995 44.9032,-8.423 94.8007,-29.2485 136.9012,-57.1384 52.3878,-34.7033 93.0395,-80.0322 117.5631,-131.0862 31.4584,-65.4925 50.5024,-132.6791 56.5997,-199.6929 5.5551,-61.0627 0.3411,-120.6454 -15.4957,-177.0925 -28.9387,-103.1375 -92.7619,-188.49224 -170.7285,-228.32403 -15.5876,-7.96341 -31.827,-12.00074 -48.2658,-12.00074 -14.7631,0 -25.4585,3.28263 -29.7854,4.87844 -11.2342,-18.452 -29.6585,-35.54444 -52.1203,-48.30723 -26.1359,-14.8504 -57.0244,-23.54921 -89.323,-25.15605 -1.1316,-0.057 -2.3128,-0.0855 -3.507,-0.0855 -24.2211,0 -53.9425,11.42161 -61.1245,14.33194 -24.54113,-23.87463 -68.87722,-37.53368 -122.04909,-37.53368" inkscape:connector-curvature="0"/>
      <path id="path27683" style="fill:url(#linearGradient3860);fill-opacity:1;fill-rule:nonzero;stroke:none" d="m 829.18851,1692.6903 c -44.25795,0.2325 -89.4471,-4.5035 -142.3864,-15.6732 0,0 -42.0297,16.7753 -93.28863,3.3396 -110.09425,-28.8606 -217.96485,-129.8663 -262.0316,-248.1685 -82.4728,-221.4028 2.82943,-471.30934 138.14592,-537.10245 46.83827,-16.38093 77.69365,6.28489 77.69365,6.28489 0,0 13.88243,-19.19475 37.78462,-37.78556 37.51438,-29.83684 100.1848,-37.48496 138.57797,-27.29972 33.07994,-29.27703 78.88774,-40.14434 133.74459,-43.32492 l 0,898.90436 c -9.41215,0.4862 -18.80683,0.7749 -28.24012,0.8255" inkscape:connector-curvature="0"/>
      <path id="path27685" style="fill:#7c570b;fill-opacity:0.93333334;fill-rule:nonzero;stroke:none" d="m 724.34076,839.06092 1.00933,-0.89258 c 28.87347,-25.55501 68.9075,-38.71399 129.56477,-42.53713 l 0,893.84259 c -8.80636,0.4229 -17.45278,0.6591 -25.73885,0.7032 -45.14502,0.2426 -90.14664,-4.7093 -141.85416,-15.6188 l -0.74367,-0.1563 -0.70598,0.2803 c -0.21142,0.085 -21.40277,8.3752 -51.41611,8.3752 -13.75466,0 -27.31535,-1.7272 -40.3052,-5.1321 -109.91409,-28.8137 -216.9592,-130.2247 -260.31354,-246.614 -19.73434,-52.9807 -30.52904,-109.2568 -32.0798,-167.264 -1.44689,-54.1187 5.12938,-107.3033 19.54498,-158.0769 13.73995,-48.3974 34.52315,-92.9635 60.10389,-128.88213 25.84365,-36.28903 56.68155,-63.83695 89.1888,-79.67738 10.96658,-3.82038 21.95983,-5.7563 32.67455,-5.7563 26.17273,0 42.40567,11.62661 42.56654,11.74426 l 2.03796,1.48734 1.48367,-2.04164 c 0.13604,-0.18936 13.97895,-19.14327 37.29008,-37.27537 24.07961,-19.15062 62.65755,-31.03646 100.70049,-31.03646 13.03489,0 25.37575,1.44597 35.6906,4.18257 l 1.30165,0.34563 z m 135.60146,-48.76408 -2.65938,0.15442 c -62.64837,3.63194 -104.14215,16.92974 -134.25844,43.06845 -10.45274,-2.62903 -22.75314,-4.01526 -35.67589,-4.01526 -39.71964,0 -78.52556,12.00534 -103.80846,32.1129 -19.78307,15.38816 -32.64422,30.99877 -36.80563,36.36072 -5.36656,-3.29917 -20.79056,-11.35083 -43.46465,-11.35083 -11.32694,0 -22.92596,2.04716 -34.47168,6.08539 l -0.26933,0.11216 c -33.30976,16.19617 -64.85364,44.32597 -91.21757,81.34671 -25.90892,36.3819 -46.9495,81.4822 -60.84573,130.4255 -14.55532,51.2636 -21.19503,104.9557 -19.73342,159.5846 1.56547,58.5623 12.46587,115.3835 32.39418,168.8846 21.67762,58.1973 58.63769,113.0321 106.8861,158.5751 47.31444,44.6634 103.02158,77.0327 156.86358,91.1478 13.40626,3.5133 27.39625,5.2957 41.58019,5.2957 28.25575,0 48.47913,-6.9412 52.55322,-8.4543 51.76083,10.8783 96.88839,15.8221 142.19336,15.5739 9.10972,-0.048 18.65056,-0.3273 28.35502,-0.8292 l 2.38453,-0.1232 0,-903.95516 z" inkscape:connector-curvature="0"/>
      <path id="path27687" style="fill:url(#linearGradient3854);fill-opacity:1;fill-rule:nonzero;stroke:none" d="m 951.74074,1672.6571 c -12.88872,0.057 -25.93649,-0.5818 -39.16166,-1.8468 l -19.87499,-19.8354 c 0,0 99.23246,-163.1558 127.89361,-354.9654 21.7624,-145.6442 -16.1622,-378.65137 -35.70532,-482.54531 8.60781,4.76904 16.11432,10.25601 22.27062,16.49677 0,0 37.7434,-16.05094 65.0872,-14.69046 68.7274,3.42051 119.6434,38.09994 140.502,74.08101 0,0 0.2712,-0.0984 0.3125,-0.11766 46.6214,125.04305 101.8891,291.32585 93.4458,404.49225 -31.3122,288.0325 -202.6925,378.2536 -354.76976,378.931" inkscape:connector-curvature="0"/>
      <path id="path27689" style="fill:#7c570b;fill-opacity:0.93333334;fill-rule:nonzero;stroke:none" d="m 1006.5741,832.94354 1.5728,-0.66922 c 0.3429,-0.14524 34.5864,-14.57186 60.7169,-14.57186 1.1131,0 2.2098,0.0267 3.2605,0.079 31.5181,1.56823 61.6308,10.04183 87.0856,24.50523 22.4553,12.75819 40.6977,29.92049 51.3665,48.32561 l 0.8926,1.53882 c 91.4317,245.71158 96.6116,346.74018 92.533,401.38838 -14.2557,131.1229 -58.4208,230.5833 -131.2636,295.5344 -74.6041,66.5238 -161.365,80.8043 -221.00832,81.07 l -1.58938,0 c -11.7268,0 -23.97757,-0.5892 -36.42506,-1.753 l -17.84806,-17.814 c 4.96116,-8.3992 27.40728,-47.2777 52.33812,-104.1495 25.96498,-59.2307 60.0313,-150.6927 74.8789,-250.0493 9.4901,-63.5198 8.7005,-150.1743 -2.3504,-257.5576 -8.7918,-85.44402 -22.25042,-166.11417 -32.35843,-220.4112 6.56064,4.04928 12.26273,8.51405 16.99683,13.31435 l 1.2015,1.21707 z m -25.14139,-24.26899 0.99003,5.2544 c 10.1889,54.16926 24.23956,137.24691 33.31156,225.40905 11.0051,106.9652 11.8066,193.1967 2.3772,256.3001 -14.7658,98.8096 -48.6685,189.8222 -74.51122,248.7734 -27.99928,63.8737 -52.79498,104.8508 -53.04318,105.2581 l -1.02679,1.6886 21.91112,21.8698 0.89718,0.086 c 12.9163,1.2355 25.63314,1.8615 37.80209,1.8615 l 1.61052,0 c 60.51198,-0.2694 148.55348,-14.7742 224.33328,-82.3451 34.8503,-31.075 63.5988,-70.5778 85.4465,-117.4105 24.0143,-51.475 39.9871,-112.5118 47.478,-181.4175 8.6198,-115.4884 -49.2853,-286.8137 -93.5891,-405.64262 l -0.9515,-2.5555 -0.7087,0.33185 c -19.5864,-32.01178 -67.7428,-69.70725 -141.3862,-73.37227 -1.1326,-0.0561 -2.3138,-0.0846 -3.5097,-0.0846 -24.2221,0 -53.9393,11.41702 -61.1158,14.32551 -5.9568,-5.78849 -13.228,-11.07598 -21.63817,-15.73563 l -4.67712,-2.59044 z" inkscape:connector-curvature="0"/>
      <path id="path27691" style="fill:url(#linearGradient3858);fill-opacity:1;fill-rule:nonzero;stroke:none" d="m 825.57615,1681.0636 c -16.45079,-0.2426 -54.12788,-19.0504 -54.12788,-19.0504 0,0 -332.90445,22.0296 -326.29232,-350.5669 3.59056,-202.2686 55.28245,-333.03276 101.77233,-410.34951 0.079,0.0542 0.39344,0.27577 0.39344,0.27577 0,0 13.88335,-19.19566 37.78739,-37.78647 37.51161,-29.83592 100.18388,-37.48495 138.57613,-27.29973 14.63438,-12.95123 31.77369,-22.31007 51.06312,-28.98653 -15.81928,38.01903 -35.71081,108.11052 -49.57119,235.16457 -26.45494,242.5179 33.0588,542.3764 90.38106,606.3135 22.39372,24.9722 20.56442,32.4411 10.01792,32.2857" inkscape:connector-curvature="0"/>
      <path id="path27693" style="fill:#7c570b;fill-opacity:0.93333334;fill-rule:nonzero;stroke:none" d="m 724.34259,839.06184 1.00934,-0.89258 c 12.63042,-11.17894 27.37785,-19.90533 44.94371,-26.58088 -25.56971,64.69551 -39.98347,160.62145 -47.6178,230.60392 -12.00718,110.073 -6.97982,245.2268 13.79234,370.8076 18.93461,114.4626 48.52142,205.4512 77.21472,237.4574 17.74419,19.7859 17.29559,25.419 16.73485,26.6738 -0.55247,1.2373 -3.07303,1.4221 -4.52544,1.4221 l -0.28221,0 c -15.69518,-0.2317 -52.66812,-18.601 -53.0395,-18.7857 l -0.60854,-0.3043 -0.68116,0.045 c -0.0358,0 -3.73948,0.241 -10.20637,0.241 -33.00089,0 -146.94494,-6.3787 -227.57373,-88.4526 -58.95024,-60.0046 -87.82739,-147.4146 -85.83354,-259.8024 1.62154,-91.3315 13.29687,-175.9112 34.70332,-251.3904 16.37818,-57.7482 38.35181,-110.01372 65.32612,-155.39132 l 0.205,0.14433 1.45424,-2.00763 c 0.13604,-0.18937 13.98079,-19.14419 37.29375,-37.2763 24.07778,-19.15062 62.65388,-31.03645 100.69866,-31.03645 13.03489,0 25.37575,1.44597 35.69059,4.18256 l 1.30165,0.34564 z m 54.87983,-35.97096 -5.29668,1.83297 c -20.07172,6.94673 -36.73486,16.30741 -50.8995,28.59678 -10.45274,-2.62811 -22.75315,-4.01433 -35.67589,-4.01433 -39.71964,0 -78.52556,12.00441 -103.80663,32.11197 -19.72239,15.33943 -32.56515,30.90041 -36.76794,36.30924 l -0.61774,-0.42837 -1.38438,2.30271 c -27.83565,46.29409 -50.45917,99.7647 -67.23722,158.92665 -21.52504,75.8966 -33.26564,160.9083 -34.89362,252.6738 -2.0205,113.7877 27.34385,202.413 87.27217,263.415 82.00123,83.4693 197.66426,89.9564 231.16154,89.9564 5.09721,0 8.48003,-0.1416 9.85154,-0.2124 5.1009,2.5105 38.74065,18.7821 54.61049,19.0164 l 0.35575,0 c 4.74514,0 7.81358,-1.4799 9.11707,-4.4004 3.29457,-7.3806 -7.66466,-21.0212 -17.5824,-32.0798 -28.09119,-31.3325 -57.21103,-121.3495 -75.99763,-234.9212 -20.70139,-125.1478 -25.71587,-259.8043 -13.75466,-369.4417 7.80806,-71.5773 22.71546,-170.35749 49.39286,-234.47205 l 2.15287,-5.17443 z" inkscape:connector-curvature="0"/>
      <path id="path27695" style="fill:url(#linearGradient3856);fill-opacity:1;fill-rule:nonzero;stroke:none" d="m 858.01906,1690.0198 c -16.57674,-0.2114 -36.05921,-8.6584 -60.52674,-29.1464 -77.99516,-65.2977 -145.23699,-144.3619 -143.29094,-428.0638 1.52686,-222.9021 46.73991,-345.54597 78.32148,-403.67257 35.88455,-26.66913 84.59533,-35.24384 142.34595,-36.96098 57.21931,-1.96627 106.46324,11.59718 132.29409,37.78555 0,0 0.3769,-0.1572 0.4706,-0.19489 22.5089,67.49922 62.5126,224.15509 49.2589,457.44559 -14.7244,259.1149 -123.35004,348.2531 -150.55876,377.2746 -14.45328,15.4185 -29.52797,25.771 -48.31458,25.5329" inkscape:connector-curvature="0"/>
      <path id="path27697" style="fill:#7c570b;fill-opacity:0.93333334;fill-rule:nonzero;stroke:none" d="m 734.46688,830.82587 c 31.25248,-23.02984 74.61325,-34.17844 140.47713,-36.13735 3.60344,-0.12318 7.21975,-0.18569 10.75792,-0.18569 52.71868,0 96.33776,13.56714 119.67097,37.2239 l 0.3953,0.40079 c 23.9835,72.50082 61.5788,226.74628 48.6138,454.94138 -13.5497,238.4539 -107.07781,332.5202 -142.28763,367.9323 -2.9517,2.9682 -5.50077,5.532 -7.59572,7.7658 -16.03991,17.1117 -30.17881,24.7424 -45.84549,24.7424 l -0.60211,0 c -16.9711,-0.216 -36.25225,-9.5574 -58.94473,-28.5591 -34.45512,-28.8459 -73.50832,-65.1488 -100.9156,-131.1679 -28.79442,-69.3589 -42.36063,-165.8391 -41.47539,-294.9526 0.67656,-98.7839 10.03815,-187.2933 27.82369,-263.06929 15.96452,-68.01583 35.90937,-113.02849 49.92786,-138.93096 m 151.23505,-41.3513 c -3.59608,0 -7.26939,0.0634 -10.91879,0.18936 -67.25562,1.99935 -111.59722,13.5515 -143.75975,37.45554 l -0.44491,0.33093 -0.26658,0.48628 c -14.17568,26.0946 -34.47444,71.68178 -50.66786,140.67109 -17.87103,76.14095 -27.27766,165.02545 -27.95606,264.18435 -0.89075,129.7992 12.80139,226.921 41.85964,296.9142 27.84116,67.0681 67.41925,103.8672 102.33124,133.0947 23.61631,19.7748 43.93162,29.5004 62.10785,29.732 l 0.66645,0.01 c 17.17241,0 32.44289,-8.1206 49.51327,-26.3318 2.04532,-2.1804 4.56957,-4.7194 7.49369,-7.6601 35.57752,-35.7824 130.08458,-130.8314 143.74088,-371.191 13.1057,-230.6881 -25.3141,-386.21033 -49.3832,-458.3839 l -0.8457,-2.53712 -1.4184,0.57269 C 983.21908,803.1419 938.88024,789.48284 885.70193,789.48284" inkscape:connector-curvature="0"/>
      <path id="path27699" style="fill:url(#linearGradient3906);fill-opacity:1;fill-rule:nonzero;stroke:none" d="m 764.8504,1626.7197 c 0,0 41.88814,13.2279 72.75453,15.4323 30.86732,2.2043 68.34768,-8.8202 83.77904,-11.0245 15.43137,-2.2053 24.2506,-6.614 24.2506,-6.614 0,0 -4.40962,22.0472 4.41145,30.8665 8.81924,8.8183 15.4332,17.6374 15.4332,17.6374 0,0 -101.41843,22.0482 -79.37126,116.849 10.99876,47.2923 46.29959,92.5973 46.29959,92.5973 0,0 -1.23638,19.6038 -13.22793,22.0481 -11.01714,2.2457 -33.07166,6.614 -33.07166,6.614 l -15.4332,-8.8183 c 0,0 -54.45237,-80.1196 -68.34584,-156.5346 -8.81831,-48.5039 -30.86456,-68.3468 -30.86456,-68.3468 l -59.52844,-17.6374 c 0,0 35.27693,-4.4087 44.09524,-13.228 8.81924,-8.8192 8.81924,-19.841 8.81924,-19.841" inkscape:connector-curvature="0"/>
      <path id="path27701" style="fill:#002f00;fill-opacity:1;fill-rule:nonzero;stroke:none" d="m 846.0868,1644.9557 c 20.97166,0 43.45546,-4.7746 59.87132,-8.2604 6.3667,-1.3522 11.86378,-2.5196 15.78161,-3.0794 9.54083,-1.3624 16.60339,-3.5401 20.75285,-5.076 -0.83835,7.2858 -1.37151,21.4716 5.77563,28.6178 5.52097,5.522 10.19626,11.0824 12.85011,14.3752 -11.88215,3.3038 -48.07557,15.5858 -67.82003,46.7942 -12.81335,20.2528 -16.05736,44.5135 -9.6392,72.1092 10.19627,43.8415 41.38256,86.4338 46.15252,92.7683 -0.40722,3.6301 -2.49207,17.0823 -11.13482,18.8436 -9.60702,1.9589 -27.84299,5.5779 -32.1377,6.4292 l -14.10489,-8.0599 c -4.49603,-6.7492 -54.54614,-83.1228 -67.63252,-155.0941 -8.86978,-48.788 -30.73034,-68.9323 -31.65694,-69.7651 l -0.42194,-0.3806 -49.35699,-14.6243 c 11.47309,-2.0803 28.27964,-6.0523 34.44317,-12.2149 6.5101,-6.5101 8.58575,-14.08 9.24576,-18.3197 10.14938,3.0355 44.30576,12.7785 70.37094,14.6409 2.75222,0.1967 5.66622,0.296 8.66112,0.296 m 103.01424,-24.986 -4.58887,2.2935 c -0.0846,0.042 -8.70708,4.2644 -23.48395,6.3759 -4.0842,0.5828 -9.6585,1.7668 -16.11343,3.1383 -16.19801,3.4398 -38.38398,8.151 -58.82799,8.151 -2.87631,0 -5.6699,-0.096 -8.30354,-0.2841 -30.20913,-2.1574 -71.76082,-15.1906 -72.17725,-15.322 l -3.26883,-1.0323 0,3.4297 c -0.002,0.093 -0.15627,10.1356 -8.08292,18.0641 -6.7353,6.7335 -33.05695,11.314 -42.62997,12.51 l -11.92536,1.4901 70.46378,20.8788 c 2.91768,2.9029 21.78886,23.0905 29.69253,66.5597 13.83003,76.0583 68.19324,156.6926 68.74019,157.4979 l 0.32725,0.4817 16.75232,9.5721 0.92108,-0.1829 c 0.22154,-0.043 22.18781,-4.3949 33.08453,-6.6159 13.71973,-2.7963 15.17949,-23.4747 15.23556,-24.3535 l 0.0606,-0.9505 -0.58648,-0.7529 c -0.34839,-0.4485 -35.09125,-45.4327 -45.83354,-91.6211 -6.10195,-26.2362 -3.07671,-49.209 8.9893,-68.2824 22.23285,-35.1391 68.00663,-45.441 68.46626,-45.5412 l 3.82773,-0.8319 -2.3505,-3.1328 c -0.27394,-0.3658 -6.82264,-9.0628 -15.66669,-17.9069 -6.44115,-6.4393 -4.872,-22.8258 -3.72295,-28.5968 l 1.00106,-5.0356 z" inkscape:connector-curvature="0"/>
      <path id="path27703" style="fill:url(#linearGradient3898);fill-opacity:1;fill-rule:nonzero;stroke:none" d="m 885.63409,1899.786 c 0,0 -16.64477,-13.7915 -24.27357,-30.3242 -12.12116,-26.2591 -39.36299,-67.6627 -43.40398,-126.2444 -3.84612,-55.7393 -34.75388,-96.5961 -53.1066,-116.2266 0.002,-0.096 0,-0.2757 0,-0.2757 0,0 41.87803,13.2316 72.74443,15.4369 30.86823,2.2043 68.35319,-8.8321 83.78271,-11.0374 12.48701,-1.7833 20.35576,-4.8802 23.01881,-6.0486 -8.52692,7.9643 -21.16102,19.9412 -36.56848,35.3514 -27.27031,27.2703 -33.4936,73.0404 -34.33195,104.0107 -1.00933,37.371 38.37663,98.9686 45.44654,108.0581 7.07083,9.0904 5.06688,22.2329 5.06688,22.2329 l -38.37479,5.0669 z" inkscape:connector-curvature="0"/>
      <path id="path27705" style="fill:#002f00;fill-opacity:1;fill-rule:nonzero;stroke:none" d="m 846.06704,1646.2123 c 21.10494,0 43.66412,-4.7948 60.13698,-8.2962 6.34831,-1.3494 11.82977,-2.5151 15.70622,-3.0684 2.97468,-0.4247 5.70208,-0.9239 8.17392,-1.4552 -8.3642,7.9846 -16.59971,16.0335 -24.92348,24.3591 -27.65087,27.6508 -34.53234,73.2178 -35.43595,106.5754 -1.06634,39.5192 40.31255,102.8524 46.24075,110.4748 4.17246,5.3638 4.62473,12.6534 4.51533,16.5795 l -33.6563,4.4446 c -3.87646,-3.4546 -16.03438,-14.9277 -22.04073,-27.9433 -2.29443,-4.9703 -5.15236,-10.5354 -8.17944,-16.4278 -13.35754,-26.0027 -31.65143,-61.6133 -34.88626,-108.4966 -3.38649,-49.0812 -27.34385,-86.8594 -45.75999,-109.0527 14.83569,4.1282 40.39345,10.5097 61.36693,12.008 2.7798,0.1986 5.72046,0.2988 8.74202,0.2988 m 111.0717,-36.4861 -14.25869,11.8862 c -2.23311,1.8615 -10.13651,4.0694 -22.03613,5.7692 -4.12833,0.5901 -9.72561,1.7796 -16.2072,3.1576 -16.14654,3.4315 -38.25805,8.1316 -58.56968,8.1316 -2.8423,0 -5.60372,-0.095 -8.20517,-0.2804 -30.05471,-2.1464 -71.46208,-15.1399 -71.87667,-15.2705 l -4.95748,-1.5655 0.0523,5.3685 -0.022,1.5186 1.03783,1.1242 c 17.83794,19.0817 48.32929,59.2545 52.09727,113.9119 3.34146,48.4303 22.04625,84.8389 35.70162,111.4235 2.99123,5.8197 5.81331,11.3167 8.04156,16.1419 7.89631,17.1127 24.58428,31.0613 25.2921,31.6468 l 1.26764,1.0498 42.8129,-5.6534 0.42745,-2.799 c 0.091,-0.6021 2.15562,-14.8633 -5.81698,-25.1157 -2.96089,-3.8047 -14.468,-21.0148 -25.35829,-42.7954 -13.03121,-26.0596 -19.70309,-47.7915 -19.29679,-62.846 1.56915,-57.952 18.93553,-87.1535 33.22886,-101.446 12.12025,-12.123 24.05296,-23.6577 36.47563,-35.2631 l 5.67431,-1.611 z" inkscape:connector-curvature="0" sodipodi:nodetypes="cscccccccccscsccsccscccccccccccccccccccc"/>
      <path style="fill:url(#linearGradient3884);fill-opacity:1;fill-rule:nonzero;stroke:none" d="m 1336.0495,1291.4694 c 0,0 -219.3437,-76.7818 -449.66861,-73.649 -230.32779,3.1337 -391.7306,34.4882 -391.7306,34.4882 0,0 -4.68631,-115.9728 48.58668,-180.2124 45.63773,-55.0343 132.64608,-125.00757 202.95543,-150.83283 l -14.33747,76.00588 86.37591,-3.4573 18.26539,-83.66318 c 84.05849,2.78257 205.27457,24.87569 272.36377,45.99626 84.6083,26.63418 184.8813,137.88627 197.4143,172.35687 12.5358,34.4718 29.7752,162.9675 29.7752,162.9675" id="path3868" inkscape:connector-curvature="0"/>
      <path style="fill:url(#linearGradient3890);fill-opacity:1;fill-rule:nonzero;stroke:none" d="m 571.25094,1350.1282 c -15.91672,18.724 -40.74,50.1393 -20.37046,108.1133 20.37046,57.973 89.31014,78.3417 131.61469,65.806 42.30548,-12.5348 84.60821,-45.4374 84.60821,-87.7438 0,-42.3064 -26.6342,-78.3426 -26.6342,-78.3426 0,0 9.39835,68.9424 -45.4401,83.0436 -54.83846,14.1012 -68.94151,-28.571 -68.94151,-51.7057 0,-23.5032 21.05253,-51.2469 42.30455,-61.1077 -46.11758,-6.7251 -81.8808,3.9813 -97.14118,21.9369" id="path3866" inkscape:connector-curvature="0"/>
      <path style="fill:url(#linearGradient3886);fill-opacity:1;fill-rule:nonzero;stroke:none" d="m 979.37903,1407.649 c -1.7576,27.547 -3.01421,72.5018 54.25557,111.0264 57.2672,38.5228 133.0248,10.5731 162.6989,-29.1217 29.676,-39.6939 45.6746,-97.7286 17.2681,-135.824 -28.4047,-38.0925 -76.5896,-52.657 -76.5896,-52.657 0,0 54.7557,55.7659 14.8476,105.2866 -39.9136,49.5225 -81.2612,20.5662 -96.7993,-0.2647 -15.7815,-21.1629 -15.4561,-60.2804 -2.9388,-83.4297 -46.0429,24.9133 -71.05658,58.5669 -72.74247,84.9841" id="path3864" inkscape:connector-curvature="0"/>
      <path style="fill:url(#linearGradient3888);fill-opacity:1;fill-rule:nonzero;stroke:none" d="m 883.87502,1361.7677 -69.09778,-88.0986 148.56189,5.1808 -79.46411,82.9178 z" id="path27707" inkscape:connector-curvature="0"/>
      <path id="path27709" style="fill:#a17418;fill-opacity:1;fill-rule:nonzero;stroke:none" d="m 656.3149,1523.1981 c -37.54195,0 -85.25074,-20.7833 -101.28605,-66.4155 -20.0809,-57.1567 5.71494,-87.5029 19.57348,-103.8057 11.9272,-14.034 36.89756,-22.413 66.79415,-22.413 4.47121,0 9.04721,0.1857 13.69766,0.5525 -17.66144,13.124 -33.40534,36.3534 -33.40534,58.1818 0,13.1424 4.02169,27.0395 10.75608,37.1751 9.44615,14.2134 24.07317,21.7254 42.30364,21.7254 6.61396,0 13.80429,-0.9873 21.37611,-2.9332 24.10444,-6.1986 40.17375,-23.5079 46.46782,-50.0558 1.78334,-7.512 2.54079,-14.7234 2.79267,-20.8006 7.51482,13.9413 17.31948,36.916 17.31948,61.8946 0,40.8044 -42.2255,71.9006 -81.45886,83.5244 -7.54424,2.2366 -15.93236,3.37 -24.93084,3.37 m -14.91842,-201.4322 c -32.92918,0 -59.71781,9.299 -73.4982,25.5127 -8.91024,10.483 -18.89784,23.1483 -24.62565,40.831 -6.90445,21.3209 -5.74344,45.407 3.45636,71.5898 7.98088,22.7136 23.78361,41.6133 45.70024,54.6528 19.12122,11.3784 41.80909,17.6439 63.88567,17.6439 9.84603,0 19.07433,-1.2547 27.43027,-3.7311 22.91676,-6.7905 44.20647,-18.771 59.95038,-33.7372 18.19276,-17.2938 27.80898,-37.4271 27.80898,-58.2241 0,-43.2587 -26.37496,-79.4384 -27.49828,-80.9579 l -10.22016,-13.8254 2.32385,17.0354 c 0.0211,0.1618 2.18872,16.8535 -2.13357,34.8578 -5.60831,23.3617 -19.08076,37.94 -40.04414,43.3304 -6.85481,1.7622 -13.30974,2.6566 -19.18371,2.6566 -34.93865,0 -44.26071,-31.4933 -44.26071,-50.1024 0,-22.7891 20.95234,-48.3919 39.75549,-57.1164 l 13.39248,-6.2141 -14.60956,-2.1299 c -9.42777,-1.3752 -18.7241,-2.0719 -27.62974,-2.0719 m 462.86922,116.2991 c 18.3739,0 35.5398,-9.7394 51.02,-28.9452 17.4076,-21.6004 20.227,-47.7842 8.1545,-75.7191 -3.7652,-8.7089 -8.3936,-16.2661 -12.5302,-22.1373 16.1373,7.3025 41.6905,21.663 59.1636,45.0964 27.5672,36.9655 10.3736,93.591 -17.2644,130.5594 -20.137,26.9366 -60.2611,45.7498 -97.5742,45.7498 -21.8412,0 -41.7401,-5.9365 -59.146,-17.6449 -56.71843,-38.1532 -53.85682,-83.0013 -52.31801,-107.0956 1.57283,-24.6808 24.43901,-53.2399 59.27851,-74.9129 -7.5268,23.6687 -6.3593,55.8036 8.4847,75.708 10.5786,14.184 29.9876,29.3414 52.7315,29.3414 m 17.5603,-146.1783 12.044,12.2655 c 0.1324,0.1351 13.3465,13.7592 21.5875,32.9604 10.7368,25.0108 8.3743,47.3806 -7.023,66.4862 -13.7262,17.0318 -28.5867,25.6672 -44.1688,25.6672 -19.511,0 -36.8001,-13.8999 -45.6791,-25.8023 -15.4259,-20.6849 -13.7492,-58.0816 -2.5942,-78.7076 l 7.0241,-12.988 -12.9881,7.0267 c -22.2843,12.0577 -41.0627,26.9275 -54.30723,43.0004 -12.63961,15.3395 -19.8088,31.099 -20.73172,45.5734 -0.97992,15.3707 -1.46711,33.4182 5.21763,53.091 8.05719,23.7202 25.20752,44.5346 50.97132,61.8651 18.8841,12.7022 40.4338,19.1434 64.0566,19.1434 40.5415,0 82.5859,-19.8042 104.6211,-49.2798 16.0261,-21.4359 27.1159,-46.4375 31.2295,-70.4023 4.7415,-27.6388 -0.085,-52.0816 -13.9578,-70.6862 -28.9379,-38.8096 -76.8194,-53.6269 -78.8427,-54.2381 l -16.4591,-4.975 z m -237.61931,63.176 -60.13331,-76.6678 129.28716,4.509 -69.15385,72.1588 z m -78.7278,-86.1204 78.06318,99.5304 89.77435,-93.6766 -167.83753,-5.8538 z m -78.97138,-267.0562 95.29625,-3.81395 18.20564,-83.39389 c 86.50461,3.3865 205.5515,26.1516 267.5288,45.66256 49.004,15.42677 98.7379,58.14048 124.0227,82.22928 38.9603,37.1182 64.997,72.0816 70.5796,87.4348 10.5603,29.0408 24.7828,127.7787 28.5838,155.0361 -16.7762,-5.5154 -63.5069,-20.2067 -127.1801,-34.7308 -73.9579,-16.87 -186.6234,-36.9812 -303.3638,-36.9831 -4.61737,0 -9.28069,0.032 -13.86037,0.094 -205.44567,2.7955 -357.93089,28.3478 -387.35775,33.6215 -0.10203,-22.8966 2.34867,-117.4979 47.661,-172.1378 22.87724,-27.5884 56.23019,-58.8169 91.50437,-85.67825 36.24673,-27.60216 71.42439,-48.57289 102.27884,-61.01762 l -13.89898,73.67747 z m 106.47151,-96.25504 -18.32055,83.92152 -77.45555,3.09967 14.75111,-78.19093 -7.27858,2.67225 c -73.45867,26.98167 -160.35763,98.53113 -204.82425,152.15443 -28.16842,33.966 -40.14893,82.0241 -45.23694,116.3588 -5.48514,37.007 -4.40963,65.6387 -4.3609,66.8392 l 0.20774,5.1175 5.02735,-0.9763 c 1.61052,-0.3135 163.71012,-31.3168 390.952,-34.4082 4.53831,-0.061 9.16211,-0.093 13.73995,-0.093 115.9223,0 227.89,19.9927 301.4066,36.7625 79.6545,18.1697 132.4844,36.5491 133.0083,36.733 l 6.7675,2.3679 -0.9542,-7.1057 c -0.7051,-5.2654 -17.4454,-129.3644 -29.9986,-163.8848 -12.9669,-35.6566 -114.389,-148.02784 -200.229,-175.05087 -63.4094,-19.96131 -186.01934,-43.29909 -273.53971,-46.19563 l -3.66227,-0.12134 z" inkscape:connector-curvature="0"/>
      <path id="path27711" style="fill:url(#radialGradient3914);fill-opacity:1;fill-rule:nonzero;stroke:none" d="m 1226.5768,1232.4713 c 0,0 -87.6298,-28.3486 -108.254,-33.5056 -20.6233,-5.1551 -172.72767,-11.6192 -211.40029,-10.3304 -38.6717,1.2897 -126.33547,12.9108 -177.89591,18.0696 -51.56227,5.157 -130.211,15.4755 -130.211,15.4755 l 0.5111,-22.4683 c 0,0 3.98308,-57.9932 35.98015,-111.9859 29.90763,-50.4694 75.51962,-92.18855 100.94686,-113.75307 l -4.40135,23.29362 1.18031,-0.039 -1.57099,1.4138 56.72016,33.15185 c 0,0 43.63194,7.8494 56.71832,4.3618 13.08636,-3.4904 15.71172,-21.7991 15.71172,-26.16 0,-4.3627 5.22407,-45.36844 5.22407,-45.36844 0,0 131.29756,11.32326 185.43435,20.34656 54.1417,9.02423 105.7242,56.74608 123.7708,68.34598 18.0457,11.6018 41.241,59.295 47.6868,91.5209 6.443,32.225 3.8489,87.6316 3.8489,87.6316 m -561.73186,248.6769 c -1.35221,-0.01 -2.72924,-0.069 -4.12373,-0.1178 -89.31105,-3.1345 -84.59073,-75.184 -78.32148,-90.8526 6.26833,-15.6694 28.19691,-34.4606 40.73081,-39.1617 6.14882,-2.3054 14.18946,-3.1226 20.77952,-3.3368 -10.4417,12.2995 -17.83334,27.7134 -17.83334,41.6353 0,14.65 5.68828,37.1366 23.76431,48.0775 l -0.079,1.3347 c 0,0 23.50692,14.1233 57.97675,7.8559 34.46984,-6.2665 37.59068,-64.2607 37.59068,-64.2607 l 6.28395,18.8141 c 0,0 -1.53146,80.4872 -86.76842,80.0121 m 432.07141,10.3699 c -30.1568,-0.2757 -64.3793,-10.1402 -82.0543,-37.1191 -29.76974,-45.4373 15.6333,-103.3829 15.6333,-103.3829 0,0 -3.1144,26.6223 6.2859,51.6911 9.4011,25.0696 51.6918,31.3462 65.793,31.3462 1.6298,0 3.1723,-0.1755 4.5962,-0.4716 14.1058,-0.8834 29.505,-8.367 44.6983,-27.2197 28.9755,-35.9517 8.0627,-75.1869 -5.5789,-93.9937 7.3843,3.6954 14.832,7.8255 20.5433,11.9786 17.2359,12.5358 31.349,43.8912 32.9163,78.3629 1.5692,34.4698 -28.2319,62.6548 -53.3015,78.3215 -10.1853,6.3649 -28.8983,10.6743 -49.5316,10.4867 m -210.53529,-168.7044 -38.92817,-47.9992 88.18314,3.0638 -49.25497,44.9354 z" inkscape:connector-curvature="0"/>
      <path id="path27713" style="fill:#a17418;fill-opacity:1;fill-rule:nonzero;stroke:none" d="m 665.59532,1477.3802 -0.72896,0 c -1.05161,-0.01 -2.12254,-0.046 -3.20265,-0.087 l -0.80986,-0.03 c -32.21492,-1.1297 -54.87798,-11.4179 -67.36316,-30.5768 -13.74087,-21.0829 -10.96475,-46.671 -7.58928,-55.106 5.62117,-14.0525 26.24351,-32.4144 38.55404,-37.0318 3.3773,-1.2657 7.41371,-2.0342 11.30394,-2.4957 -8.62159,12.2554 -13.45498,25.4953 -13.45498,37.2634 0,15.9434 6.23892,38.2443 23.64022,50.0575 l -0.0828,1.411 1.95707,1.1758 c 0.68024,0.4081 16.93617,9.9986 42.3018,9.9986 6.06242,0 12.21769,-0.5607 18.29113,-1.6648 25.03011,-4.5502 34.75204,-32.8501 38.46487,-51.4345 l 0.94039,2.8147 c -0.18293,3.4362 -1.5526,20.8228 -10.97118,37.9014 -13.83739,25.0862 -37.80946,37.8058 -71.25066,37.8058 m -13.30606,-133.7464 -8.50301,0.2767 c -6.21502,0.2022 -15.07562,0.9863 -21.97914,3.575 -14.06353,5.2746 -36.33866,24.8692 -42.90851,41.2915 -3.83049,9.5748 -7.06623,38.4869 8.27228,62.0251 13.9045,21.3375 38.60644,32.7747 73.41732,33.9964 l 0.79514,0.03 c 1.16193,0.043 2.30915,0.085 3.43982,0.092 l 0.77216,0 c 45.48791,0 67.52312,-22.823 77.99791,-41.9682 11.25892,-20.5791 11.77369,-40.8898 11.79024,-41.7448 l 0.012,-0.6499 -12.75268,-38.1762 -1.07827,19.7353 c -0.0312,0.5497 -3.37363,55.0958 -34.5011,60.7548 -5.63037,1.0239 -11.3306,1.5433 -16.94259,1.5433 -18.44097,0 -31.66614,-5.5347 -36.45265,-7.8853 l 0.0708,-1.1867 -1.94697,-1.1775 c -16.198,-9.8048 -21.94512,-30.2892 -21.94512,-44.8519 0,-12.0485 6.33267,-26.7013 16.938,-39.1947 l 5.50444,-6.4861 z m 455.38051,93.695 c 16.9076,-1.1482 32.7664,-10.769 47.1351,-28.6005 13.4091,-16.6374 18.1045,-35.6566 13.9551,-56.528 -2.1971,-11.0439 -6.6306,-21.1519 -11.3536,-29.5133 2.7467,1.6426 5.1542,3.2155 7.2096,4.7102 17.0097,12.3721 29.9086,43.4131 31.3674,75.4847 0.6665,14.661 -4.6716,29.3708 -15.8671,43.7202 -11.2552,14.4248 -25.6083,24.9455 -35.6657,31.2322 -10.0116,6.2555 -28.2797,10.0942 -47.4993,9.9132 -16.8589,-0.1545 -58.2967,-3.9133 -78.935,-35.4149 -20.49457,-31.2801 -2.8138,-69.6751 8.2134,-88.1068 0.1677,10.3645 1.5668,25.2581 7.0207,39.8061 10.3433,27.5846 54.6271,33.7923 69.3239,33.7923 1.7117,0 3.4243,-0.1664 5.0955,-0.4954 m 26.5073,-135.2394 9.0619,12.4926 c 13.7537,18.9649 32.7857,55.8 5.6929,89.414 -13.0597,16.2081 -27.1912,24.8959 -41.9967,25.8225 l -0.5332,0.072 c -1.251,0.261 -2.5398,0.3925 -3.8277,0.3925 -5.9447,0 -19.6717,-1.2768 -33.4191,-6.0624 -10.6403,-3.7036 -24.2809,-10.6715 -28.8431,-22.8368 -8.9756,-23.9362 -6.101,-49.6714 -6.0707,-49.9288 l 1.559,-13.3208 -8.2713,10.5567 c -0.4799,0.6104 -11.7971,15.1748 -19.5399,35.6436 -10.42794,27.56 -9.14099,52.5027 3.7184,72.1314 22.633,34.5442 67.1052,38.6579 85.1757,38.8234 20.5341,0.1929 40.3999,-4.0833 51.5641,-11.0595 10.5723,-6.6084 25.6828,-17.6945 37.6146,-32.988 12.3326,-15.8073 18.2056,-32.1938 17.4555,-48.7025 -1.5553,-34.2041 -15.7283,-67.6122 -34.4643,-81.241 -5.2139,-3.7901 -12.1064,-7.8136 -21.0746,-12.3023 l -13.8015,-6.9063 z m -247.38483,15.2457 -31.19548,-38.464 70.6651,2.4554 -39.46962,36.0086 z m -47.48266,-46.5762 46.65994,57.5345 59.04033,-53.8622 -105.70027,-3.6723 z m -4.13016,-229.9399 c 4.61644,0 8.11417,-0.3337 10.69174,-1.0204 15.11053,-4.0309 18.51266,-23.3534 18.51266,-29.804 0,-2.8111 2.68236,-25.01731 4.73595,-41.2953 21.50205,1.89641 133.1673,11.93272 181.5319,19.99358 42.073,7.01197 82.6943,38.00462 106.9642,56.52192 6.4513,4.9207 11.5449,8.8064 15.3864,11.2764 14.5718,9.3689 38.6735,52.3178 46.0275,89.0886 5.1707,25.8556 4.4077,67.5378 3.9619,81.7723 -18.6956,-6.0247 -85.7729,-27.5479 -103.7524,-32.0439 -19.0991,-4.7737 -147.7276,-10.609 -199.70445,-10.6099 -5.09905,0 -9.38457,0.057 -12.73797,0.1691 -26.0661,0.8686 -73.0248,6.2628 -118.43548,11.4785 -21.9727,2.5234 -42.72741,4.9079 -59.70954,6.6067 -44.09709,4.4105 -108.71539,12.6874 -125.96777,14.9221 l 0.40998,-17.9805 c 0.18844,-2.4406 4.84718,-58.5953 35.4571,-110.2449 20.35484,-34.3495 52.04855,-70.7672 91.99434,-105.77694 l -2.3928,12.67359 -3.05281,2.7449 2.28248,1.33385 -0.10755,0.5681 1.02129,-0.034 58.55864,34.2274 0.65909,0.1186 c 1.20605,0.2169 29.74584,5.3142 47.6656,5.3142 m 27.37326,-80.26054 -0.45778,3.59149 c -0.53683,4.22117 -5.25348,41.37245 -5.25348,45.84465 0,3.1374 -2.2448,19.6712 -12.91263,22.5162 -1.31268,0.3493 -3.89392,0.7667 -8.74937,0.7667 -15.80458,0 -41.29063,-4.3159 -45.67819,-5.0807 l -51.67901,-30.20575 5.42445,-4.8794 -6.81344,0.2289 5.50077,-29.12994 -8.12061,6.88699 c -45.05769,38.2149 -79.2922,76.8069 -101.75119,114.7065 -32.08532,54.1407 -36.33315,111.246 -36.49862,113.6507 l -0.007,0.172 -0.61222,26.864 4.3609,-0.5718 c 0.78595,-0.103 79.18374,-10.37 130.0961,-15.4627 17.0382,-1.7042 37.82048,-4.0905 59.81892,-6.6176 43.15487,-4.9574 92.06695,-10.5759 117.82695,-11.4345 3.27159,-0.1084 7.47254,-0.1635 12.48702,-0.1635 50.35898,0 179.60712,5.8178 197.87522,10.3837 20.2647,5.0669 107.1315,33.1517 108.0057,33.4347 l 4.6964,1.5196 0.2316,-4.9309 c 0.1067,-2.2806 2.5408,-56.2403 -3.9187,-88.5471 -6.4687,-32.3455 -29.9223,-81.4671 -49.3431,-93.9532 -3.5889,-2.3055 -8.5766,-6.1112 -14.8909,-10.929 -24.827,-18.9419 -66.3796,-50.64423 -110.2993,-57.96509 -53.66406,-8.94425 -184.41834,-20.27026 -185.73194,-20.38333 l -3.60712,-0.31162 z" inkscape:connector-curvature="0"/>
      <path style="fill:#ffffff;stroke:none;filter:url(#filter3984);fill-opacity:0.74553573" d="M 203.0357,144.28131 C 80.119825,212.79312 83.154126,276.6401 60.104431,341.45316 c -0.174669,0 -2.300979,-155.39194 142.931269,-197.17185 z" id="path3942" inkscape:connector-curvature="0" transform="matrix(2.044429,0,0,-2.044429,194.69067,1966.6348)" sodipodi:nodetypes="ccc"/>
      <path style="fill:#ffffff;stroke:none;filter:url(#filter3988);fill-opacity:0.74553573" d="m 229.42301,163.33881 c -100.4041,56.94588 -68.66654,103.72701 -100.41838,155.39194 0,0 0,-133.40252 100.41838,-155.39194 z" id="path3944" inkscape:connector-curvature="0" transform="matrix(2.044429,0,0,-2.044429,194.69067,1966.6348)" sodipodi:nodetypes="ccc"/>
      <path style="fill:#ffffff;stroke:none;filter:url(#filter3992);fill-opacity:0.74553573" d="m 406.80438,136.9515 c 78.5319,12.93529 148.25477,36.8177 188.37608,97.48645 0,0 -41.04693,-100.41838 -188.37608,-97.48645 z" id="path3946" inkscape:connector-curvature="0" transform="matrix(2.044429,0,0,-2.044429,194.69067,1966.6348)" sodipodi:nodetypes="ccc"/>
      <path style="fill:#ffffff;stroke:none;filter:url(#filter4034);fill-opacity:0.68303573" d="m 339.00365,37.2661 c -10.63239,19.172725 -21.45154,32.555693 -31.15169,80.62789 0,0 -3.6649,-35.549567 31.15169,-80.62789 z" id="path3996" inkscape:connector-curvature="0" transform="matrix(2.044429,0,0,-2.044429,194.69067,1966.6348)" sodipodi:nodetypes="ccc"/>
      <path style="fill:#c35000;stroke:none;filter:url(#filter4052);fill-opacity:1" d="m 115.57995,507.92982 c 9.31796,6.86818 26.66758,23.06824 51.31127,13.4757 l 10.36592,-1.0366 c 30.45044,35.43706 63.083,32.87945 76.18948,27.46968 l 13.47569,5.70125 c 24.3599,18.34757 82.92731,29.007 124.39097,1.03659 l 13.47569,-0.51829 c 26.14286,8.23281 56.72137,10.78929 89.14687,-25.91479 l 10.88421,-6.73785 c 18.8693,4.85028 40.65397,-9.24929 62.19549,-21.76842 -21.70678,15.8814 -43.01776,36.11657 -67.37845,22.80502 -25.5724,25.40486 -58.91133,35.92388 -101.06767,29.54285 -48.17609,19.09554 -94.35511,18.22049 -138.38496,-4.14636 -37.31341,2.31584 -64.67928,-13.05286 -89.66516,-32.65263 -22.20019,9.24251 -38.00209,-0.70985 -54.93935,-7.25615 z" id="path4038" inkscape:connector-curvature="0" transform="matrix(2.044429,0,0,-2.044429,194.69067,1966.6348)" sodipodi:nodetypes="ccccccccccccccc"/>
    </g>
  </g>
  <metadata>
    <rdf:RDF>
      <cc:Work>
        <dc:format>image/svg+xml</dc:format>
        <dc:type rdf:resource="http://purl.org/dc/dcmitype/StillImage"/>
        <cc:license rdf:resource="http://creativecommons.org/licenses/publicdomain/"/>
        <dc:publisher>
          <cc:Agent rdf:about="http://openclipart.org/">
            <dc:title>Openclipart</dc:title>
          </cc:Agent>
        </dc:publisher>
        <dc:title>Colored: Pumpkin</dc:title>
        <dc:date>2013-11-24T16:17:42</dc:date>
        <dc:description>for the ColoringContest2013</dc:description>
        <dc:source>http://openclipart.org/detail/189100/colored:-pumpkin-by-nicubunu-189100</dc:source>
        <dc:creator>
          <cc:Agent>
            <dc:title>nicubunu</dc:title>
          </cc:Agent>
        </dc:creator>
        <dc:subject>
          <rdf:Bag>
            <rdf:li>ColoringContest2013</rdf:li>
            <rdf:li>pumpkin</rdf:li>
            <rdf:li>jack-o-lantern</rdf:li>
            <rdf:li>halloween</rdf:li>
            <rdf:li>scary</rdf:li>
          </rdf:Bag>
        </dc:subject>
      </cc:Work>
      <cc:License rdf:about="http://creativecommons.org/licenses/publicdomain/">
        <cc:permits rdf:resource="http://creativecommons.org/ns#Reproduction"/>
        <cc:permits rdf:resource="http://creativecommons.org/ns#Distribution"/>
        <cc:permits rdf:resource="http://creativecommons.org/ns#DerivativeWorks"/>
      </cc:License>
    </rdf:RDF>
  </metadata>
</svg>
